<svg xmlns="http://www.w3.org/2000/svg" style="display: none">
  <symbol id="#logo" viewBox="0 0 254.01413 133.04733">
    <path d="m 98.917415,28.897937 c 1.052,-0.136 0.862,-1.852 -0.172,-1.634 -0.885,0.186 -0.769,1.698 0.172,1.634 m 0.7001,-14.1852 c -0.948,0.097 -0.908,1.566 0.024,1.631 1.050005,0.072 1.039005,-1.68 -0.024,-1.631 m 0.2659,4.2878 c -0.992,0.132 -0.751,1.754 0.240005,1.624 0.995,-0.132 0.746,-1.749 -0.240005,-1.624 -0.199,0.026 0.424005,-0.054 0,0 m -1.4473,-6.1903 c 1.166,0.111 0.923,-1.87 -0.152,-1.661 -0.795,0.155 -0.772,1.569 0.152,1.661 0.022,0.002 -0.246,-0.025 0,0 m -19.8136,47.908299 0,0 0,0 z m -0.351,-0.828 c -1.273,-0.047 -0.917,2.032 0.246,1.621 0.813,-0.288 0.621,-1.586 -0.246,-1.621 -0.44,-0.017 0.439,0.017 0,0 m 16.0039,-20.9001 c -0.112,1.352 2.196,0.813 1.46,-0.461 -0.41,-0.71 -1.395,-0.325 -1.46,0.461 -0.018,0.214 0.043,-0.526 0,0 m 3.6957,-6.953499 c 1.013,-0.087 1.115,-1.763 0.021,-1.741 -1.017,0.02 -1.153,1.833 -0.021,1.741 0.451,-0.039 -0.023,0.002 0,0 m -8.5551,17.584499 c -0.572,-1.429 -2.216,-0.291 -1.37,0.667 0.611,0.692 1.691,0.126 1.37,-0.667 -0.056,-0.141 0.021,0.051 0,0 m 2.223,-10.6316 c -0.754,0.083 -0.848,1.218 -0.384,1.646 1.209,1.115 1.859,-1.8 0.384,-1.646 -0.203,0.022 0.272,-0.028 0,0 m 4.6132,-3.0443 c 0.636,0.492 1.458,-0.403 1.086,-1.156 -0.617,-1.248 -2.272,0.247 -1.086,1.156 0.026,0.02 -0.094,-0.072 0,0 m 3.7215,-10.799199 c 1.173005,-0.576 0.156005,-2.433 -0.781,-1.495 -0.547,0.549 -0.149,1.952 0.781,1.495 0.479005,-0.235 -0.089,0.044 0,0 m -6.3659,-11.9547 c 0,-1.072 -1.579,-1.1 -1.645,-0.045 -0.071,1.125 1.646,1.223 1.645,0.045 0,-0.254 0,0.249 0,0 m 2.0904,-2.0537 c 1.143,0 1.103,-1.8869999 -0.051,-1.7209999 -0.936,0.134 -0.959,1.7209999 0.051,1.7209999 m 0.8334,39.378499 c 0.356,-0.565 -0.217,-1.509 -0.952,-1.32 -1.474,0.38 0.087,2.672 0.952,1.32 0.012,-0.019 -0.063,0.098 0,0 m -5.3291,-29.732299 c 1.215,0.589 1.583,-1.676 0.315,-1.728 -0.911,-0.037 -1.08,1.356 -0.315,1.728 0.102,0.049 -0.279,-0.136 0,0 m -10.5643,36.776199 c -1.034,0.147 -0.87,1.828 0.167,1.774 1.116,-0.059 0.929,-1.924 -0.167,-1.774 -0.441,0.063 0.443,-0.061 0,0 m 6.0444,-5.7968 c -1.05,-0.331 -1.539,1.618 -0.425,1.802 1.064,0.175 1.441,-1.485 0.425,-1.802 -0.36,-0.113 0.349,0.109 0,0 m 4.4904,-6.164 c -1.464,-0.323 -1.169,2.406 0.142,1.747 0.695,-0.35 0.697,-1.561 -0.142,-1.747 -0.222,-0.049 0.411,0.091 0,0 m 3.0189,0.3972 c 0,0 0,0 0,0 m 1.169,-0.266 c -0.094,-1.231 -2.027,-1.095 -1.636,0.216 0.303,1.015 1.654,0.913 1.636,-0.216 m 1.6857,8.2385 c 0.8,-0.251 0.619,-1.522 -0.034,-1.802 -1.449,-0.62 -1.355,2.237 0.034,1.802 0.225,-0.07 -0.079,0.025 0,0 m -6.3646,-20.4495 c 0.877,0 1.052,-1.236999 0.484,-1.715999 -1.176,-0.99 -1.926,1.715999 -0.484,1.715999 m -6.529,20.9024 c -1.219,-0.295 -1.503,1.597 -0.3,1.683 1.028,0.074 1.367,-1.425 0.3,-1.683 -0.275,-0.067 0.479,0.116 0,0 m 14.1086,2.1282 c 0.341,-0.8 -0.586,-1.79 -1.225,-1.224 -1.04,0.922 0.665,2.537 1.225,1.224 0.179,-0.421 -0.098,0.231 0,0 m 1.0458,3.1537 c 0.253,-0.809 -0.603,-1.901 -1.308,-1.233 -1.118,1.061 0.896,2.545 1.308,1.233 0.135,-0.43 -0.077,0.244 0,0 m -5.0395,-17.3103 c 0.11,-1.337 -1.934,-1.359 -1.725,-0.034 0.147,0.932 1.636,1.125 1.725,0.034 0.023,-0.287 -0.033,0.41 0,0 m -1.3602,-26.006399 c -0.036,-0.998 -1.164,-1.231 -1.563,-0.29 -0.572,1.346 1.522,1.824 1.563,0.29 m -2.3445,6.4783 c -1.035,0.743 0.114,2.472 1.014,1.553 0.682,-0.697 -0.231,-2.115 -1.014,-1.553 m -0.4296,5.1513 c 0.472,0.866 1.526,0.128 1.5,-0.626 -0.053,-1.507 -2.349,-0.938 -1.5,0.626 0.159,0.292 -0.117,-0.215 0,0 m 1.0423,7.522699 c -1.063,0.592 -0.306,2.492 0.782,1.819 0.859,-0.531 0.04,-2.219 -0.782,-1.819 m -10.6754,-20.645599 c -1.028,0.8 -1.846,2.053 -2.806,2.955 -0.593,0.558 -1.138,1.174 -1.695,1.767 -1.962,2.088 -3.734,4.276 -5.517,6.515 -3.642,4.575 -6.765,9.511999 -9.383,14.736999 -0.453,0.904 -3.56,6.262 -2.092,6.887 0.745,0.317 1.151,-1.12 1.308,-1.577 0.495,-1.438 1.193,-2.801 1.863,-4.162 2.294,-4.663 4.86,-9.250999 8.041,-13.375999 2.081,-2.7 4.196,-5.366 6.568,-7.815 1.073,-1.109 2.153,-2.201 3.202,-3.333 0.443,-0.478 1.243,-0.991 1.539,-1.562 0.349,-0.674 -0.28,-1.62 -1.028,-1.036 -0.16,0.124 0.298,-0.233 0,0 m 80.290905,39.157999 c 1.016,2.427 -0.054,6.015 -1.241,8.209 -0.508,-0.443 -1.1,-0.769 -1.79,-0.769 0.247,-1.478 -0.012,-3.037 0.374,-4.487 0.183,-0.689 0.509,-1.33 0.934,-1.901 0.169,-0.228 1.418,-1.78 1.723,-1.052 0.124,0.297 -0.043,-0.103 0,0 m -2.146,9.69 c -0.165,0.322 -0.66,0.401 -0.849,0.669 -0.143,-0.156 -0.102,-1.225 0.166,-1.337 0.393,-0.164 0.432,0.59 0.683,0.668 -0.005,0.01 -0.003,-10e-4 0,0 m 0.08,-24.421 c 0.372,-4.68 1.134,-9.301999 1.578,-13.968999 0.216,-2.276 0.671,-4.499 0.88,-6.775 0.183,-1.995 0.265,-4.168 0.958,-6.051 0.416,-1.132 1.961,-4.3689999 3.575,-3.1229999 1.435,1.1069999 0.849,4.2609999 0.73,5.7789999 -0.191,2.428 -0.491,4.933 -1.081,7.298 -0.436,1.744 -1.084,3.45 -1.633,5.163 -1.488,4.64 -3.055,9.264999 -5.164,13.664999 0.052,-0.662 0.104,-1.324 0.157,-1.987 m 43.664,23.205 c -0.41,-1.129 -0.131,-2.646 0.35,-3.709 0.175,-0.387 1.311,-2.512 1.991,-1.904 0.188,0.168 0.019,1.315 -0.002,1.553 -0.058,0.673 -0.189,1.336 -0.366,1.988 -0.098,0.36 -1.354,3.785 -1.973,2.072 -0.061,-0.169 0.076,0.208 0,0 m 51.619,-15.555 c -0.234,-1.827 -4.256,1.417 -4.784,1.744 -2.029,1.255 -3.93,2.621 -5.835,4.061 -1.527,1.153 -3.047,2.315 -4.568,3.476 -1.703,1.302 -3.183,2.794 -4.731,4.273 -3.215,3.074 -6.945,6.938 -11.392,8.114 -4.322,1.143 -9.552,0.222 -12.959,-2.728 -1.673,-1.448 -2.564,-3.533 -3.073,-5.642 -0.275,-1.143 -0.311,-2.178 -0.316,-3.346 -0.004,-1.017 -0.241,-2.018 -1.477,-1.947 -0.82,0.048 -1.657,0.646 -2.442,0.906 -1.045,0.344 -2.059,0.773 -3.032,1.288 -2.152,1.137 -4.208,2.53 -6.259,3.837 -4.04,2.573 -8.188,5.182 -12.476,7.321 -3.785,1.889 -8.215,3.885 -12.557,2.799 -0.912,-0.228 -1.725,-0.786 -2.506,-1.294 -1.086,-0.706 -2.39,-1.302 -3.15,-2.368 -0.521,-0.731 -0.899,-1.39 -1.296,-2.205 -0.265,-0.543 -0.729,-1.158 -0.646,-1.784 0.042,-0.307 0.341,-0.723 0.471,-0.987 1.199,-2.448 1.734,-5.06 1.535,-7.792 -0.076,-1.05 -0.634,-2.227 -1.809,-2.348 -1.267,-0.13 -2.107,1.004 -2.757,1.905 -0.146,-1.983 0.066,-3.959 0.196,-5.937 0.055,-0.835 0.098,-1.673 0.167,-2.507 0.092,-1.1 0.56,-1.883 1.046,-2.855 1.758,-3.516 3.091,-7.185 4.339,-10.905999 1.276,-3.802 2.854,-7.641 3.513,-11.61 0.307,-1.851 0.589,-3.75 0.725,-5.621 0.122,-1.689 0.321,-3.89 -0.49,-5.4499999 -0.769,-1.477 -2.542,-2.191 -3.942,-1.157 -1.419,1.048 -2.215,2.3329999 -2.765,3.9959999 -0.571,1.725 -0.697,3.553 -0.932,5.349 -0.254,1.945 -0.464,3.88 -0.757,5.823 -0.299,1.988 -0.391,4.004 -0.677,5.997 -0.288,2.009 -0.567,4.028999 -0.725,6.052999 -0.158,2.02 -0.414,4.028 -0.528,6.051 -0.101,1.804 -0.134,3.095 -1.17,4.619 -2.162,3.183 -4.273,6.487 -6.962,9.26 -2.285,2.357 -4.746,4.921 -7.602,6.593 -2.663,1.559 -6.648,2.571 -9.294,0.396 -1.307,-1.073 -2.011,-2.594 -2.5,-4.176 -0.264,-0.851 -0.466,-1.721 -0.605,-2.601 -0.104,-0.659 0.037,-2.213 -0.791,-2.454 -0.717,-0.209 -0.902,0.423 -0.993,0.968 -0.144,0.865 -0.274,1.683 -0.503,2.533 -0.247,0.92 -1.529,3.623 -2.226,1.48 -0.292,-0.9 -0.226,-1.992 -0.164,-2.919 0.044,-0.668 0.489,-2.011 -0.2,-2.479 -1.093,-0.744 -1.871,1.791 -2.226,2.378 -1.897,3.141 -4.452,6.101 -7.185,8.547 -1.45,1.298 -2.978,2.46 -4.608,3.521 -0.98,0.638 -1.78,1.104 -2.943,1.265 -1.655,0.23 -3.272,-0.35 -4.421,-1.581 -1.296,-1.386 -1.612,-2.974 -2.472,-4.583 -0.349005,-0.652 -1.399005,-1.087 -1.550005,-0.005 -0.1,0.717 0.748,2.127 1.027,2.811 0.589005,1.44 1.680005,2.911 2.963005,3.811 1.339,0.939 2.943,1.26 4.541,1.053 1.918,-0.248 3.31,-1.21 4.859,-2.316 2.97,-2.121 5.494,-4.596 7.863,-7.359 0.996,-1.163 2.006,-2.392 2.784,-3.712 0.083,1.444 0.358,3.636 2.117,3.924 1.606,0.264 2.616,-1.543 3.038,-2.81 0,1.156 0.745,2.547 1.291,3.545 0.813,1.483 1.899,2.542 3.454,3.225 3.02,1.327 6.523,0.526 9.258,-1.096 3.148,-1.866 5.843,-4.51 8.334,-7.164 2.56,-2.727 4.443,-5.897 6.597,-8.919 -0.038,2.266 -0.391,4.511 -0.376,6.783 0.014,2.213 0.204,4.388 0.025,6.599 -0.183,2.267 -0.129,4.483 -0.202,6.749 -0.079,2.43 -0.318,4.856 -0.336,7.288 -0.031,4.105 -0.305,8.204 -0.335,12.307 -0.004,0.566 0.168,1.792 1.059,1.382 0.827,-0.38 0.441,-2.536 0.455,-3.226 0.031,-1.491 0.064,-2.982 0.088,-4.473 0.046,-2.85 0.061,-5.744 0.227,-8.589 0.084,-1.44 0.185,-2.871 0.223,-4.313 0.015,-0.595 -0.09,-1.42 0.266,-1.814 0.227,-0.252 1.036,-0.623 1.376,-0.833 0.525,1.012 0.986,2.131 1.672,3.049 1.034,1.382 2.618,2.198 4.055,3.093 3.063,1.906 6.358,1.867 9.776,1.015 3.224,-0.803 6.194,-2.356 9.049,-4.022 3.123,-1.822 6.237,-3.635 9.293,-5.566 2.796,-1.767 5.56,-3.576 8.559,-4.981 -0.913,1.635 -1.678,4.504 -0.31,6.112 0.677,0.797 1.783,0.819 2.631,0.284 0.851,-0.538 1.113,-1.482 1.478,-2.364 2.433,8.111 12.874,10.689 19.964,7.258 3.175,-1.536 5.741,-3.888 8.303,-6.265 2.928,-2.716 5.834,-5.321 9.029,-7.723 1.886,-1.418 3.764,-2.937 5.75,-4.21 1.016,-0.65 2.106,-1.144 3.154,-1.734 0.652,-0.368 2.424,-1.146 2.305,-2.07 M 45.742815,9.1363371 c 0.299,0.234 0.032,1.0789999 -0.008,1.4199999 -0.161,-0.479 -0.348,-0.9779999 0.008,-1.4199999 m -5.865,100.0030029 c 0.307,-7.411 2.617,-15.404004 7.224,-21.281004 3.938,-5.024 8.695,-9.275 13.507,-13.435 0.203,6.107 0.083,12.227 0.382,18.326 0.248,5.054 0.415,10.211004 0.14,15.268004 -0.336,6.191 0.052,12.609 -1.963,18.564 -0.784,2.317 -3.908,4.951 -6.43,4.961 -1.348,0.005 -2.859,-0.5 -4.121,-0.92 -1.395,-0.465 -2.69,-1.057 -3.688,-2.17 -2.233,-2.486 -3.674,-6.172 -4.384,-9.394 -0.716,-3.251 -0.803,-6.604 -0.667,-9.919 0.045,-1.09 -0.148,3.606 0,0 m 35.719,-46.901004 c -2.215,1.346 -4.359,2.915 -6.531,4.341 -2.39,1.569 -4.696,3.268 -7.033,4.914 -0.231,-4.034 -0.619,-8.047 -0.698,-12.09 -0.025,-1.304 -0.023,-2.611 0.12,-3.908 0.079,-0.713 0.42,-2.908 -1.096,-2.488 -1.009,0.279 -0.467,1.945 -0.502,2.668 -0.056,1.154 -0.462,2.585 -0.846,3.676 -0.251,0.715 -1.02,2.579 -1.711,1.185 -0.432,-0.873 -0.242,-2.128 -0.235,-3.062 0.009,-1.19 0.261,-2.716 -0.409,-3.784 -0.645,-1.03 -1.744,-1.037 -2.801,-0.729 -2.304,0.67 -4.565,2.69 -6.306,4.278 -1.894,1.726 -3.763,3.54 -5.47,5.453 -3.632,4.071 -6.502,8.693 -9.534,13.208 0.589,-4.257 1.797,-8.355 2.568,-12.573 0.859,-4.698 2.176,-9.316 3.192,-13.979 0.829,-3.805 1.947,-7.531 2.835,-11.323 0.905,-3.863 1.943,-7.678999 2.975,-11.514999 0.971,-3.609 1.387,-7.317 2.32,-10.936 0.066,-0.258 0.108,-0.677 0.237,-0.917 0.211,-0.391 -0.051,-0.255 0.419,-0.406 0.328,-0.106 0.917,0.038 1.263,0.04 0.599,0.004 1.195,-0.036 1.789,-0.113 2.308,-0.298 4.699,-0.819 6.928,-1.483 1.834,-0.546 3.748,-0.88 5.553,-1.517 1.57,-0.554 3.137,-1.131 4.714,-1.6829999 3.083,-1.078 6.231,-1.846 9.34,-2.822 3.879,-1.22 7.824,-2.343 11.78,-3.286 1.941,-0.463 3.893,-0.865 5.86,-1.201 1.124,-0.191 2.248,-0.409 3.376,-0.572 0.701,-0.101 2.475005,0.176 2.682005,-0.79200002 0.36,-1.676 -4.703005,-0.291 -5.417005,-0.171 -2.451,0.41000002 -4.895,0.87200002 -7.315,1.44100002 -4.5,1.059 -8.904,2.518 -13.381,3.664 -2.213,0.567 -4.358,1.295 -6.54,1.948 -0.928,0.278 -1.807,0.697 -2.73,0.99 -0.842,0.267 -1.732,0.423 -2.541,0.782 -1.89,0.8399999 -4.036,1.3379999 -6.063,1.8589999 -2.196,0.564 -4.649,1.167 -6.907,1.347 -0.474,0.038 -1.991,0.344 -2.367,-0.111 -0.249,-0.302 0.192,-2.304 0.242,-2.7599999 0.093,-0.858 0.157,-1.839 -0.717,-2.338 -1.051,-0.6 -1.98,0.078 -2.416,1.045 -0.417,0.923 -0.264,1.9609999 -0.04,2.9189999 0.204,0.872 1.041,1.519 1.026,2.344 -0.014,0.828 -0.375,1.774 -0.54,2.593 -0.216,1.074 -0.443,2.145 -0.658,3.219 -0.91,4.542 -1.928,8.972 -3.3,13.405 -1.304,4.209999 -1.832,8.652999 -3.151,12.861999 -0.697,2.225 -1.019,4.544 -1.559,6.814 -0.376,1.58 -0.748,3.161 -1.145,4.737 -1.096,4.358 -1.999,8.755 -2.973,13.142 -0.497,2.24 -0.678,4.509 -1.118,6.755 -0.581,-2.88 -0.36,-5.889 -0.553,-8.811 -0.205,-3.09 -0.255,-6.153 -0.286,-9.252 -0.061,-6.157 0.234,-12.36 0.639,-18.501 0.384,-5.835 0.538,-11.690999 0.762,-17.533999 0.118,-3.074 0.144,-6.147 0.315,-9.219 0.074,-1.331 0.18,-2.667 0.209,-4 0.008,-0.377 -0.009,-0.758 0.052,-1.132 0.05,-0.308 0.296,-0.757 0.235,-1.069 -0.149,-0.758 -0.988,-0.725 -1.553,-0.476 -0.85,0.375 -1.76,1.516 -2.374,2.189 -0.936,1.0249999 -1.833,2.0949999 -2.745,3.1409999 -1.638,1.88 -3.218,3.816 -4.828,5.72 -3.468,4.1 -6.796,8.392 -9.947,12.744 -1.7239997,2.382999 -3.0739997,5.016999 -4.7719997,7.417999 -1.545,2.183 -3.434,4.203 -4.788,6.511 -0.37400002,0.637 -1.94400002,2.548 -0.59300002,3.116 1.06800002,0.448 1.56600002,-1.497 1.98100002,-2.143 1.232,-1.915 2.748,-3.654 4.06,-5.516 2.006,-2.843 3.6619997,-5.923 5.6759997,-8.758999 1.585,-2.231 3.229,-4.482 4.926,-6.626 2.228,-2.817 4.568,-5.536 6.893,-8.272 2.017,-2.374 3.829,-5.155 6.209,-7.1879999 -0.206,4.1749999 -0.492,8.3329999 -0.433,12.5089999 0.033,2.322 -0.367,4.643 -0.448,6.961 -0.075,2.179 0.016,4.360999 -0.074,6.539999 -0.169,4.068 -0.599,8.095 -0.735,12.166 -0.112,3.341 -0.279,6.666 -0.278,10.01 10e-4,3.83 -0.039,7.662 0.232,11.485 0.235,3.321 0.172,6.69 0.973,9.934 0.216,0.873 0.833,1.749 1.823,1.093 0.794,-0.525 1.352,-1.992 1.885,-2.786 1.254,-1.868 2.501,-3.74 3.747,-5.613 2.148,-3.23 4.379,-6.461 7.133,-9.208 1.834,-1.829 3.585,-3.921 5.69,-5.438 0.931,-0.67 4.554,-4.038 5.592,-2.681 0.61,0.797 0.2,2.726 0.154,3.658 -0.054,1.072 -0.07,2.038 0.404,3.035 0.927,1.951 3.215,1.592 3.952,-0.247 0.021,2.884 0.275,5.739 0.447,8.614 0.074,1.254 0.466,2.548 -0.529,3.435 -1.255,1.119 -2.551,2.192 -3.802,3.316 -4.218,3.792 -8.419,7.873 -11.597,12.598 -3.215,4.78 -4.906,10.824 -5.692,16.484004 -0.802,5.779 -0.68,12.033 1.467,17.526 0.964,2.466 2.344,5.361 4.357,7.152 0.996,0.887 2.204,1.414 3.457,1.827 1.426,0.469 3.014,1.028 4.529,1.027 2.58,0 4.888,-1.832 6.581,-3.581 1.497,-1.547 1.843,-3.607 2.325,-5.614 0.728,-3.031 0.738,-5.918 0.841,-9.014 0.097,-2.937 0.422,-5.875 0.446,-8.812 0.042,-4.955 0.01,-9.862004 -0.274,-14.803004 -0.184,-3.213 -0.135,-6.432 -0.224,-9.644 -0.049,-1.766 0.016,-3.533 -0.044,-5.299 -0.033,-0.982 -0.494,-2.401 0.197,-3.19 0.417,-0.476 1.191,-0.859 1.705,-1.229 0.634,-0.458 1.268,-0.914 1.912,-1.358 1.634,-1.125 3.287,-2.224 4.939,-3.323 1.404,-0.935 2.835,-1.82 4.214,-2.793 0.418,-0.295 1.205,-0.588 1.488,-1.043 0.429,-0.689 -0.327,-1.541 -1.047,-1.106 -0.09,0.055 0.344,-0.208 0,0  " />
  </symbol>
  <symbol id="facebook" viewBox="0 0 90 90">
    <path d="m90 15c0-7.9-7.1-15-15-15h-60c-7.9 0-15 7.1-15 15v60c0 7.9 7.1 15 15 15h30v-34h-11v-15h11v-5.8c0-10.1 7.6-19.2 16.9-19.2h12.1v15h-12.1c-1.4 0-2.9 1.6-2.9 4v6h15v15h-15v34h16c7.9 0 15-7.1 15-15v-60z"/>
  </symbol>
  <symbol id="twitter" viewBox="0 0 90 90">
    <path d="m15.6 0c-8.6 0-15.6 7-15.6 15.6v58.8c0 8.7 7 15.6 15.6 15.6h58.7c8.66 0 15.6-7 15.6-15.6v-58.5c0.7-8.67-6.2-15.8-14.6-15.8-20.7-0.1-59.3 0-59.3 0zm46.2 16.6c-0.27 1.75-2.8 2.74-4.3 3.33 1.16-0.4 7.3-3.1 7.97-1.54 0.8 1.77-4.23 2.6-5.1 2.9-0.6 0.2-1.3 0.4-1.9 0.7 7.8-0.77 15.3 5.64 17.4 13.6 0.15 0.57 0.3 1.2 0.44 1.9 2.85 1.06 8-0.05 9.7-1.07-1.2 2.84-4.3 4.95-8.96 5.3 2.2 0.9 6.44 1.43 9.3 0.94-1.83 1.96-4.8 3.75-9.77 3.7-6.7 27.1-51.5 38.7-72.5 10.4 7.94 7.56 21.7 8.2 30.3-0.8-5.1 0.7-8.87-4.3-2.56-7-5.7 0.6-8.84-2.4-10.1-4.95 1.33-1.4 2.8-2 5.66-2.2-6-1.2-8.3-4.26-9-7.9 1.7-0.4 3.87-0.76 5.1-0.6-5.1-2.7-7-7.05-6.7-10.2 9.7 3.6 15.9 6.5 21 9.27 1.84 1 3.9 2.74 6.23 5 2.95-7.8 6.6-15.8 12.8-19.8-0.1 0.9-0.6 1.75-1.23 2.43 1.77-1.6 4.1-2.7 6.44-3z"/>
  </symbol>
  <symbol id="instagram" viewBox="0 0 90 90">
    <path d="m11.6 0h66.8c6.4 0 11.6 5.2 11.6 11.6v66.9c0 6.3-5.2 11.5-11.6 11.5h-66.8c-6.4 0-11.6-5.2-11.6-11.5v-66.9c0-6.4 5.2-11.6 11.6-11.6zm54 10c-2.23 0-4.05 1.83-4.05 4.06v9.7c0 2.23 1.8 4.05 4.05 4.05h10.2c2.23 0 4.05-1.8 4.05-4.05v-9.7c0-2.23-1.8-4.06-4.05-4.06h-10.2zm14.3 28.1h-7.9c0.75 2.45 1.16 5.04 1.16 7.73 0 15-12.5 27.1-28 27.1-15.4 0-28-12.1-28-27.1 0-2.7 0.4-5.3 1.16-7.73h-8.26v38c0 1.97 1.61 3.57 3.57 3.57h62.7c1.97 0 3.57-1.6 3.57-3.57v-38zm-34.8-10.8c-10 0-18.1 7.84-18.1 17.5 0 9.67 8.1 17.5 18.1 17.5 10 0 18.1-7.85 18.1-17.5 0-9.7-8.1-17.5-18.1-17.5z"/>
  </symbol>
  <symbol id="smile" viewbox="0 0 90 90">
    <circle fill="#fc4" r="45" cx="45" cy="45"/>
    <g fill="#640">
      <ellipse rx="6.25" ry="8.75" cx="30" cy="33.75"/>
      <ellipse rx="6.25" ry="8.75" cx="60" cy="33.75"/>
      <path d="m 27.3,57.5 c -0.1,0 -0.3,0 -0.4,0.1 -0.6,0.4 -0.6,0.9 -0.6,1.4 0.1,0.5 3,11 18.7,11 15.7,0 18.6,-10.5 18.7,-11 0,-0.5 0,-1 -0.6,-1.4 -0.5,-0.3 -1.4,0.2 -1.4,0.2 0,0 -5.1,4.8 -16.7,4.8 -11.6,0 -16.7,-4.8 -16.7,-4.8 0,0 -0.5,-0.3 -1,-0.3 z"/>
    </g>
  </symbol>
  <symbol id="eduin" viewBox="0 0 90 27.48754">
   <path d="m69.7 9.44c1.42 0 1.86 0.21 1.86 1.6 0 1.55-0.447 1.81-1.86 1.81-1.44 0-1.89-0.263-1.89-1.81 0-1.39 0.447-1.6 1.89-1.6m-1.65 5.57h3.26v11.6c1.14 0.437 2.36 0.726 3.62 0.843v-11.7c1.63-0.63 4.2-1.16 6.33-1.16 3.75 0 5.44 1.5 5.44 6.3v1.8c2.04-2.42 3.29-5.54 3.29-8.94-0.1-7.53-6.2-13.7-13.8-13.7-7.6 0.00003-13.8 6.17-13.8 13.8 0 4.55 2.2 8.58 5.6 11.1v-9.87zm12.5 2.55c-0.84 0-1.6 0.105-2.39 0.315v9.54c1.9-0.273 3.68-0.934 5.25-1.9v-4.25c0-2.97-0.551-3.7-2.86-3.7m-26.2-13.1h3.99v14.7c0 5.52-3.35 6.79-8.85 6.79-5.49 0-8.85-1.27-8.85-6.79v-14.7h4.01v14.1c0 2.93 1.57 3.71 4.83 3.71 3.41 0 4.86-0.785 4.86-3.74v-14.1zm-28 3.44h-3.65v14.2h3.65c4.65 0 6.07-1.18 6.07-7.12 0-6.19-1.42-7.03-6.07-7.03m0.392-3.44c6.67 0 9.93 2.26 9.93 10.4 0 8.15-3.26 10.6-9.93 10.6h-8.03v-21h8.03zm-11.5 0.00009v3.44h-11.3v4.86h8.06v3.41h-8.06v5.89h11.3v3.44h-15.3v-21h15.3z"/>
  </symbol>
  <symbol id="janecek" viewBox="0 0 90 22.68483">
   <path d="m90 18.6h-0.874v-0.273c-0.28 0.238-0.6 0.342-0.943 0.342-0.5 0-0.978-0.224-1.28-0.573-0.265-0.307-0.433-0.727-0.433-1.2 0-1 0.741-1.77 1.66-1.77 0.384 0 0.727 0.126 1 0.343v-0.273h0.874v3.4zm-0.91-2.2c-0.2-0.252-0.5-0.419-0.84-0.419-0.531 0-0.873 0.44-0.873 0.93 0 0.531 0.384 0.923 0.9 0.923 0.342 0 0.643-0.168 0.818-0.419v-1.01zm-4.61 0.336 1.87 1.87h-1.22l-1.43-1.47v1.47h-0.91v-4.96h0.91v2.67l1.17-1.1h1.28l-1.66 1.52zm-2.37 1.17c-0.4 0.531-0.902 0.762-1.54 0.762-1.05 0-1.82-0.783-1.82-1.76 0-0.986 0.8-1.77 1.82-1.77 0.587 0 1.11 0.273 1.43 0.678l-0.643 0.566c-0.182-0.238-0.454-0.406-0.783-0.406-0.524 0-0.915 0.412-0.915 0.93 0 0.531 0.384 0.923 0.936 0.923 0.37 0 0.664-0.223 0.811-0.447l0.7 0.524zm-2.06-3.22-0.7-1.12h0.629l0.56 0.629 0.56-0.629h0.629l-0.7 1.12h-0.978zm-1.93 3.38c-0.328 0.4-0.866 0.61-1.4 0.61-1.01 0-1.77-0.7-1.77-1.76 0-0.943 0.643-1.77 1.65-1.77 0.937 0 1.6 0.8 1.6 1.73 0 0.1-0.007 0.182-0.0207 0.26h-2.35c0.0488 0.475 0.433 0.8 0.915 0.8 0.384 0 0.7-0.217 0.852-0.4l0.517 0.517zm-0.846-1.6c-0.0278-0.3-0.3-0.6-0.671-0.6-0.377 0-0.685 0.286-0.727 0.6h1.4zm-6.43 2.13v-3.4h0.874v0.273c0.26-0.21 0.58-0.343 0.958-0.343 0.468 0 0.9 0.209 1.17 0.545 0.224 0.266 0.349 0.61 0.349 1.2v1.73h-0.91v-1.8c0-0.336-0.0766-0.51-0.203-0.636-0.118-0.119-0.3-0.2-0.51-0.2-0.385 0-0.7 0.245-0.825 0.419v2.2h-0.91zm-1.05 0h-0.874v-0.273c-0.28 0.238-0.6 0.342-0.943 0.342-0.5 0-0.978-0.224-1.28-0.573-0.265-0.307-0.433-0.727-0.433-1.2 0-1 0.741-1.77 1.66-1.77 0.384 0 0.727 0.126 1 0.343v-0.273h0.874v3.4zm-0.91-2.2c-0.2-0.252-0.5-0.419-0.84-0.419-0.531 0-0.873 0.44-0.873 0.93 0 0.531 0.384 0.923 0.9 0.923 0.342 0 0.643-0.168 0.818-0.419v-1.01zm-3.43 0.664c0 0.4-0.0418 0.657-0.154 0.866-0.252 0.468-0.769 0.741-1.33 0.741-0.636 0-1.15-0.335-1.38-0.86l0.811-0.405c0.0766 0.2 0.251 0.426 0.573 0.426 0.175 0 0.329-0.07 0.426-0.2 0.07-0.1 0.112-0.21 0.112-0.468v-3.46h0.943v3.35zm-4.8 1.54h-0.874v-0.273c-0.28 0.238-0.6 0.342-0.943 0.342-0.5 0-0.978-0.224-1.28-0.573-0.265-0.307-0.433-0.727-0.433-1.2 0-1 0.741-1.77 1.66-1.77 0.384 0 0.727 0.126 1 0.343v-0.273h0.874v3.4zm-0.91-2.2c-0.2-0.252-0.5-0.419-0.838-0.419-0.531 0-0.873 0.44-0.873 0.93 0 0.531 0.384 0.923 0.9 0.923 0.342 0 0.643-0.168 0.818-0.419v-1.01zm-3.43 2.2h-0.91v-4.96h0.91v4.96zm-1.68-2.6c-0.0629-0.0211-0.2-0.0348-0.329-0.0348-0.4 0-0.713 0.287-0.825 0.5v2.13h-0.91v-3.4h0.874v0.342c0.203-0.252 0.573-0.412 0.986-0.412 0.133 0 0.21 0.0137 0.307 0.0278l-0.105 0.845zm-3.11 2.6h-0.874v-0.273c-0.28 0.238-0.6 0.342-0.943 0.342-0.5 0-0.978-0.224-1.28-0.573-0.265-0.307-0.433-0.727-0.433-1.2 0-1 0.741-1.77 1.66-1.77 0.384 0 0.727 0.126 1 0.343v-0.273h0.874v3.4zm-0.91-2.2c-0.2-0.252-0.5-0.419-0.84-0.419-0.531 0-0.873 0.44-0.873 0.93 0 0.531 0.384 0.923 0.9 0.923 0.342 0 0.643-0.168 0.818-0.419v-1.01zm-6.02-0.203v2.4h-0.943v-4.9h0.943v1.96l1.85-1.96h1.24l-2.15 2.24 2.41 2.66h-1.21l-2.14-2.4zm24.1-6.52c-0.328 0.4-0.867 0.61-1.4 0.61-1.01 0-1.77-0.7-1.77-1.76 0-0.943 0.643-1.77 1.65-1.77 0.937 0 1.6 0.8 1.6 1.73 0 0.1-0.007 0.182-0.021 0.26h-2.35c0.0488 0.475 0.433 0.8 0.915 0.8 0.384 0 0.7-0.217 0.852-0.4l0.517 0.517zm-0.846-1.6c-0.0278-0.3-0.3-0.6-0.671-0.6-0.377 0-0.685 0.286-0.727 0.6h1.4zm-2.76 1.44c-0.4 0.531-0.902 0.762-1.54 0.762-1.05 0-1.82-0.783-1.82-1.76 0-0.986 0.8-1.77 1.82-1.77 0.587 0 1.11 0.273 1.43 0.678l-0.643 0.566c-0.182-0.238-0.454-0.406-0.783-0.406-0.524 0-0.915 0.413-0.915 0.93 0 0.531 0.384 0.923 0.936 0.923 0.37 0 0.664-0.223 0.811-0.447l0.7 0.524zm-4.16 0.7h-0.874v-0.273c-0.28 0.238-0.6 0.342-0.943 0.342-0.5 0-0.978-0.224-1.28-0.573-0.265-0.307-0.433-0.727-0.433-1.2 0-1 0.741-1.77 1.66-1.77 0.384 0 0.727 0.126 1 0.343v-0.273h0.874v3.4zm-0.9-2.18c-0.2-0.252-0.5-0.419-0.84-0.419-0.531 0-0.873 0.44-0.873 0.93 0 0.531 0.384 0.923 0.9 0.923 0.342 0 0.643-0.168 0.818-0.419v-1.01zm-4.31 2.2v-0.273c-0.28 0.238-0.6 0.342-0.943 0.342-0.5 0-0.978-0.224-1.28-0.573-0.265-0.307-0.433-0.727-0.433-1.2 0-1 0.741-1.77 1.66-1.77 0.37 0 0.7 0.105 0.958 0.315v-1.82h0.91v4.96h-0.874zm-0.0348-2.2c-0.2-0.252-0.5-0.419-0.84-0.419-0.531 0-0.874 0.44-0.874 0.93 0 0.531 0.384 0.923 0.9 0.923 0.343 0 0.643-0.168 0.818-0.419v-1.01zm-3.43 2.2h-0.874v-0.273c-0.28 0.238-0.6 0.342-0.943 0.342-0.5 0-0.978-0.224-1.28-0.573-0.265-0.307-0.433-0.727-0.433-1.2 0-1 0.741-1.77 1.66-1.77 0.384 0 0.727 0.126 1 0.343v-0.273h0.874v3.4zm-0.9-2.18c-0.2-0.252-0.5-0.419-0.84-0.419-0.531 0-0.873 0.44-0.873 0.93 0 0.531 0.384 0.923 0.9 0.923 0.342 0 0.643-0.168 0.818-0.419v-1.01zm-7.81-2.7h0.664l2.73 3.2v-3.2h0.943v4.9h-0.664l-2.73-3.2v3.2h-0.943v-4.9zm-10.8 5.97c2.22-0.851 3.72-3 3.72-5.48 0-3.23-2.58-5.76-5.87-5.85-3.83-0.1-6.65 4.9-12.4 11.3 5.78 6.45 8.6 11.4 12.4 11.3 3.3-0.1 5.87-2.62 5.87-5.85 0-2.48-1.5-4.62-3.72-5.48m-29.2 0.00027c-2.23 0.855-3.74 3-3.74 5.47 0 3.23 2.58 5.76 5.87 5.85 3.85 0.111 6.66-4.88 12.4-11.3-5.6-6.4-8.4-11.4-12.2-11.3-3.32 0.123-5.9 2.65-5.9 5.88 0 2.48 1.5 4.62 3.72 5.48"/>
  </symbol>
  <symbol id="scio" viewBox="0 0 90 27.9">
   <path d="m76.2 11.8c-2.71 0-4.9 2.19-4.9 4.9v6.27c0 2.71 2.19 4.9 4.9 4.9h8.87c2.7-0.1 4.9-2.2 4.9-5v-6.27c0-2.71-2.19-4.9-4.9-4.9h-8.87zm0.413 2.15h8.05c1.63 0 2.93 1.31 2.93 2.93v5.88c0 1.63-1.31 2.93-2.93 2.93h-8.05c-1.63 0-2.93-1.31-2.93-2.93v-5.88c0-1.63 1.31-2.93 2.93-2.93zm-11.2-2.15h2.43v16.1h-2.43zm-44.4-11.8h7v7h-7zm-18.6 6.88c-1.36 0-2.45 1.1-2.45 2.47v16.1c0 1.36 1.1 2.45 2.45 2.45h16.1c1.36 0 2.45-1.1 2.45-2.45v-16.1c0-1.36-1.1-2.45-2.45-2.45h-16.1zm9.35 2.33h6.85v6.85h-6.85v-6.85zm40 2.57c-2.71 0-4.9 2.19-4.9 4.9v6.27c0 2.71 2.19 4.9 4.9 4.9h8.87c0.298 0 0.587 0.0505 0.871 0v-2.36h-1.57c-0.171 0-0.2 0-0.293 0h-6.87c-1.9 0-3.43-1.47-3.43-3.29v-4.77c0-1.83 1.53-3.29 3.43-3.29h6.87c0.1 0 0.196-0 0.293-0h1.57l-0.0236-2.36c-0.282-0.0505-0.549-0-0.846-0zm-20.6 0c-1.9 0-3.43 1.55-3.43 3.46v2.18c0 1.84 1.42 3.35 3.22 3.45v0h0.106c0.0327 0.1 0.0645 0 0.171 0h9.35c1.06 0.0258 1.91 0.793 1.91 1.74v1.21c0 0.971-0.872 1.75-1.96 1.75h-12.1v2.26h12.8c2.17 0 3.91-1.78 3.91-4v-1.34c0-2.21-1.74-4-3.91-4h-9.71c-0.523-0.226-0.9-0.75-0.9-1.37v-1.51c0-0.822 0.655-1.48 1.47-1.48h11.4v-2.38h-12.1z"/>
  </symbol>
  <symbol id="clovek" viewBox="0 0 192 192">
   <path d="m95.44 168.8c-1.222 0.425-2.381 1.318-4.613 3.56l-1.52 1.541 3.646 3.625 3.656 3.624 1.307-1.307 1.307-1.308-2.88-2.795c-1.573-1.53-2.87-2.838-2.87-2.891 0-0.05 0.2232-0.244 0.4995-0.414 0.7015-0.447 1.18-0.436 1.616 0.05 0.457 0.521 0.5952 1.105 0.4358 1.892-0.0638 0.35-0.085 0.669-0.0319 0.712 0.0957 0.07 6.101 1.19 6.154 1.137 0.0744-0.06 0.5846-3.497 0.542-3.614-0.0319-0.1-0.5527-0.117-2.104-0.08l-2.062 0.03 0.0425-0.935c0.0425-1.074-0.0744-1.531-0.5314-2.158-0.5739-0.807-1.509-1.041-2.593-0.669zm8.035-9.406c-0.4358 0.478-1.445 1.573-2.264 2.434-0.8078 0.861-1.467 1.605-1.467 1.647 0 0.05 1.626 1.711 3.603 3.688l3.614 3.614 2.051-1.977c1.127-1.084 2.296-2.19 2.583-2.455l0.5314-0.489-0.9566-0.957-0.9566-0.967-1.222 1.222-1.222 1.223-0.4995-0.5-0.4889-0.489 0.9991-0.967 1.01-0.967-0.9034-0.893-0.9034-0.893-0.5102 0.574c-0.2763 0.319-0.7015 0.776-0.9353 1.031l-0.4251 0.457-0.5527-0.563-0.5527-0.563 1.105-1.18 1.116-1.191-0.9034-0.86c-0.4889-0.468-0.9353-0.861-0.9778-0.861-0.0531 0.01-0.4358 0.403-0.8715 0.882zm-22.17-5.718c-1.169 0.244-3.507 0.776-5.208 1.169-1.69 0.404-3.21 0.744-3.369 0.776-0.1701 0.02-0.2976 0.06-0.2976 0.09 0 0.139 0.9991 3.178 1.074 3.263 0.0425 0.05 0.4889-0.06 0.9991-0.244 0.4995-0.181 0.9566-0.33 1.01-0.33 0.1807 0 3.295 2.902 3.295 3.072 0 0.1-0.0957 0.553-0.2019 1.02-0.3614 1.499-0.5208 1.286 1.456 1.86 1.7 0.5 1.722 0.51 1.775 0.277 0.0744-0.362 1.509-7.95 1.807-9.608 0.2232-1.191 0.2551-1.552 0.1488-1.68-0.1594-0.191 0-0.212-2.487 0.33zm-1.01 3.103c0 0.16-0.5527 1.998-0.6271 2.083-0.0425 0.04-0.4358-0.255-0.8715-0.659-0.4358-0.403-0.7652-0.754-0.7334-0.775 0.0531-0.05 1.998-0.691 2.158-0.713 0.0425-0.01 0.0744 0.02 0.0744 0.06zm4.092-5.048c-0.1701 0.521-0.2657 1.084-0.1913 1.148 0.1169 0.117 3.029 1.19 3.072 1.137 0.0531-0.05 0.5739-1.818 0.542-1.839-0.0425-0.04-3.029-0.574-3.199-0.574-0.0956 0-0.2019 0.06-0.2232 0.128zm29.96-1.828c-1.158 0.404-2.221 1.222-4.421 3.379l-1.456 1.435 3.592 3.593c1.977 1.987 3.635 3.603 3.688 3.603s0.6696-0.574 1.371-1.276l1.275-1.275-0.8821-0.882-0.8715-0.872 0.2657-0.393c0.4995-0.744 1.02-1.903 1.244-2.774 0.659-2.593-0.542-4.772-2.615-4.74-0.3614 0-0.8928 0.1-1.19 0.202zm0.287 3.199c0.1169 0.05 0.3507 0.297 0.5208 0.542 0.2551 0.351 0.3188 0.542 0.3188 0.999 0 0.51-0.2551 1.318-0.4251 1.318-0.0319 0-0.5739-0.521-1.201-1.148-1.074-1.084-1.137-1.159-0.9566-1.318 0.5314-0.468 1.297-0.638 1.743-0.393zm-49.91-10.74-3.72 3.72 1.371 1.371 1.371 1.381 1.541-1.594c0.8503-0.872 1.552-1.573 1.562-1.562 0.0213 0.02-0.1275 1.201-0.3295 2.635-0.4251 3.061-0.4358 3.295-0.1701 3.295 0.0957 0 0.8715 0.07 1.722 0.16 0.8503 0.08 1.626 0.159 1.732 0.159 0.17 0 0.1807-0.181 0.1807-2.296v-2.306l2.136 0.05 2.136 0.06-0.0638-0.659c-0.0319-0.351-0.085-1.158-0.1275-1.786l-0.0638-1.126-0.3401 0.04c-0.914 0.117-5.399 0.479-5.442 0.436-0.0319-0.02 0.6164-0.691 1.445-1.477 0.8184-0.787 1.488-1.478 1.488-1.531 0-0.1-2.561-2.699-2.657-2.699-0.0319 0-1.732 1.668-3.773 3.72zm59.69-3.784-1.307 1.307 2.285 2.275c2.742 2.721 3.008 3.146 2.561 4.102-0.2444 0.5-0.829 0.882-1.371 0.882-0.7546 0-1.445-0.51-3.635-2.699l-2.051-2.041-1.339 1.35-1.35 1.35 0.8077 0.892c0.9991 1.095 2.785 2.764 3.709 3.465 1.817 1.371 3.752 1.425 5.569 0.138 1.913-1.339 3.008-3.284 2.88-5.112-0.1063-1.615-0.7227-2.572-3.348-5.229-1.084-1.095-1.998-1.998-2.03-1.998-0.0425 0-0.659 0.595-1.382 1.318zm-67.04-7.801c-1.265 0.255-1.956 1.201-1.796 2.497 0.0319 0.287 0.2551 1.085 0.4889 1.765 0.4251 1.243 0.4464 1.509 0.1275 1.636-0.2763 0.107-1.403-0.531-2.168-1.222l-0.7121-0.648-0.8078 1.095-0.8078 1.094 0.3507 0.298c0.6483 0.542 2.072 1.456 2.785 1.775 2.03 0.925 3.879 0.818 4.825-0.255 0.5633-0.649 0.5952-1.722 0.085-2.934-0.5739-1.36-0.6908-1.743-0.5846-1.934 0.2126-0.404 0.7546-0.138 1.988 0.957 0.4358 0.382 0.8078 0.648 0.8609 0.595 0.4676-0.542 1.488-2.094 1.435-2.179-0.1488-0.255-1.839-1.414-2.593-1.796-1.297-0.649-2.561-0.925-3.475-0.744zm78.45-2.02c-1.158 0.234-2.455 1.148-4.623 3.263l-1.552 1.52 3.677 3.678 3.677 3.666 1.18-1.211c2.062-2.126 3.178-3.869 3.444-5.368 0.3932-2.2-1.212-3.464-3.231-2.54-0.5208 0.245-0.6058 0.255-0.542 0.1 0.3188-0.776 0.3082-1.796-0.0213-2.37-0.3614-0.617-1.148-0.904-2.009-0.734zm-0.914 3.019c0.3614 0.191 0.659 0.701 0.659 1.105 0 0.362-0.2763 1.084-0.4145 1.084-0.0425 0-0.4358-0.372-0.8928-0.829l-0.829-0.829 0.2444-0.223c0.2338-0.223 0.6696-0.436 0.8822-0.446 0.0638 0 0.2126 0.05 0.3507 0.138zm3.316 2.774c0.3826 0.202 0.5314 0.457 0.5314 0.924 0 0.351-0.4783 1.467-0.6271 1.467-0.0319 0-0.4676-0.393-0.9459-0.882-0.9778-0.988-0.9778-0.935-0.1275-1.445 0.4358-0.266 0.7546-0.277 1.169-0.06zm2.795-12.36-1.36 1.361 3.635 3.634 3.624 3.625 2.53-2.413c1.403-1.339 2.551-2.476 2.572-2.54 0.0106-0.08-0.4251-0.574-0.9672-1.116l-0.9884-0.989-1.18 1.212-1.19 1.212-2.657-2.679-2.657-2.667-1.36 1.36zm-95.07 1.403-3.582 3.614 0.6058 0.648c0.3295 0.351 1.445 1.52 2.466 2.593l1.86 1.945 0.9353-0.978 0.9459-0.988-1.201-1.201-1.201-1.212 0.4676-0.478 0.4676-0.478 0.9884 0.978 0.9884 0.977 0.8396-0.892 0.8503-0.904-0.9778-0.924-0.9778-0.914 0.5527-0.564 0.542-0.552 1.127 1.052c0.6271 0.574 1.169 1.063 1.222 1.084 0.0744 0.02 1.711-1.701 1.711-1.818 0-0.06-4.889-4.591-4.974-4.602-0.0425-0.01-1.69 1.616-3.656 3.614zm103.4-9.725-1.339 1.339 3.635 3.646 3.646 3.635 1.297-1.297c0.7227-0.723 1.307-1.339 1.307-1.382 0-0.05-1.626-1.7-3.603-3.688l-3.603-3.592-1.339 1.339zm-111.9-1.56c-4.039 0.436-5.08 4.166-2.221 7.929 0.5633 0.733 2.413 2.583 2.583 2.583 0.0638 0 1.02-1.031 1.743-1.871 0.1807-0.223 0.17-0.244-0.6377-1.031-1.031-1.01-1.509-1.764-1.594-2.54-0.0425-0.478-0.0106-0.617 0.2019-0.935 0.7971-1.17 2.498-1.127 4.549 0.106 0.7121 0.425 0.914 0.51 1.01 0.404 0.2019-0.213 1.435-2.275 1.435-2.381 0-0.128-1.031-0.776-1.966-1.243-0.914-0.458-2.285-0.893-3.05-0.978-1.116-0.117-1.318-0.128-2.051-0.04zm6.441-2.763c-0.2551 0.05-0.4889 0.117-0.5208 0.149-0.0531 0.05 0.5846 2.901 0.6696 2.997 0.0106 0.02 0.6696 0.17 1.467 0.34l1.445 0.308 0.17-0.744c0.0957-0.414 0.1488-0.776 0.1169-0.808-0.0319-0.02-0.4783-0.09-0.9991-0.148l-0.9459-0.107-0.1913-1.052c-0.2019-1.18-0.1594-1.148-1.212-0.935zm117.1-6.824-0.9034 0.06-0.0319 0.372c-0.0106 0.202 0.085 1.541 0.2232 2.966l0.2444 2.582-1.541-1.562-1.53-1.563-1.371 1.372-1.36 1.36 3.741 3.741 3.752 3.752 1.36-1.361 1.36-1.36-1.552-1.541c-0.8503-0.84-1.509-1.541-1.456-1.562 0.0425-0.01 1.35 0.138 2.891 0.35 1.53 0.202 2.816 0.362 2.838 0.34 0.0425-0.05 0.3507-3.177 0.3507-3.603v-0.297l-2.296 0.07-2.285 0.06 0.0744-2.136 0.0744-2.147-0.8396 0.02c-0.457 0.01-1.244 0.04-1.743 0.07zm7.472-8.693c-0.1275 0.127 0.2551 2.104 1.307 6.632 0.3826 1.636 0.7652 3.305 0.8609 3.719 0.085 0.404 0.2019 0.787 0.2551 0.84 0.1063 0.117 3.284-0.893 3.284-1.052 0-0.06-0.1488-0.542-0.3188-1.063l-0.3188-0.946 0.3507-0.382c0.4676-0.5 2.561-2.806 2.583-2.849 0.0213-0.02 0.5846 0.08 1.265 0.245 0.6802 0.159 1.254 0.276 1.265 0.255 0.0531-0.06 1.02-3.423 0.9884-3.454-0.0106-0.01-0.9565-0.192-2.094-0.415-9.544-1.796-9.215-1.743-9.427-1.53zm4.666 3.762 1.031 0.287-0.7546 0.84c-0.4251 0.467-0.7759 0.839-0.7865 0.839s-0.1807-0.467-0.372-1.041c-0.1807-0.564-0.3614-1.095-0.3932-1.18-0.0425-0.106-0.0106-0.138 0.0957-0.1 0.085 0.03 0.6164 0.192 1.18 0.351zm-153.3-9.706c-0.5208 0.808-1.382 2.572-1.722 3.518-0.7971 2.19-1.02 4.836-0.5633 6.611 0.5846 2.232 1.849 3.763 3.688 4.421 0.8396 0.309 2.646 0.341 3.656 0.06 1.541-0.414 3.369-1.498 4.878-2.901 0.7759-0.712 2.136-2.232 2.136-2.381 0-0.07-2.476-2.328-2.721-2.476-0.0957-0.05-0.5208 0.308-1.286 1.073-0.9353 0.935-1.297 1.233-1.956 1.552-1.414 0.691-2.466 0.637-3.348-0.17-1.02-0.946-1.233-2.434-0.6058-4.337 0.2126-0.627 0.9247-2.04 1.318-2.614 0.1701-0.255 0.3082-0.489 0.3082-0.542 0-0.04-0.6377-0.479-1.414-0.957-0.7652-0.489-1.552-0.978-1.743-1.105l-0.3401-0.213-0.287 0.457zm-5.293-1.169c-0.0744 0.436-0.2763 1.988-0.2763 2.094 0 0.05-0.5846 0.191-1.297 0.329-0.7227 0.128-1.339 0.266-1.392 0.309-0.0638 0.06 0.1488 1.424 0.2976 1.892 0.0212 0.07 0.6271-0.03 1.934-0.362 1.042-0.255 1.913-0.489 1.934-0.521 0.0957-0.1 0.829-3.603 0.7652-3.677-0.0531-0.05-1.605-0.404-1.828-0.404-0.0425 0-0.1063 0.16-0.1382 0.34zm10.84-4.07-1.679 1.689 5.229 5.219 5.229 5.229 1.924-1.849c1.063-1.021 2.593-2.466 3.39-3.221l1.467-1.371-1.414-1.413-1.403-1.403-1.594 1.658-1.594 1.669-3.816-3.922c-2.104-2.158-3.869-3.933-3.932-3.954-0.0638-0.01-0.8715 0.733-1.807 1.669zm128.2-3.146-5.187 5.218 1.679 1.679c0.9247 0.925 1.7 1.68 1.732 1.68 0.0744 0 10.42-10.32 10.42-10.4 0-0.09-3.337-3.412-3.401-3.402-0.0319 0.01-2.391 2.36-5.24 5.23zm-111.7-12.08c-2.466 0.595-5.357 3.21-6.462 5.835-1.031 2.455-0.8078 5.272 0.5952 7.525 1.647 2.636 4.613 3.932 7.567 3.316 2.848-0.595 5.931-3.55 6.983-6.696 0.2126-0.637 0.2444-0.956 0.2444-2.285 0-1.722-0.1488-2.37-0.8609-3.72-1.02-1.945-2.902-3.486-4.878-3.985-0.7865-0.202-2.338-0.192-3.188 0.01zm0.8928 4.39c1.297 0.404 2.816 1.817 3.55 3.305 0.2976 0.606 0.3401 0.787 0.3401 1.594 0 0.734-0.0425 0.989-0.2444 1.361-1.01 1.902-2.923 2.37-4.74 1.158-2.221-1.477-3.316-4.017-2.466-5.75 0.4995-1.031 1.647-1.838 2.636-1.86 0.1488-0.01 0.5633 0.08 0.9247 0.192zm99.07-7.94c-1.956 1.754-4.421 3.965-5.474 4.9s-1.934 1.754-1.956 1.796c-0.0106 0.05 0.2444 0.393 0.5846 0.755 0.3507 0.361 0.9991 1.063 1.467 1.552l0.829 0.882 2.593-2.583c1.424-1.424 2.604-2.561 2.625-2.54 0.0106 0.03 0.287 2.083 0.5952 4.57 0.7227 5.792 1.063 7.907 1.297 7.95 0.1063 0.02 1.254-0.935 2.87-2.402 1.488-1.339 3.996-3.56 5.569-4.953 1.584-1.381 2.88-2.551 2.891-2.593 0.0106-0.04-0.6483-0.765-1.467-1.616l-1.477-1.541-2.615 2.647c-1.435 1.445-2.615 2.625-2.636 2.604-0.0213-0.02-0.085-0.479-0.1594-0.999-0.0638-0.532-0.457-3.327-0.8715-6.218-0.6802-4.772-0.8078-5.431-1.052-5.41-0.0319 0-1.658 1.435-3.614 3.199zm-8.35-10.09c-1.052 0.351-1.711 0.967-2.019 1.881-0.2657 0.797-0.17 2.243 0.2551 3.773 0.3507 1.233 0.4145 1.945 0.2019 2.158-0.4145 0.414-1.849-0.17-3.178-1.297l-0.7971-0.68-1.042 1.435c-0.5739 0.786-1.01 1.488-0.9884 1.573 0.1063 0.255 1.913 1.445 3.104 2.03 1.52 0.744 2.561 1.02 3.932 1.031 1.392 0.01 2.264-0.266 3.029-0.957 0.6377-0.574 0.8184-0.892 0.9672-1.7 0.1382-0.765 0.0106-1.584-0.5527-3.295-0.4676-1.477-0.4995-1.732-0.2019-1.998 0.457-0.415 1.53 0.05 2.838 1.254 0.3507 0.34 0.6696 0.606 0.7015 0.606 0.1063 0 2.019-2.689 2.03-2.849 0.0106-0.223-1.807-1.498-2.944-2.061-1.509-0.755-2.274-0.957-3.688-0.999-0.829-0.03-1.36 0-1.647 0.1zm-78.17 0.043c-1.201 0.382-2.211 0.722-2.264 0.765-0.0425 0.04 0.5952 2.03 1.414 4.421 0.8184 2.392 1.477 4.358 1.456 4.369-0.0212 0.02-1.966-0.659-4.315-1.51-2.36-0.85-4.326-1.509-4.379-1.456-0.0744 0.08-1.392 4.432-1.414 4.698-0.0106 0.159 0.287 0.244 7.376 2.083 5.527 1.435 7.886 1.988 8.014 1.86 0.1275-0.128 0.1382-0.03-1.796-8.556-0.8396-3.688-1.552-6.855-1.594-7.046-0.0425-0.181-0.1275-0.34-0.1913-0.33-0.0744 0-1.105 0.319-2.306 0.702zm69.16-3.55-5.197 5.208 1.711 1.711 1.711 1.711 5.176-5.155c2.848-2.837 5.197-5.176 5.208-5.208 0.0213-0.03-0.744-0.829-1.69-1.764l-1.732-1.711-5.187 5.208zm7.397-5.484c-0.1275 0.457-0.2232 0.829-0.2126 0.839 0.0106 0 0.9353 0.34 2.041 0.755 1.392 0.521 2.041 0.723 2.083 0.638 0.1382-0.245 0.659-2.211 0.6058-2.264-0.0638-0.05-3.869-0.787-4.124-0.787-0.1063 0-0.2338 0.255-0.3932 0.819zm-68.63-0.309c-0.3507 0.394-1.7 1.871-2.997 3.274l-2.37 2.572 5.218 5.208 5.208 5.218 3.316-3.146c1.817-1.732 3.305-3.22 3.305-3.305 0-0.08-0.5633-0.68-1.254-1.329l-1.254-1.179-1.616 1.615-1.616 1.616-0.8078-0.808-0.8184-0.818 1.328-1.286 1.339-1.297-1.212-1.191-1.212-1.19-0.372 0.404c-0.2019 0.213-0.7652 0.829-1.244 1.35l-0.8715 0.956-0.914-0.914-0.914-0.903 1.509-1.573 1.52-1.573-1.275-1.201c-0.6908-0.67-1.286-1.212-1.318-1.212s-0.3401 0.319-0.6802 0.712zm2.646 61.41c-0.287 0.03-1.095 0.117-1.786 0.202-0.7015 0.08-1.467 0.159-1.7 0.159-0.2444 0-0.5208 0.05-0.6058 0.106-0.1275 0.08-0.1169 0.138 0.1169 0.394 0.1488 0.159 0.4783 0.68 0.7334 1.147 0.2551 0.468 0.6271 1.084 0.8503 1.382 0.2126 0.287 1.371 2.019 2.572 3.837 1.201 1.828 2.232 3.337 2.296 3.38 0.1913 0.117 0.7227-3.741 1.084-7.844 0.1594-1.839 0.1807-2.455 0.0957-2.519-0.2445-0.149-2.742-0.308-3.656-0.244zm-1.445-9.194c-0.2019 0.202-0.2232 0.298-0.1488 0.829 0.1063 0.723 0.1063 0.563-0.0531 3.561-0.0956 1.934-0.0956 2.519 0.0106 2.88l0.1382 0.446 0.829 0.06c0.8609 0.05 1.445-0.04 1.584-0.255 0.0531-0.08 0.1382-0.08 0.3188 0.01 0.3614 0.202 2.051 0.265 2.785 0.106 0.5633-0.117 0.6377-0.16 0.7759-0.489 0.2444-0.595-0.0425-1.414-0.5952-1.637-0.2126-0.08-0.5846-0.489-1.063-1.126-0.6483-0.872-1.435-1.605-2.072-1.935-0.2126-0.106-0.2126-0.08-0.1488 1.871 0.0319 1.095 0.0957 2.094 0.1382 2.211 0.085 0.265-0.1382 0.361-0.8503 0.361h-0.4358l-0.0744-1.159c-0.0425-0.637-0.1169-2.146-0.17-3.358-0.085-2.147-0.0956-2.221-0.3401-2.413-0.3188-0.244-0.3614-0.234-0.6271 0.03zm-4.273-5.952c-0.3614 1.318-0.4464 1.871-0.457 3.125-0.0106 0.755-0.0531 2.03-0.0956 2.817-0.0638 1.211-0.0425 1.615 0.1382 2.603 0.1169 0.638 0.2763 1.999 0.3507 2.998l0.1382 1.838 0.5208 0.149c0.744 0.223 1.127 0.04 1.286-0.595 0.0319-0.159 0.1382-1.254 0.2126-2.445 0.085-1.19 0.2019-2.285 0.2551-2.423 0.0531-0.149 0.1382-0.765 0.17-1.381 0.0425-0.617 0.1488-1.457 0.2444-1.882 0.1594-0.712 0.1488-0.818-0.0106-1.488-0.3295-1.328-0.7971-1.955-1.297-1.764-0.0956 0.03-0.2126 0-0.2657-0.09-0.3401-0.595-1.158-1.594-1.19-1.467zm1.998-1.977c-0.287 0.09-0.659 0.149-0.8184 0.16-0.1701 0-0.2976 0.04-0.2976 0.1 0 0.276 3.677 4.187 3.847 4.091 0.0425-0.03 0.085-0.999 0.085-2.157v-2.104l-0.3932-0.06c-1.02-0.17-1.913-0.17-2.423-0.02zm5.601-0.138c-0.5846 0.1-0.6908 0.149-0.7865 0.383-0.2232 0.595-0.3932 1.924-0.4039 3.146 0 0.701-0.0531 1.573-0.1169 1.934l-0.1169 0.67 3.135 3.752c1.722 2.062 3.327 3.964 3.571 4.23l0.4464 0.478-0.0638-2.126c-0.0744-2.317-0.2657-5.792-0.5527-9.767l-0.1807-2.53-0.2657-0.106c-0.372-0.159-3.837-0.202-4.666-0.06zm53.08 18.16c-0.1807 0.149-0.2763 0.319-0.2763 0.531 0 0.298-0.0106 0.298-0.457 0.245-0.6164-0.08-1.244 0.17-1.244 0.51 0 0.159-0.1807 0.425-0.4889 0.723-0.6483 0.627-2.072 2.402-2.455 3.05-0.2976 0.51-0.2976 0.51-0.2763 2.264 0.0213 2.062 0.2019 3.901 0.7652 7.876 0.2338 1.604 0.4783 3.507 0.542 4.24 0.1913 2.168 0.2019 2.211 0.4358 2.285 0.1169 0.04 0.2338 0.05 0.2444 0.03 0.0213-0.01 0.2657-0.467 0.542-0.988 0.287-0.532 1.212-2.2 2.051-3.72 2.328-4.198 3.103-5.708 3.103-6.09 0-0.415-0.744-4.177-1.105-5.612-0.2763-1.084-0.4889-3.135-0.4889-4.676v-0.893h-0.3082c-0.1594 0-0.4251 0.1-0.5846 0.223zm9.884-2.285c-0.0319 0.1-0.0638 0.521-0.0638 0.957 0 0.775 0 0.786 0.4358 1.222l0.4358 0.436 0.542-0.755c0.3082-0.415 0.7334-1.042 0.9566-1.392l0.3932-0.638h-1.318c-1.105 0-1.328 0.03-1.382 0.17zm-5.75-0.383c-0.6377 0.04-1.318 0.107-1.499 0.149-0.3932 0.08-0.3826-0.191-0.0319 2.508 0.1169 0.904 0.2551 2.339 0.3082 3.189 0.0956 1.637 0.2338 2.264 0.6802 3.018 0.2126 0.372 0.2763 0.617 0.2763 1.127 0 0.553 0.0319 0.67 0.2019 0.712 0.287 0.07 0.6802 0.84 0.6058 1.159-0.0957 0.382 0.0638 0.308 0.6058-0.266 0.8822-0.935 1.647-2.912 1.52-3.911-0.0531-0.436-0.0319-0.479 0.5314-1.063 0.3295-0.34 0.6908-0.765 0.7971-0.936 0.2551-0.403 0.2657-1.137 0.0213-1.509-0.1382-0.202-0.2019-0.542-0.2126-1.19-0.0425-1.361-0.0957-1.849-0.2338-2.105-0.1913-0.361-0.7652-0.754-1.286-0.871s-0.542-0.117-2.285-0.01zm1.743-6.037c-0.3082 0.489-0.7652 1.287-1.01 1.786-0.4783 0.946-0.9884 2.498-0.8609 2.615 0.085 0.08 3.04 0.08 3.125 0s-0.1807-1.127-0.3932-1.552c-0.1594-0.308-0.17-0.489-0.085-1.063 0.0744-0.595-0.0425-2.498-0.17-2.636-0.0213-0.01-0.287 0.362-0.6058 0.85zm4.974-8.715c-0.7546 0.882-1.86 2.413-2.338 3.21-0.3507 0.585-0.4251 0.818-0.4145 1.169 0.0213 0.276-0.0531 0.595-0.1913 0.861-0.287 0.553-0.2763 0.585 0.1594 0.585 0.2763 0 0.4145 0.06 0.542 0.265 0.1594 0.245 0.1594 0.436 0.0638 1.786-0.1169 1.53-0.0425 3.125 0.1913 4.017 0.0531 0.224 0.1594 0.617 0.2232 0.851l0.1169 0.446 1.541-0.06c0.8503-0.03 1.605-0.117 1.658-0.17 0.1594-0.159-0.4039-10-0.6802-11.97-0.1063-0.766-0.287-1.541-0.3614-1.541-0.0213 0-0.2551 0.255-0.5102 0.552zm-25.86-2.455c-0.3082 0.05-0.7865 0.181-1.063 0.287l-0.5208 0.191 0.0213 1.478c0.0425 1.817 0.4251 11.54 0.5208 12.84 0.0531 0.797 0.0957 0.946 0.2976 1.063 0.1594 0.09 1.074 0.127 3.327 0.127 2.71 0 3.104-0.02 3.072-0.159-0.0744-0.255-0.1594-1.626-0.3295-5.155-0.2232-4.549-0.5739-9.395-0.7546-10.27-0.0531-0.266-0.0957-0.287-1.116-0.404-1.201-0.138-2.657-0.138-3.454 0zm21.96 0.17c0 0.223 0.0531 0.595 0.1169 0.829s0.1063 0.776 0.0956 1.201c-0.0106 0.425 0.0425 1.031 0.1169 1.35l0.1275 0.585 0.4889-0.713c0.2657-0.403 0.8822-1.349 1.36-2.104l0.8822-1.382-0.4464-0.07c-0.2551-0.03-0.9672-0.07-1.594-0.07l-1.148-0.01v0.393zm-14.61-0.319c-0.17 0.02-0.5739 0.08-0.8715 0.149-0.4783 0.1-0.5633 0.149-0.5633 0.34 0 0.128 0.2126 2.955 0.4783 6.292 0.2657 3.327 0.5314 6.77 0.6058 7.642l0.1169 1.584 2.965-0.06c1.637-0.03 2.987-0.07 3.018-0.1 0.0213-0.03-0.0531-0.861-0.1594-1.849-0.4145-3.678-0.4889-5.049-0.4889-9.47v-4.368l-0.914-0.117c-0.8503-0.106-3.465-0.138-4.188-0.04zm8.141-0.074c-0.372 0.05-0.9247 0.149-1.244 0.213l-0.5739 0.116v1.191c0.0106 2.997 0.2232 8.545 0.3614 9.746 0.2019 1.626 0.4995 2.816 0.8822 3.518 0.5208 0.967 0.4783 0.988 2.126-1.424 2.072-3.029 3.008-4.464 3.571-5.442l0.4889-0.85-0.0956-1.754c-0.1063-1.892-0.4145-5.229-0.4889-5.303-0.085-0.1-4.379-0.1-5.027-0.01zm-53.73-15.51-28.7 28.69 28.7 28.7 28.7 28.69 28.69-28.69 28.7-28.7-28.7-28.69-28.69-28.7-28.7 28.7zm28.87-17.11c0.542 0.298 0.7015 1.648 0.372 3.295-0.085 0.436-0.1807 1.371-0.2232 2.072-0.0744 1.467-0.287 2.541-0.5846 2.923-0.1913 0.255-0.2444 0.266-1.35 0.266-1.02 0-1.212-0.03-1.743-0.276-1.212-0.574-1.679-1.797-1.414-3.742 0.0532-0.382 0.1169-0.499 0.3082-0.542 0.2976-0.07 0.4783-0.478 0.4889-1.105 0.0106-0.701 0.0531-0.786 0.9353-1.562 1.275-1.116 2.583-1.658 3.21-1.329zm-4.294 9.077c0.2657 0.446 1.127 0.489 3.104 0.159 0.7227-0.117 1.552-0.202 1.849-0.181 0.542 0.03 0.542 0.03 0.6802 0.489 0.3188 1.127 0.4039 2.647 0.4039 7.461 0 2.955-0.0531 5.453-0.1382 6.43-0.2976 3.476-0.6802 6.25-1.052 7.547-0.2232 0.786-0.2551 4.134-0.0531 5.951 0.2444 2.137 1.711 7.1 4.007 13.5 0.4995 1.393 4.081 11.1 4.517 12.22l0.1169 0.308 0.2657-0.468c0.3401-0.605 0.9566-1.243 1.275-1.317 0.6802-0.171 1.233 0.488 1.775 2.146 0.4039 1.212 1.137 4.592 1.137 5.23-0.0106 0.563-0.3401 1.179-0.914 1.689-0.5846 0.511-2.615 1.552-2.848 1.467-0.2444-0.1-1.073-1.924-1.392-3.04-0.3401-1.201-0.5102-1.562-0.7971-1.658-0.1169-0.03-0.3082-0.286-0.4251-0.563-0.7121-1.594-3.21-8.194-5.824-15.38-2.7-7.419-2.753-7.599-2.88-8.896-0.1807-1.817-0.5208-2.327-1.318-1.945-0.5739 0.266-2.551 2.445-3.454 3.794-0.9353 1.382-2.083 4.804-4.751 14.06-2.041 7.089-2.987 10.1-3.677 11.61-0.3401 0.765-0.4251 0.797-1.53 0.51-0.8822-0.234-1.605-0.648-2.285-1.339-1.435-1.414-2.211-3.508-2.402-6.398l-0.0744-1.116 0.3295-0.17c0.1807-0.1 0.5633-0.171 0.8503-0.171 0.7865 0 1.562 0.574 2.593 1.914l0.2763 0.372 0.2763-0.585c0.1382-0.319 0.4783-1.414 0.7546-2.423 0.2657-0.999 0.6483-2.275 0.8503-2.817 0.1913-0.531 0.5739-1.551 0.8396-2.253 0.2551-0.701 1.339-3.975 2.402-7.28 2.678-8.312 4.06-12.17 4.921-13.76l0.3401-0.638-0.3507-1.041c-0.6058-1.775-1.105-4.528-1.286-7.132-0.0638-0.754-0.0106-3.507 0.1169-7.663l0.2126-6.483 0.4464-0.415c0.9353-0.882 2.434-1.859 2.848-1.87 0.0957 0 0.2232 0.06 0.2657 0.149zm41.16 22.31c0 0.02 0.4039 3.742 0.8928 8.269 0.5952 5.442 0.9247 8.896 0.9778 10.21l0.0744 1.977-0.7971 0.946c-4.464 5.293-8.014 10.68-10.77 16.42l-0.8503 1.764-0.8184 0.04c-0.457 0.03-0.8503 0.07-0.8715 0.1-0.0212 0.02-1.052 1.69-2.296 3.709-1.233 2.02-2.296 3.71-2.338 3.763-0.1382 0.138-0.2763-0.266-0.8609-2.572-1.074-4.262-1.828-10.24-2.062-16.44l-0.0638-1.595 2.7-3.719c1.477-2.052 2.646-3.742 2.583-3.763-0.1382-0.05-14.01 0.181-15.38 0.266l-1.031 0.05-0.2232-0.659c-0.1169-0.372-0.2232-0.723-0.2232-0.797 0-0.06 0.3082-0.213 0.6908-0.308l0.6908-0.192v-0.489c0-0.265-0.1488-3.762-0.3188-7.758-0.2126-4.9-0.3507-7.302-0.4251-7.344-0.0638-0.04-0.4464-0.139-0.8503-0.202l-0.7227-0.128-0.1169-0.457c-0.0638-0.255-0.1382-0.531-0.17-0.616-0.0532-0.128 1.679-0.17 13.04-0.287 7.206-0.08 13.13-0.16 13.15-0.181 0.0532-0.05 6.388-0.05 6.388-0.01zm-47.12 1.478c-0.0319 0.138-0.0957 0.467-0.1275 0.744l-0.0744 0.51h-3.698v2.094c0 3.783 0.3082 8.555 0.6908 10.97 0.085 0.5 0.1169 0.946 0.0744 0.978-0.1488 0.138-1.626 0.871-1.658 0.829-0.0425-0.04-0.3295-5.729-0.6058-12.05-0.0638-1.519-0.1488-2.784-0.17-2.816-0.1169-0.128-4.506-0.02-5.537 0.138-0.6058 0.09-1.116 0.181-1.127 0.202-0.0213 0.01 0 0.393 0.0531 0.829 0.0425 0.436 0.1807 2.306 0.3082 4.145 0.3188 4.9 0.4358 6.026 0.914 8.503l0.2763 1.435 1.074 0.02c3.56 0.06 6.334 0.17 6.451 0.244 0.085 0.05 0.1594 0.404 0.1913 0.946l0.0531 0.861h-3.794c-2.551 0-3.784 0.03-3.784 0.106 0 0.277 0.4995 1.053 1.052 1.626 0.4464 0.468 1.956 1.754 2.551 2.158 0.0956 0.07-0.9034 1.53-1.063 1.53-0.4251 0-1.297-0.914-3.284-3.401-0.7227-0.903-1.339-1.679-1.371-1.721-0.0638-0.08-1.892 0.159-1.988 0.255-0.1063 0.106-1.669 12.92-1.605 13.16 0.0956 0.361 2.36 3.507 2.987 4.145 0.6164 0.627 0.7546 0.871 1.584 2.699 0.5102 1.116 0.9034 2.03 0.8822 2.062-0.0638 0.05-2.891-1.445-3.125-1.658-0.1063-0.1-0.3507-0.542-0.5527-0.978-0.2232-0.478-3.008-4.74-6.876-10.52l-6.515-9.714v-6.335c0-3.475-0.0531-6.897-0.1063-7.599-0.0956-1.126-0.3295-2.774-0.4889-3.401-0.0531-0.223 0.0106-0.223 9.916-0.574 5.484-0.202 11.4-0.414 13.16-0.489 1.754-0.07 3.688-0.138 4.294-0.148 1.084-0.01 1.095-0.01 1.042 0.223zm-27.43-44.56c-0.0213 0.03-0.0956 0.606-0.17 1.265-0.1169 1.074-0.1594 1.201-0.3614 1.244-0.1169 0.03-0.7227 0.148-1.328 0.265-0.6058 0.117-1.127 0.234-1.158 0.255-0.0425 0.05 0.2657 1.871 0.3401 1.945 0.0531 0.05 3.709-0.818 3.805-0.914 0.1169-0.09 0.8715-3.624 0.7971-3.698-0.1063-0.1-1.881-0.436-1.924-0.362zm57.79-7.726-1.307 1.307 1.647 1.541 1.658 1.541-3.943 3.922-3.943 3.932 1.7 1.701 1.711 1.711 3.922-3.922 3.911-3.911 1.01 1.052c0.542 0.574 1.244 1.308 1.552 1.626l0.542 0.585 1.328-1.318 1.328-1.318-1.084-1.02c-2.03-1.903-4.347-4.209-6.473-6.441-1.169-1.233-2.158-2.243-2.2-2.264-0.0319-0.01-0.6483 0.564-1.36 1.276zm-40.24-1.233c-1.158 0.08-2.126 0.159-2.136 0.17-0.0213 0.02 0.1807 1.924 0.4358 4.23s0.457 4.241 0.4358 4.294c-0.0106 0.04-1.052-0.978-2.306-2.275l-2.274-2.349-1.732 1.733-1.743 1.732 3.444 3.401c1.892 1.871 4.283 4.273 5.325 5.336 1.042 1.073 1.924 1.945 1.956 1.945 0.0425 0 0.8396-0.766 1.775-1.701l1.7-1.7-2.423-2.349c-1.328-1.297-2.402-2.37-2.381-2.392 0.0213-0.02 0.9459 0.1 2.051 0.266 2.848 0.436 6.621 0.914 6.675 0.85 0.0638-0.05 0.4039-4.782 0.3614-4.825-0.0213-0.02-1.477-0.07-3.242-0.127-1.775-0.05-3.242-0.117-3.263-0.149-0.0213-0.02-0.0744-1.446-0.1169-3.157-0.0744-2.753-0.1063-3.103-0.2551-3.093-0.0957 0.01-1.127 0.08-2.285 0.16zm13.94-11.19c-1.212 0.659-2.211 1.244-2.211 1.307 0 0.06 1.105 2.009 2.455 4.305 4.496 7.663 5.463 9.236 5.707 9.236 0.2019 0 0.1382 0.106 4.645-7.068 1.764-2.806 3.433-5.452 3.699-5.867l0.4995-0.776-0.2444-0.138c-0.1275-0.08-1.137-0.616-2.232-1.18l-1.998-1.03-0.5633 1.201c-0.3188 0.658-1.244 2.561-2.062 4.23l-1.477 3.018-0.2126-0.468c-0.5952-1.318-3.677-7.822-3.73-7.886-0.0425-0.03-1.063 0.468-2.274 1.116zm-42.17 25.64-47.99 47.99l48.04 48.04 48.04 48.04 47.96-47.96c26.37-26.38 47.96-48.01 47.96-48.07 0-0.106-95.87-96.03-95.97-96.03-0.032 0-21.65 21.6-48.04 47.99zm94.78 94.72-46.7 46.7-46.7-46.7-46.7-46.7 46.7-46.7 46.7-46.7 46.7 46.7 46.7 46.7-46.7 46.7z"/>
  </symbol>
  <symbol id="eduforum" viewBox="0 0 90 15.156186">
  <path d="m44.1-0.16h4.54v1.13h-4.54zm45.9 15.3v-11.7h-2.08l-3.63 8.78-3.62-8.78h-2.08v11.7h1.45v-9.61l3.95 9.61h0.594l3.97-9.61v9.61zm-19.2 0c3.16 0 4.76-1.85 4.76-4.76v-7.12h-1.45v7.08c0 2.13-1.15 3.48-3.3 3.48s-3.3-1.35-3.3-3.48v-7.08h-1.45v7.12c0.601 3.17 2.7 4.68 4.74 4.76zm-7.43 0-3.14-4.76c1.59-0.14 3.02-1.29 3.02-3.39 0-2.15-1.52-3.51-3.65-3.51h-4.67v11.7h1.45v-4.63h2.32l2.97 4.63h1.71zm-3.95-5.9h-3.06v-4.46h3.06c1.38 0 2.32 0.908 2.32 2.22s-0.943 2.24-2.32 2.24zm-12.7 5.9c3.44 0 5.77-2.59 5.77-6.03s-2.34-6.03-5.77-6.03c-3.46 0-5.77 2.59-5.77 6.03s2.32 6.03 5.77 6.03zm0-1.29c-2.62 0-4.28-2.03-4.28-4.72 0-2.73 1.66-4.72 4.28-4.72 2.6 0 4.28 2.01 4.28 4.72s-1.68 4.72-4.28 4.72zm-14 1.29v-5.33h6.07v-1.29h-6.07v-3.76h6.2v-1.29h-7.64v11.7h1.45zm-8.3 0c2.9 0 4.85-1.64 4.85-4.54v-7.34h-3.32v7.38c0 0.961-0.542 1.57-1.54 1.57-0.996 0-1.54-0.611-1.54-1.57v-7.38h-3.32v7.34c0 2.87 1.96 4.5 4.85 4.5zm-11.4 0c3.46 0 5.5-2.34 5.5-5.81 0-3.48-2.03-5.85-5.5-5.85h-4.41v11.7h4.46zm-0.0175-2.88h-1.12v-5.9h1.12c1.36 0 2.13 0.943 2.13 2.95 0 1.87-0.821 2.94-2.13 2.94zm-5.68 2.88v-2.88h-4.07v-1.57h3.95v-2.88h-3.95v-1.43h4.07v-2.88h-7.38v11.7h7.38zm36.7-15.3h4.54v1.13h-4.54zm45.9 15.3v-11.7h-2.08l-3.63 8.78-3.62-8.78h-2.08v11.7h1.45v-9.61l3.95 9.61h0.594l3.97-9.61v9.61zm-14.5-4.76v-7.12h-1.45v7.08c0 2.13-1.12 3.48-3.27 3.48s-3.33-1.35-3.33-3.48v-7.08h-1.45v7.12c0 2.87 1.59 4.76 4.76 4.76 2.97-0.503 4.69-2.58 4.74-4.76zm-12.2 4.76-3.14-4.76c1.59-0.14 3.02-1.29 3.02-3.39 0-2.15-1.52-3.51-3.65-3.51h-4.67v11.7h1.45v-4.63h2.32l2.97 4.63h1.71zm-3.95-5.9h-3.06v-4.46h3.06c1.38 0 2.32 0.908 2.32 2.22s-0.943 2.24-2.32 2.24zm-12.5 5.9c3.44 0 5.77-2.59 5.77-6.03s-2.34-6.03-5.77-6.03c-3.46 0-5.77 2.59-5.77 6.03s2.32 6.03 5.77 6.03zm0-1.29c-2.62 0-4.28-2.03-4.28-4.72 0-2.73 1.66-4.72 4.28-4.72 2.6 0 4.28 2.01 4.28 4.72s-1.68 4.72-4.28 4.72zm-14 1.29v-5.33h6.07v-1.29h-6.07v-3.76h6.2v-1.29h-7.64v11.7h1.45zm-8.3 0c2.9 0 4.85-1.64 4.85-4.54v-7.34h-3.32v7.38c0 0.961-0.542 1.57-1.54 1.57-0.996 0-1.54-0.611-1.54-1.57v-7.38h-3.32v7.34c0 2.87 1.96 4.5 4.85 4.5zm-11.4 0c3.46 0 5.5-2.34 5.5-5.81 0-3.48-2.03-5.85-5.5-5.85h-4.41v11.7h4.46zm-0.0175-2.88h-1.12v-5.9h1.12c1.36 0 2.13 0.943 2.13 2.95 0 1.87-0.821 2.94-2.13 2.94zm-5.68 2.88v-2.88h-4.07v-1.57h3.95v-2.88h-3.95v-1.43h4.07v-2.88h-7.38v11.7h7.38z"/>
  </symbol>
</svg>
