<svg height="46" width="46" viewBox="0 0 219.83758 219.83758">
 <path d="m38.2 0c-21.1 0-38.2 17.1-38.2 38.2v144c0 21.2 17.1 38.2 38.2 38.2h143c21.2 0 38.2-17.1 38.2-38.2v-143c1-21.9-16-39-37-39h-144zm112 40.8c-0.662 4.29-6.85 6.72-10.6 8.12 2.83-0.877 17.9-7.59 19.5-3.77 1.94 4.34-10.4 6.35-12.5 7.1-1.56 0.52-3.13 1.09-4.67 1.72 19.1-1.9 37.3 13.8 42.6 33.3 0.375 1.4 0.75 2.96 1.09 4.6 6.97 2.59 19.6-0.134 23.7-2.63-2.94 6.95-10.6 12.1-21.9 13 5.43 2.26 15.7 3.5 22.7 2.31-4.47 4.8-11.7 9.15-23.9 9.04-16.4 66.3-126 94.5-177 25.6 19.4 18.5 53.1 20.1 74.4-1.99-12.5 1.83-21.7-10.5-6.25-17.1-13.9 1.51-21.6-5.85-24.7-12.1 3.25-3.4 6.83-4.98 13.8-5.43-14.7-3-20.3-10.4-22-19.4 4.21-1.01 9.48-1.87 12.4-1.48-13.3-6.94-17.9-17.4-17.2-25.2 23.7 8.81 38.9 15.9 51.5 22.7 4.51 2.4 9.53 6.72 15.2 12.2 7.22-19.1 16.1-38.8 31.4-48.5-0.252 2.21-1.45 4.28-3.01 5.96 4.34-3.94 9.96-6.64 15.7-7.43z" />
</svg>
