<svg>
 <path d="m11.6 0h66.8c6.4 0 11.6 5.2 11.6 11.6v66.9c0 6.3-5.2 11.5-11.6 11.5h-66.8c-6.4 0-11.6-5.2-11.6-11.5v-66.9c0-6.4 5.2-11.6 11.6-11.6zm54 10c-2.23 0-4.05 1.83-4.05 4.06v9.7c0 2.23 1.8 4.05 4.05 4.05h10.2c2.23 0 4.05-1.8 4.05-4.05v-9.7c0-2.23-1.8-4.06-4.05-4.06h-10.2zm14.3 28.1h-7.9c0.75 2.45 1.16 5.04 1.16 7.73 0 15-12.5 27.1-28 27.1-15.4 0-28-12.1-28-27.1 0-2.7 0.4-5.3 1.16-7.73h-8.26v38c0 1.97 1.61 3.57 3.57 3.57h62.7c1.97 0 3.57-1.6 3.57-3.57v-38zm-34.8-10.8c-10 0-18.1 7.84-18.1 17.5 0 9.67 8.1 17.5 18.1 17.5 10 0 18.1-7.85 18.1-17.5 0-9.7-8.1-17.5-18.1-17.5z"/>
</svg>
