<svg>
 <path d="m15.6 0c-8.6 0-15.6 7-15.6 15.6v58.8c0 8.7 7 15.6 15.6 15.6h58.7c8.66 0 15.6-7 15.6-15.6v-58.5c0.7-8.67-6.2-15.8-14.6-15.8-20.7-0.1-59.3 0-59.3 0zm46.2 16.6c-0.27 1.75-2.8 2.74-4.3 3.33 1.16-0.4 7.3-3.1 7.97-1.54 0.8 1.77-4.23 2.6-5.1 2.9-0.6 0.2-1.3 0.4-1.9 0.7 7.8-0.77 15.3 5.64 17.4 13.6 0.15 0.57 0.3 1.2 0.44 1.9 2.85 1.06 8-0.05 9.7-1.07-1.2 2.84-4.3 4.95-8.96 5.3 2.2 0.9 6.44 1.43 9.3 0.94-1.83 1.96-4.8 3.75-9.77 3.7-6.7 27.1-51.5 38.7-72.5 10.4 7.94 7.56 21.7 8.2 30.3-0.8-5.1 0.7-8.87-4.3-2.56-7-5.7 0.6-8.84-2.4-10.1-4.95 1.33-1.4 2.8-2 5.66-2.2-6-1.2-8.3-4.26-9-7.9 1.7-0.4 3.87-0.76 5.1-0.6-5.1-2.7-7-7.05-6.7-10.2 9.7 3.6 15.9 6.5 21 9.27 1.84 1 3.9 2.74 6.23 5 2.95-7.8 6.6-15.8 12.8-19.8-0.1 0.9-0.6 1.75-1.23 2.43 1.77-1.6 4.1-2.7 6.44-3z"/>
</svg>
