<svg id="svg2" xmlns="http://www.w3.org/2000/svg" width="160" viewBox="0 0 1588 792">
  <style type="text/css" media="screen">
    <![CDATA[
    g {
        fill: yellow;
        stroke: black;
        stroke-width: 1;
        transition: fill 1s linear 0s;
    }
    g:hover {
        fill: blue;
    }
    ]]>
</style> 
  <g id="aa">
  <path id="path4" d="m618 161c6.58-0.85 5.39-11.6-1.08-10.2-5.53 1.16-4.81 10.6 1.08 10.2m4.38-88.7c-5.92 0.606-5.68 9.79 0.15 10.2 6.56 0.45 6.49-10.5-0.15-10.2m1.66 26.8c-6.2 0.825-4.69 11 1.5 10.1 6.22-0.825 4.66-10.9-1.5-10.1-1.24 0.162 2.65-0.338 0 0m-9-38.9c7.29 0.694 5.77-11.7-0.95-10.4-4.97 0.969-4.82 9.81 0.95 10.4 0.138 0.0125-1.54-0.156 0 0m-124 299zm-2.19-5.18c-7.96-0.294-5.73 12.7 1.54 10.1 5.08-1.8 3.88-9.91-1.54-10.1-2.75-0.106 2.74 0.106 0 0m100-130c-0.7 8.45 13.7 5.08 9.12-2.88-2.56-4.44-8.72-2.03-9.12 2.88-0.112 1.34 0.269-3.29 0 0m23.1-43.5c6.33-0.544 6.97-11 0.131-10.9-6.36 0.125-7.21 11.5-0.131 10.9 2.82-0.244-0.144 0.0125 0 0m-53.5 110c-3.58-8.93-13.8-1.82-8.56 4.17 3.82 4.32 10.6 0.788 8.56-4.17-0.35-0.881 0.131 0.319 0 0m13.9-66.4c-4.71 0.519-5.3 7.61-2.4 10.3 7.56 6.97 11.6-11.2 2.4-10.3-1.27 0.138 1.7-0.175 0 0m28.8-19c3.98 3.08 9.11-2.52 6.79-7.22-3.86-7.8-14.2 1.54-6.79 7.22 0.162 0.125-0.588-0.45 0 0m23.3-67.5c7.33-3.6 0.975-15.2-4.88-9.34-3.42 3.43-0.931 12.2 4.88 9.34 2.99-1.47-0.556 0.275 0 0m-39-75.4c0-6.7-9.87-6.88-10.3-0.281-0.444 7.03 10.3 7.64 10.3 0.281v0m13.1-12.8c7.14 0 6.89-11.8-0.319-10.8-5.85 0.838-5.99 10.8 0.319 10.8m5.21 246c2.22-3.53-1.36-9.43-5.95-8.25-9.21 2.38 0.544 16.7 5.95 8.25 0.075-0.119-0.394 0.612 0 0m-33-186c7.59 3.68 9.89-10.5 1.97-10.8-5.69-0.231-6.75 8.47-1.97 10.8 0.638 0.306-1.74-0.85 0 0m-66 230c-6.46 0.919-5.44 11.4 1.04 11.1 6.98-0.369 5.81-12-1.04-11.1-2.76 0.394 2.77-0.381 0 0m37.8-36.2c-6.56-2.07-9.62 10.1-2.66 11.3 6.65 1.09 9.01-9.28 2.66-11.3-2.25-0.706 2.18 0.681 0 0m28.1-38.5c-9.15-2.02-7.31 15 0.888 10.9 4.34-2.19 4.36-9.76-0.888-10.9-1.39-0.306 2.57 0.569 0 0m18.9 2.48m7.31-1.66c-0.588-7.69-12.7-6.84-10.2 1.35 1.89 6.34 10.3 5.71 10.2-1.35m10.5 51.5c5-1.57 3.87-9.51-0.212-11.3-9.06-3.88-8.47 14 0.212 11.3 1.41-0.438-0.494 0.156 0 0m-39-128c5.48 0 6.58-7.73 3.02-10.7-7.35-6.19-12 10.7-3.02 10.7m-40.8 131c-7.62-1.84-9.39 9.98-1.88 10.5 6.42 0.462 8.54-8.91 1.88-10.5-1.72-0.419 2.99 0.725 0 0m88.2 13.3c2.13-5-3.66-11.2-7.66-7.65-6.5 5.76 4.16 15.9 7.66 7.65 1.12-2.63-0.612 1.44 0 0m6.54 19.7c1.58-5.06-3.77-11.9-8.18-7.71-6.99 6.63 5.6 15.9 8.18 7.71 0.844-2.69-0.481 1.52 0 0m-32-109c0.688-8.36-12.1-8.49-10.8-0.212 0.919 5.82 10.2 7.03 10.8 0.212 0.144-1.79-0.206 2.56 0 0m-8.5-163c-0.225-6.24-7.28-7.69-9.77-1.81-3.58 8.41 9.51 11.4 9.77 1.81m-14.7 40.5c-6.47 4.64 0.712 15.4 6.34 9.71 4.26-4.36-1.44-13.2-6.34-9.71m-2.68 32.2c2.95 5.41 9.54 0.8 9.38-3.91-0.331-9.42-14.7-5.86-9.38 3.91 0.994 1.82-0.731-1.34 0 0m6.51 47c-6.64 3.7-1.91 15.6 4.89 11.4 5.37-3.32 0.25-13.9-4.89-11.4m-66-128c-6.42 5-11.5 12.8-17.5 18.5-3.71 3.49-7.11 7.34-10.6 11-12.3 13-23.3 26.7-34.5 40.7-22.8 28.6-42.3 59.4-58.6 92.1-2.83 5.65-22.2 39.1-13.1 43 4.66 1.98 7.19-7 8.18-9.86 3.09-8.99 7.46-17.5 11.6-26 14.3-29.1 30.4-57.8 50.3-83.6 13-16.9 26.2-33.5 41-48.8 6.71-6.93 13.5-13.8 20-20.8 2.77-2.99 7.77-6.19 9.62-9.76 2.18-4.21-1.75-10.1-6.42-6.48-1 0.775 1.86-1.46 0 0m502 245c6.35 15.2-0.338 37.6-7.76 51.3-3.18-2.77-6.88-4.81-11.2-4.81 1.54-9.24-0.075-19 2.34-28 1.14-4.31 3.18-8.31 5.84-11.9 1.06-1.42 8.86-11.1 10.8-6.58 0.775 1.86-0.269-0.644 0 0m-13.4 60.6c-1.03 2.01-4.12 2.51-5.31 4.18-0.894-0.975-0.638-7.66 1.04-8.36 2.46-1.02 2.7 3.69 4.27 4.18-0.0312 0.0625-0.0187-0.006 0 0m0.5-153c2.32-29.2 7.09-58.1 9.86-87.3 1.35-14.2 4.19-28.1 5.5-42.3 1.14-12.5 1.66-26.1 5.99-37.8 2.6-7.08 12.3-27.3 22.3-19.5 8.97 6.92 5.31 26.6 4.56 36.1-1.19 15.2-3.07 30.8-6.76 45.6-2.72 10.9-6.78 21.6-10.2 32.3-9.3 29-19.1 57.9-32.3 85.4 0.325-4.14 0.65-8.28 0.981-12.4m273 145c-2.56-7.06-0.819-16.5 2.19-23.2 1.09-2.42 8.19-15.7 12.4-11.9 1.18 1.05 0.119 8.22-0.013 9.71-0.362 4.21-1.18 8.35-2.29 12.4-0.612 2.25-8.46 23.7-12.3 13-0.381-1.06 0.475 1.3 0 0m323-97.2c-1.46-11.4-26.6 8.86-29.9 10.9-12.7 7.84-24.6 16.4-36.5 25.4-9.54 7.21-19 14.5-28.6 21.7-10.6 8.14-19.9 17.5-29.6 26.7-20.1 19.2-43.4 43.4-71.2 50.7-27 7.14-59.7 1.39-81-17-10.5-9.05-16-22.1-19.2-35.3-1.72-7.14-1.94-13.6-1.98-20.9-0.025-6.36-1.51-12.6-9.23-12.2-5.12 0.3-10.4 4.04-15.3 5.66-6.53 2.15-12.9 4.83-19 8.05-13.4 7.11-26.3 15.8-39.1 24-25.2 16.1-51.2 32.4-78 45.8-23.7 11.8-51.3 24.3-78.5 17.5-5.7-1.42-10.8-4.91-15.7-8.09-6.79-4.41-14.9-8.14-19.7-14.8-3.26-4.57-5.62-8.69-8.1-13.8-1.66-3.39-4.56-7.24-4.04-11.2 0.262-1.92 2.13-4.52 2.94-6.17 7.49-15.3 10.8-31.6 9.59-48.7-0.475-6.56-3.96-13.9-11.3-14.7-7.92-0.812-13.2 6.28-17.2 11.9-0.912-12.4 0.412-24.7 1.22-37.1 0.344-5.22 0.612-10.5 1.04-15.7 0.575-6.88 3.5-11.8 6.54-17.8 11-22 19.3-44.9 27.1-68.2 7.98-23.8 17.8-47.8 22-72.6 1.92-11.6 3.68-23.4 4.53-35.1 0.762-10.6 2.01-24.3-3.06-34.1-4.81-9.23-15.9-13.7-24.6-7.23-8.87 6.55-13.8 14.6-17.3 25-3.57 10.8-4.36 22.2-5.82 33.4-1.59 12.2-2.9 24.2-4.73 36.4-1.87 12.4-2.44 25-4.23 37.5-1.8 12.6-3.54 25.2-4.53 37.8-0.988 12.6-2.59 25.2-3.3 37.8-0.631 11.3-0.838 19.3-7.31 28.9-13.5 19.9-26.7 40.5-43.5 57.9-14.3 14.7-29.7 30.8-47.5 41.2-16.6 9.74-41.6 16.1-58.1 2.48-8.17-6.71-12.6-16.2-15.6-26.1-1.65-5.32-2.91-10.8-3.78-16.3-0.65-4.12 0.231-13.8-4.94-15.3-4.48-1.31-5.64 2.64-6.21 6.05-0.9 5.41-1.71 10.5-3.14 15.8-1.54 5.75-9.56 22.6-13.9 9.25-1.82-5.62-1.41-12.4-1.02-18.2 0.275-4.18 3.06-12.6-1.25-15.5-6.83-4.65-11.7 11.2-13.9 14.9-11.9 19.6-27.8 38.1-44.9 53.4-9.06 8.11-18.6 15.4-28.8 22-6.12 3.99-11.1 6.9-18.4 7.91-10.3 1.44-20.4-2.19-27.6-9.88-8.1-8.66-10.1-18.6-15.4-28.6-2.18-4.08-8.74-6.79-9.69-0.0312-0.625 4.48 4.68 13.3 6.42 17.6 3.68 9 10.5 18.2 18.5 23.8 8.37 5.87 18.4 7.88 28.4 6.58 12-1.55 20.7-7.56 30.4-14.5 18.6-13.3 34.3-28.7 49.1-46 6.22-7.27 12.5-15 17.4-23.2 0.519 9.02 2.24 22.7 13.2 24.5 10 1.65 16.4-9.64 19-17.6 0 7.22 4.66 15.9 8.07 22.2 5.08 9.27 11.9 15.9 21.6 20.2 18.9 8.29 40.8 3.29 57.9-6.85 19.7-11.7 36.5-28.2 52.1-44.8 16-17 27.8-36.9 41.2-55.7-0.238 14.2-2.44 28.2-2.35 42.4 0.0875 13.8 1.28 27.4 0.156 41.2-1.14 14.2-0.806 28-1.26 42.2-0.494 15.2-1.99 30.4-2.1 45.6-0.194 25.7-1.91 51.3-2.09 76.9-0.025 3.54 1.05 11.2 6.62 8.64 5.17-2.38 2.76-15.8 2.84-20.2 0.194-9.32 0.4-18.6 0.55-28 0.288-17.8 0.381-35.9 1.42-53.7 0.525-9 1.16-17.9 1.39-27 0.0937-3.72-0.562-8.88 1.66-11.3 1.42-1.58 6.48-3.89 8.6-5.21 3.28 6.32 6.16 13.3 10.4 19.1 6.46 8.64 16.4 13.7 25.3 19.3 19.1 11.9 39.7 11.7 61.1 6.34 20.2-5.02 38.7-14.7 56.6-25.1 19.5-11.4 39-22.7 58.1-34.8 17.5-11 34.8-22.4 53.5-31.1-5.71 10.2-10.5 28.2-1.94 38.2 4.23 4.98 11.1 5.12 16.4 1.78 5.32-3.36 6.96-9.26 9.24-14.8 15.2 50.7 80.5 66.8 125 45.4 19.8-9.6 35.9-24.3 51.9-39.2 18.3-17 36.5-33.3 56.4-48.3 11.8-8.86 23.5-18.4 35.9-26.3 6.35-4.06 13.2-7.15 19.7-10.8 4.08-2.3 15.2-7.16 14.4-12.9m-1.3e3 -235c1.87 1.46 0.2 6.74-0.05 8.87-1.01-2.99-2.18-6.11 0.05-8.87m-36.7 625c1.92-46.3 16.4-96.3 45.2-133 24.6-31.4 54.3-58 84.4-84 1.27 38.2 0.519 76.4 2.39 115 1.55 31.6 2.59 63.8 0.875 95.4-2.1 38.7 0.325 78.8-12.3 116-4.9 14.5-24.4 30.9-40.2 31-8.42 0.0312-17.9-3.12-25.8-5.75-8.72-2.91-16.8-6.61-23-13.6-14-15.5-23-38.6-27.4-58.7-4.48-20.3-5.02-41.3-4.17-62 0.281-6.81-0.925 22.5 0 0m223-292c-13.8 8.41-27.2 18.2-40.8 27.1-14.9 9.81-29.4 20.4-44 30.7-1.44-25.2-3.87-50.3-4.36-75.6-0.156-8.15-0.144-16.3 0.75-24.4 0.494-4.46 2.62-18.2-6.85-15.6-6.31 1.74-2.92 12.2-3.14 16.7-0.35 7.21-2.89 16.2-5.29 23-1.57 4.47-6.38 16.1-10.7 7.41-2.7-5.46-1.51-13.3-1.47-19.1 0.0563-7.44 1.63-17-2.56-23.6-4.03-6.44-10.9-6.48-17.5-4.56-14.4 4.19-28.5 16.8-39.4 26.7-11.8 10.8-23.5 22.1-34.2 34.1-22.7 25.4-40.6 54.3-59.6 82.6 3.68-26.6 11.2-52.2 16-78.6 5.37-29.4 13.6-58.2 20-87.4 5.18-23.8 12.2-47.1 17.7-70.8 5.66-24.1 12.1-48 18.6-72 6.07-22.6 8.67-45.7 14.5-68.4 0.412-1.61 0.675-4.23 1.48-5.73 1.32-2.44-0.319-1.59 2.62-2.54 2.05-0.662 5.73 0.238 7.89 0.25 3.74 0.025 7.47-0.225 11.2-0.706 14.4-1.86 29.4-5.12 43.3-9.27 11.5-3.41 23.4-5.5 34.7-9.48 9.81-3.46 19.6-7.07 29.5-10.5 19.3-6.74 38.9-11.5 58.4-17.6 24.2-7.62 48.9-14.6 73.6-20.5 12.1-2.89 24.3-5.41 36.6-7.51 7.02-1.19 14-2.56 21.1-3.57 4.38-0.631 15.5 1.1 16.8-4.95 2.25-10.5-29.4-1.82-33.9-1.07-15.3 2.56-30.6 5.45-45.7 9.01-28.1 6.62-55.6 15.7-83.6 22.9-13.8 3.54-27.2 8.09-40.9 12.2-5.8 1.74-11.3 4.36-17.1 6.19-5.26 1.67-10.8 2.64-15.9 4.89-11.8 5.25-25.2 8.36-37.9 11.6-13.7 3.52-29.1 7.29-43.2 8.42-2.96 0.238-12.4 2.15-14.8-0.694-1.56-1.89 1.2-14.4 1.51-17.2 0.581-5.36 0.981-11.5-4.48-14.6-6.57-3.75-12.4 0.488-15.1 6.53-2.61 5.77-1.65 12.3-0.25 18.2 1.28 5.45 6.51 9.49 6.41 14.6-0.0875 5.18-2.34 11.1-3.38 16.2-1.35 6.71-2.77 13.4-4.11 20.1-5.69 28.4-12 56.1-20.6 83.8-8.15 26.3-11.4 54.1-19.7 80.4-4.36 13.9-6.37 28.4-9.74 42.6-2.35 9.88-4.68 19.8-7.16 29.6-6.85 27.2-12.5 54.7-18.6 82.1-3.11 14-4.24 28.2-6.99 42.2-3.63-18-2.25-36.8-3.46-55.1-1.28-19.3-1.59-38.5-1.79-57.8-0.381-38.5 1.46-77.2 3.99-116 2.4-36.5 3.36-73.1 4.76-110 0.738-19.2 0.9-38.4 1.97-57.6 0.462-8.32 1.12-16.7 1.31-25 0.05-2.36-0.0562-4.74 0.325-7.08 0.312-1.92 1.85-4.73 1.47-6.68-0.931-4.74-6.18-4.53-9.71-2.98-5.31 2.34-11 9.48-14.8 13.7-5.85 6.41-11.5 13.1-17.2 19.6-10.2 11.8-20.1 23.8-30.2 35.8-21.7 25.6-42.5 52.4-62.2 79.6-10.8 14.9-19.2 31.4-29.8 46.4-9.66 13.6-21.5 26.3-29.9 40.7-2.34 3.98-12.2 15.9-3.71 19.5 6.68 2.8 9.79-9.36 12.4-13.4 7.7-12 17.2-22.8 25.4-34.5 12.5-17.8 22.9-37 35.5-54.7 9.91-13.9 20.2-28 30.8-41.4 13.9-17.6 28.6-34.6 43.1-51.7 12.6-14.8 23.9-32.2 38.8-44.9-1.29 26.1-3.08 52.1-2.71 78.2 0.206 14.5-2.29 29-2.8 43.5-0.469 13.6 0.1 27.3-0.462 40.9-1.06 25.4-3.74 50.6-4.59 76-0.7 20.9-1.74 41.7-1.74 62.6 0.006 23.9-0.244 47.9 1.45 71.8 1.47 20.8 1.08 41.8 6.08 62.1 1.35 5.46 5.21 10.9 11.4 6.83 4.96-3.28 8.45-12.4 11.8-17.4 7.84-11.7 15.6-23.4 23.4-35.1 13.4-20.2 27.4-40.4 44.6-57.6 11.5-11.4 22.4-24.5 35.6-34 5.82-4.19 28.5-25.2 35-16.8 3.81 4.98 1.25 17 0.962 22.9-0.338 6.7-0.438 12.7 2.52 19 5.79 12.2 20.1 9.95 24.7-1.54 0.131 18 1.72 35.9 2.79 53.8 0.462 7.84 2.91 15.9-3.31 21.5-7.84 6.99-15.9 13.7-23.8 20.7-26.4 23.7-52.6 49.2-72.5 78.7-20.1 29.9-30.7 67.6-35.6 103-5.01 36.1-4.25 75.2 9.17 110 6.02 15.4 14.6 33.5 27.2 44.7 6.22 5.54 13.8 8.84 21.6 11.4 8.91 2.93 18.8 6.42 28.3 6.42 16.1 0 30.6-11.4 41.1-22.4 9.36-9.67 11.5-22.5 14.5-35.1 4.55-18.9 4.61-37 5.26-56.3 0.606-18.4 2.64-36.7 2.79-55.1 0.262-31 0.0625-61.6-1.71-92.5-1.15-20.1-0.844-40.2-1.4-60.3-0.306-11 0.1-22.1-0.275-33.1-0.206-6.14-3.09-15 1.23-19.9 2.61-2.98 7.44-5.37 10.7-7.68 3.96-2.86 7.92-5.71 12-8.49 10.2-7.03 20.5-13.9 30.9-20.8 8.78-5.84 17.7-11.4 26.3-17.5 2.61-1.84 7.53-3.68 9.3-6.52 2.68-4.31-2.04-9.63-6.54-6.91-0.562 0.344 2.15-1.3 0 0"/>
</g>
</svg>
