<svg xmlns="http://www.w3.org/2000/svg" width="1920" height="300"><path d="M1016,546L755,554L1275,551Z" fill="#320c4c" stroke="#320c4c" stroke-width="1.51"/><path d="M382,-231L959,-198L1529,-255Z" fill="#30094a" stroke="#30094a" stroke-width="1.51"/><path d="M1807,425L1542,540L1948,410Z" fill="#4b2565" stroke="#4b2565" stroke-width="1.51"/><path d="M2064,86L2023,91L2157,299Z" fill="#350f4f" stroke="#350f4f" stroke-width="1.51"/><path d="M1948,410L1542,540L2157,427Z" fill="#492262" stroke="#492262" stroke-width="1.51"/><path d="M1954,-168L2064,86L2166,56Z" fill="#3a1454" stroke="#3a1454" stroke-width="1.51"/><path d="M2064,86L2157,299L2166,56Z" fill="#340e4e" stroke="#340e4e" stroke-width="1.51"/><path d="M2157,299L2157,427L2166,56Z" fill="#2b0845" stroke="#2b0845" stroke-width="1.51"/><path d="M1529,-255L1865,-226L2182,-218Z" fill="#3d1657" stroke="#3d1657" stroke-width="1.51"/><path d="M1865,-226L1954,-168L2182,-218Z" fill="#371051" stroke="#371051" stroke-width="1.51"/><path d="M1954,-168L2166,56L2182,-218Z" fill="#310a4b" stroke="#310a4b" stroke-width="1.51"/><path d="M2166,56L2157,427L2182,-218Z" fill="#350f4f" stroke="#350f4f" stroke-width="1.51"/><path d="M1954,-168L2023,91L2064,86Z" fill="#3d1757" stroke="#3d1757" stroke-width="1.51"/><path d="M2023,91L1899,284L2157,299Z" fill="#320e4c" stroke="#320e4c" stroke-width="1.51"/><path d="M2157,299L1948,410L2157,427Z" fill="#3c1756" stroke="#3c1756" stroke-width="1.51"/><path d="M1899,284L1948,410L2157,299Z" fill="#361350" stroke="#361350" stroke-width="1.51"/><path d="M1839,12L1876,66L1954,-168Z" fill="#3f1859" stroke="#3f1859" stroke-width="1.51"/><path d="M1954,-168L1876,66L2023,91Z" fill="#3f1859" stroke="#3f1859" stroke-width="1.51"/><path d="M1876,66L1899,284L2023,91Z" fill="#3b1555" stroke="#3b1555" stroke-width="1.51"/><path d="M-166,-135L193,-182L382,-231Z" fill="#2a0344" stroke="#2a0344" stroke-width="1.51"/><path d="M1899,284L1807,425L1948,410Z" fill="#421d5c" stroke="#421d5c" stroke-width="1.51"/><path d="M1865,-226L1839,12L1954,-168Z" fill="#381152" stroke="#381152" stroke-width="1.51"/><path d="M1876,66L1706,122L1899,284Z" fill="#3f1859" stroke="#3f1859" stroke-width="1.51"/><path d="M1529,-255L1593,-178L1865,-226Z" fill="#381252" stroke="#381252" stroke-width="1.51"/><path d="M1670,-19L1839,12L1865,-226Z" fill="#3f1959" stroke="#3f1959" stroke-width="1.51"/><path d="M1741,329L1807,425L1899,284Z" fill="#401c5a" stroke="#401c5a" stroke-width="1.51"/><path d="M1706,122L1741,329L1899,284Z" fill="#3a1654" stroke="#3a1654" stroke-width="1.51"/><path d="M1706,122L1681,144L1741,329Z" fill="#381452" stroke="#381452" stroke-width="1.51"/><path d="M1593,-178L1670,-19L1865,-226Z" fill="#371251" stroke="#371251" stroke-width="1.51"/><path d="M1839,12L1706,122L1876,66Z" fill="#431c5d" stroke="#431c5d" stroke-width="1.51"/><path d="M959,-198L1315,-172L1529,-255Z" fill="#280542" stroke="#280542" stroke-width="1.51"/><path d="M1699,370L1542,540L1807,425Z" fill="#472261" stroke="#472261" stroke-width="1.51"/><path d="M1670,-19L1706,122L1839,12Z" fill="#421c5c" stroke="#421c5c" stroke-width="1.51"/><path d="M1741,329L1699,370L1807,425Z" fill="#441f5e" stroke="#441f5e" stroke-width="1.51"/><path d="M1681,144L1529,346L1699,370Z" fill="#2d0d47" stroke="#2d0d47" stroke-width="1.51"/><path d="M1681,144L1699,370L1741,329Z" fill="#32114c" stroke="#32114c" stroke-width="1.51"/><path d="M1529,346L1542,540L1699,370Z" fill="#431e5d" stroke="#431e5d" stroke-width="1.51"/><path d="M1670,-19L1681,144L1706,122Z" fill="#3d1857" stroke="#3d1857" stroke-width="1.51"/><path d="M1670,-19L1461,-14L1681,144Z" fill="#3a1554" stroke="#3a1554" stroke-width="1.51"/><path d="M1394,139L1529,346L1681,144Z" fill="#2d0b47" stroke="#2d0b47" stroke-width="1.51"/><path d="M1461,-14L1394,139L1681,144Z" fill="#320f4c" stroke="#320f4c" stroke-width="1.51"/><path d="M1593,-178L1461,-14L1670,-19Z" fill="#330e4d" stroke="#330e4d" stroke-width="1.51"/><path d="M382,-231L608,-172L959,-198Z" fill="#330d4d" stroke="#330d4d" stroke-width="1.51"/><path d="M1529,346L1404,482L1542,540Z" fill="#3a1754" stroke="#3a1754" stroke-width="1.51"/><path d="M1529,-255L1461,-14L1593,-178Z" fill="#2d0847" stroke="#2d0847" stroke-width="1.51"/><path d="M1315,-172L1461,-14L1529,-255Z" fill="#280541" stroke="#280541" stroke-width="1.51"/><path d="M1394,139L1269,239L1529,346Z" fill="#22043d" stroke="#22043d" stroke-width="1.51"/><path d="M1404,482L1275,551L1542,540Z" fill="#2d0c48" stroke="#2d0c48" stroke-width="1.51"/><path d="M1269,239L1404,482L1529,346Z" fill="#2b0b45" stroke="#2b0b45" stroke-width="1.51"/><path d="M1323,116L1394,139L1461,-14Z" fill="#2b0945" stroke="#2b0945" stroke-width="1.51"/><path d="M1267,9L1323,116L1461,-14Z" fill="#2c0a46" stroke="#2c0a46" stroke-width="1.51"/><path d="M1315,-172L1267,9L1461,-14Z" fill="#280642" stroke="#280642" stroke-width="1.51"/><path d="M608,-172L716,-160L959,-198Z" fill="#310a4b" stroke="#310a4b" stroke-width="1.51"/><path d="M1154,515L1016,546L1275,551Z" fill="#2f0b4a" stroke="#2f0b4a" stroke-width="1.51"/><path d="M1323,116L1269,239L1394,139Z" fill="#280642" stroke="#280642" stroke-width="1.51"/><path d="M1178,310L1275,551L1404,482Z" fill="#361350" stroke="#361350" stroke-width="1.51"/><path d="M1269,239L1178,310L1404,482Z" fill="#2a0a44" stroke="#2a0a44" stroke-width="1.51"/><path d="M1178,310L1154,515L1275,551Z" fill="#371351" stroke="#371351" stroke-width="1.51"/><path d="M959,-198L1099,-99L1315,-172Z" fill="#2a0544" stroke="#2a0544" stroke-width="1.51"/><path d="M1194,-49L1267,9L1315,-172Z" fill="#290643" stroke="#290643" stroke-width="1.51"/><path d="M1180,82L1269,239L1323,116Z" fill="#2a0744" stroke="#2a0744" stroke-width="1.51"/><path d="M1267,9L1180,82L1323,116Z" fill="#2d0a47" stroke="#2d0a47" stroke-width="1.51"/><path d="M1099,-99L1194,-49L1315,-172Z" fill="#280442" stroke="#280442" stroke-width="1.51"/><path d="M1180,82L1178,310L1269,239Z" fill="#270541" stroke="#270541" stroke-width="1.51"/><path d="M1194,-49L1180,82L1267,9Z" fill="#300d4b" stroke="#300d4b" stroke-width="1.51"/><path d="M955,336L1016,546L1154,515Z" fill="#3a1554" stroke="#3a1554" stroke-width="1.51"/><path d="M955,336L1154,515L1178,310Z" fill="#361350" stroke="#361350" stroke-width="1.51"/><path d="M971,137L955,336L1178,310Z" fill="#270642" stroke="#270642" stroke-width="1.51"/><path d="M1099,-99L959,-43L1180,82Z" fill="#310c4b" stroke="#310c4b" stroke-width="1.51"/><path d="M971,137L1178,310L1180,82Z" fill="#2c0846" stroke="#2c0846" stroke-width="1.51"/><path d="M1099,-99L1180,82L1194,-49Z" fill="#2f0b49" stroke="#2f0b49" stroke-width="1.51"/><path d="M959,-43L971,137L1180,82Z" fill="#330e4d" stroke="#330e4d" stroke-width="1.51"/><path d="M382,-231L410,-217L608,-172Z" fill="#330b4d" stroke="#330b4d" stroke-width="1.51"/><path d="M959,-198L959,-43L1099,-99Z" fill="#2d0647" stroke="#2d0647" stroke-width="1.51"/><path d="M870,303L955,336L971,137Z" fill="#2a0744" stroke="#2a0744" stroke-width="1.51"/><path d="M955,336L755,554L1016,546Z" fill="#3b1555" stroke="#3b1555" stroke-width="1.51"/><path d="M357,478L211,527L755,554Z" fill="#391353" stroke="#391353" stroke-width="1.51"/><path d="M870,303L755,554L955,336Z" fill="#3d1857" stroke="#3d1857" stroke-width="1.51"/><path d="M716,-160L959,-43L959,-198Z" fill="#2f0648" stroke="#2f0648" stroke-width="1.51"/><path d="M731,131L870,303L971,137Z" fill="#300b4a" stroke="#300b4a" stroke-width="1.51"/><path d="M773,47L731,131L971,137Z" fill="#350e4f" stroke="#350e4f" stroke-width="1.51"/><path d="M959,-43L773,47L971,137Z" fill="#361050" stroke="#361050" stroke-width="1.51"/><path d="M716,-160L773,47L959,-43Z" fill="#340d4e" stroke="#340d4e" stroke-width="1.51"/><path d="M676,441L755,554L870,303Z" fill="#421c5c" stroke="#421c5c" stroke-width="1.51"/><path d="M700,313L676,441L870,303Z" fill="#361250" stroke="#361250" stroke-width="1.51"/><path d="M731,131L700,313L870,303Z" fill="#2d0947" stroke="#2d0947" stroke-width="1.51"/><path d="M627,134L700,313L731,131Z" fill="#320d4c" stroke="#320d4c" stroke-width="1.51"/><path d="M686,44L731,131L773,47Z" fill="#381152" stroke="#381152" stroke-width="1.51"/><path d="M716,-160L686,44L773,47Z" fill="#371151" stroke="#371151" stroke-width="1.51"/><path d="M608,-172L686,44L716,-160Z" fill="#320b4c" stroke="#320b4c" stroke-width="1.51"/><path d="M676,441L357,478L755,554Z" fill="#3e1858" stroke="#3e1858" stroke-width="1.51"/><path d="M686,44L627,134L731,131Z" fill="#371151" stroke="#371151" stroke-width="1.51"/><path d="M627,134L525,207L700,313Z" fill="#310c4b" stroke="#310c4b" stroke-width="1.51"/><path d="M403,415L357,478L676,441Z" fill="#421c5c" stroke="#421c5c" stroke-width="1.51"/><path d="M608,-172L427,-46L686,44Z" fill="#360f50" stroke="#360f50" stroke-width="1.51"/><path d="M525,207L676,441L700,313Z" fill="#310e4b" stroke="#310e4b" stroke-width="1.51"/><path d="M525,207L403,415L676,441Z" fill="#381452" stroke="#381452" stroke-width="1.51"/><path d="M427,-46L627,134L686,44Z" fill="#3a1454" stroke="#3a1454" stroke-width="1.51"/><path d="M405,250L403,415L525,207Z" fill="#2b0845" stroke="#2b0845" stroke-width="1.51"/><path d="M427,-46L525,207L627,134Z" fill="#381252" stroke="#381252" stroke-width="1.51"/><path d="M410,-217L427,-46L608,-172Z" fill="#31094b" stroke="#31094b" stroke-width="1.51"/><path d="M-62,453L-205,461L211,527Z" fill="#381152" stroke="#381152" stroke-width="1.51"/><path d="M293,196L405,250L427,-46Z" fill="#330c4d" stroke="#330c4d" stroke-width="1.51"/><path d="M268,40L293,196L427,-46Z" fill="#340e4e" stroke="#340e4e" stroke-width="1.51"/><path d="M427,-46L405,250L525,207Z" fill="#350e4f" stroke="#350e4f" stroke-width="1.51"/><path d="M278,350L403,415L405,250Z" fill="#320d4b" stroke="#320d4b" stroke-width="1.51"/><path d="M382,-231L193,-182L427,-46Z" fill="#2e0648" stroke="#2e0648" stroke-width="1.51"/><path d="M193,-182L268,40L427,-46Z" fill="#30084a" stroke="#30084a" stroke-width="1.51"/><path d="M410,-217L382,-231L427,-46Z" fill="#30084a" stroke="#30084a" stroke-width="1.51"/><path d="M293,196L278,350L405,250Z" fill="#290643" stroke="#290643" stroke-width="1.51"/><path d="M278,350L357,478L403,415Z" fill="#3f1859" stroke="#3f1859" stroke-width="1.51"/><path d="M278,350L211,527L357,478Z" fill="#3c1556" stroke="#3c1556" stroke-width="1.51"/><path d="M193,-182L98,-61L268,40Z" fill="#2d0547" stroke="#2d0547" stroke-width="1.51"/><path d="M119,329L211,527L278,350Z" fill="#391353" stroke="#391353" stroke-width="1.51"/><path d="M268,40L110,99L293,196Z" fill="#30094a" stroke="#30094a" stroke-width="1.51"/><path d="M119,329L278,350L293,196Z" fill="#260440" stroke="#260440" stroke-width="1.51"/><path d="M110,99L119,329L293,196Z" fill="#2a0444" stroke="#2a0444" stroke-width="1.51"/><path d="M98,-61L110,99L268,40Z" fill="#320a4c" stroke="#320a4c" stroke-width="1.51"/><path d="M110,99L-14,241L119,329Z" fill="#290442" stroke="#290442" stroke-width="1.51"/><path d="M-98,-103L27,-78L193,-182Z" fill="#2a0243" stroke="#2a0243" stroke-width="1.51"/><path d="M-166,-135L-98,-103L193,-182Z" fill="#2a0344" stroke="#2a0344" stroke-width="1.51"/><path d="M119,329L-62,453L211,527Z" fill="#3b1555" stroke="#3b1555" stroke-width="1.51"/><path d="M27,-78L98,-61L193,-182Z" fill="#2a0244" stroke="#2a0244" stroke-width="1.51"/><path d="M98,-61L27,-78L110,99Z" fill="#30094a" stroke="#30094a" stroke-width="1.51"/><path d="M27,-78L-81,133L110,99Z" fill="#320a4c" stroke="#320a4c" stroke-width="1.51"/><path d="M-81,133L-14,241L110,99Z" fill="#2e0748" stroke="#2e0748" stroke-width="1.51"/><path d="M-14,241L-62,453L119,329Z" fill="#2e0948" stroke="#2e0948" stroke-width="1.51"/><path d="M-135,-62L-81,133L27,-78Z" fill="#330c4d" stroke="#330c4d" stroke-width="1.51"/><path d="M-98,-103L-135,-62L27,-78Z" fill="#2d0547" stroke="#2d0547" stroke-width="1.51"/><path d="M-254,352L-62,453L-14,241Z" fill="#310c4b" stroke="#310c4b" stroke-width="1.51"/><path d="M-81,133L-254,352L-14,241Z" fill="#290543" stroke="#290543" stroke-width="1.51"/><path d="M-221,88L-254,352L-81,133Z" fill="#2e0848" stroke="#2e0848" stroke-width="1.51"/><path d="M-135,-62L-221,88L-81,133Z" fill="#340d4e" stroke="#340d4e" stroke-width="1.51"/><path d="M-254,352L-205,461L-62,453Z" fill="#3f1859" stroke="#3f1859" stroke-width="1.51"/><path d="M-166,-135L-135,-62L-98,-103Z" fill="#2d0547" stroke="#2d0547" stroke-width="1.51"/><path d="M-166,-135L-221,88L-135,-62Z" fill="#320a4c" stroke="#320a4c" stroke-width="1.51"/></svg>
