<svg width="1.92e3" height="300">
  <rect width="1.92e3" height="300" y="0" x="0" fill="#320b4c"/>
  <path d="m1.92e3 251l-20 33 20 1v-34z" fill="#320e4c"/>
  <path d="m1.9e3 284l10 16h10v-15l-20-1z" fill="#361350"/>
  <path d="m1.85e3 -0.25l-10 12.2 40 54 20-66.2-50-0.05z" fill="#3f1859"/>
  <path d="m1.9e3 -0.25l-20 66.2 40 7.5v-73.8l-20 0.05z" fill="#3f1859"/>
  <path d="m1.88e3 66l20 218 20-33v-178l-40-7z" fill="#3b1555"/>
  <path d="m1.9e3 284l-10 16h20l-10-16z" fill="#421d5c"/>
  <path d="m1.84e3 -0.25v12.2l10-12.2-10-0.05z" fill="#381152"/>
  <path d="m1.88e3 66l-170 56 190 162-20-218z" fill="#3f1859"/>
  <path d="m1.77e3 -0.25l70 12.2v-12.2l-70-0.05z" fill="#3f1959"/>
  <path d="m1.9e3 284l-60 16h50l10-16z" fill="#401c5a"/>
  <path d="m1.71e3 122l30 178h100l60-16-190-162z" fill="#3a1654"/>
  <path d="m1.71e3 122l-30 22 50 156h10l-30-178z" fill="#381452"/>
  <path d="m1.84e3 12l-130 110 170-56-40-54z" fill="#431c5d"/>
  <path d="m1.67e3 -0.25l40 122 130-110-70-12.2-100-0.05z" fill="#421c5c"/>
  <path d="m1.68e3 144l-120 156h130l-10-156z" fill="#2d0d47"/>
  <path d="m1.68e3 144l10 156h40l-50-156z" fill="#32114c"/>
  <path d="m1.67e3 -0.25l10 144 30-22-40-122v-0.25z" fill="#3d1857"/>
  <path d="m1.48e3 -0.25l200 144-10-144-190-0.25z" fill="#3a1554"/>
  <path d="m1.39e3 139l110 161h60l120-156-290-5z" fill="#2d0b47"/>
  <path d="m1.45e3 -0.25l-60 139 290 5-200-144-30-0.25z" fill="#320f4c"/>
  <path d="m1.39e3 139l-120 100 150 61h80l-110-161z" fill="#22043d"/>
  <path d="m1.27e3 239l30 61h120l-150-61z" fill="#2b0b45"/>
  <path d="m1.45e3 -0.25l-130 116 70 23 60-139v-0.25z" fill="#2b0945"/>
  <path d="m1.35e3 -0.25l-80 9.25 50 107 130-116-100-0.25z" fill="#2c0a46"/>
  <path d="m1.27e3 -0.25v9.25l80-9.25h-80z" fill="#280642"/>
  <path d="m1.32e3 116l-50 123 120-100-70-23z" fill="#280642"/>
  <path d="m1.27e3 239l-80 61h110l-30-61z" fill="#2a0a44"/>
  <path d="m1.26e3 -0.25l10 9.25v-9.25h-10z" fill="#290643"/>
  <path d="m1.18e3 82l90 157 50-123-140-34z" fill="#2a0744"/>
  <path d="m1.27e3 9l-90 73 140 34-50-107z" fill="#2d0a47"/>
  <path d="m1.18e3 82v218h10l80-61-90-157z" fill="#270541"/>
  <path d="m1.19e3 -0.25l-10 82.2 90-73-10-9.25h-70z" fill="#300d4b"/>
  <path d="m971 137l-13 163h212l-199-163z" fill="#270642"/>
  <path d="m1.03e3 -0.25l150 82.2-40-82.2-110-0.05z" fill="#310c4b"/>
  <path d="m1.18e3 82l-209 55 199 163h10v-218z" fill="#2c0846"/>
  <path d="m1.14e3 -0.25l40 82.2 10-82.2-50-0.05z" fill="#2f0b49"/>
  <path d="m962-0.25l9 137 209-55-150-82.2-68-0.05z" fill="#330e4d"/>
  <path d="m971 137l-99 163h86l13-163z" fill="#2a0744"/>
  <path d="m731 131l137 169h4l99-163-240-6z" fill="#300b4a"/>
  <path d="m773 47l-42 84 240 6-198-90z" fill="#350e4f"/>
  <path d="m871-0.25l-98 47.2 198 90-9-137-91-0.25z" fill="#361050"/>
  <path d="m760-0.25l13 47.2 98-47.2-111-0.05z" fill="#340d4e"/>
  <path d="m731 131l-29 169h166l-137-169z" fill="#2d0947"/>
  <path d="m731 131l-104 3 68 166h7l29-169z" fill="#320d4c"/>
  <path d="m686 44l45 87 42-84-87-3z" fill="#381152"/>
  <path d="m693-0.25l-7 44.2 87 3-13-47.2-67-0.05z" fill="#371151"/>
  <path d="m670-0.25l16 44.2 7-44.2-23-0.05z" fill="#320b4c"/>
  <path d="m686 44l-59 90 104-3-45-87z" fill="#371151"/>
  <path d="m627 134l-102 73 154 93h16l-68-166z" fill="#310c4b"/>
  <path d="m559-0.25l127 44.2-16-44.2-111-0.05z" fill="#360f50"/>
  <path d="m525 207l60 93h94l-154-93z" fill="#310e4b"/>
  <path d="m525 207l-55 93h115l-60-93z" fill="#381452"/>
  <path d="m478-0.25l149 134 59-90-127-44.2-81-0.05z" fill="#3a1454"/>
  <path d="m525 207l-120 43-1 50h66l55-93z" fill="#2b0845"/>
  <path d="m445-0.25l80 207 102-73-149-134-33-0.25z" fill="#381252"/>
  <path d="m402-0.25l-109 196 112 54 19-250-22-0.25z" fill="#330c4d"/>
  <path d="m342-0.25l-74 40.2 25 156 109-196-60-0.25z" fill="#340e4e"/>
  <path d="m424-0.25l-19 250 120-43-80-207-21-0.25z" fill="#350e4f"/>
  <path d="m405 250l-64 50h63l1-50z" fill="#320d4b"/>
  <path d="m254-0.25l14 40.2 74-40.2-88-0.05z" fill="#30084a"/>
  <path d="m293 196l-10 104h58l64-50-112-54z" fill="#290643"/>
  <path d="m200-0.25l68 40.2-14-40.2-54-0.05z" fill="#2d0547"/>
  <path d="m268 40l-158 59 183 97-25-156z" fill="#30094a"/>
  <path d="m293 196l-136 104h126l10-104z" fill="#260440"/>
  <path d="m110 99l8 201h39l136-104-183-97z" fill="#2a0444"/>
  <path d="m103-0.25l7 99.2 158-59-68-40.2-97-0.05z" fill="#320a4c"/>
  <path d="m110 99l-110 126-0.109 25 75.6 50h42.5l-8-201z" fill="#290442"/>
  <path d="m63.5-0.25l46.5 99.2-7-99.2-39.5-0.05z" fill="#30094a"/>
  <path d="m-0.109-0.25v119l110-20-46.5-99.2-63.6-0.05z" fill="#320a4c"/>
  <path d="m110 99l-110 20-0.109 106 110-126z" fill="#2e0748"/>
  <path d="m-0.109 250v50h75.6l-75.6-50z" fill="#2e0948"/>
</svg>
