<svg width="1.6e3" height="170">
 <path fill="#320b4c" d="m0 0.5v170h1.6e3v-170l-1.6e3 0.5z"/>
 <path fill="#3a1554" d="m1.48e3 0.5l120 86v-86h-120z"/>
 <path fill="#2d0b47" d="m1.39e3 140l20 30h190v-27l-210-3z"/>
 <path fill="#320f4c" d="m1.45e3 0.5l-60 138 210 5v-56.5l-120-86h-30z"/>
 <path fill="#22043d" d="m1.39e3 140l-40 30h60l-20-30z"/>
 <path fill="#2b0945" d="m1.45e3 0.5l-130 116 70 23 60-138v-0.5z"/>
 <path fill="#2c0a46" d="m1.35e3 0.5l-80 9 50 106 130-116-100 0.5z"/>
 <path fill="#280642" d="m1.27e3 0.5v9l80-9h-80z"/>
 <path fill="#280642" d="m1.32e3 116l-20 54h50l40-30-70-24z"/>
 <path fill="#290643" d="m1.26e3 0.5l10 9v-9h-10z"/>
 <path fill="#2a0744" d="m1.18e3 82.5l50 87.5h70l20-54-140-33.5z"/>
 <path fill="#2d0a47" d="m1.27e3 9.5l-90 73 140 33.5-50-106z"/>
 <path fill="#270541" d="m1.18e3 82.5v87.5h50l-50-87.5z"/>
 <path fill="#300d4b" d="m1.19e3 0.5l-10 81.9 90-73-10-8.9h-70z"/>
 <path fill="#2a0744" d="m971 138l-2 32h41l-39-32z"/>
 <path fill="#310c4b" d="m1.03e3 0.5l150 81.9-40-81.9h-110z"/>
 <path fill="#2c0846" d="m1.18e3 82.5l-209 55.5 39 32h170v-87.5z"/>
 <path fill="#2f0b49" d="m1.14e3 0.5l40 81.9 10-81.9h-50z"/>
 <path fill="#330e4d" d="m962 0.5l9 136 209-53.8-150-81.7h-68z"/>
 <path fill="#2a0744" d="m971 138l-20 32h18l2-32z"/>
 <path fill="#300b4a" d="m731 132l32 38h188l20-32-240-6z"/>
 <path fill="#350e4f" d="m773 47.5l-42 84.5 240 6-198-90.5z"/>
 <path fill="#361050" d="m871 0.5l-98 46.9 198 89.6-9-136-91-0.5z"/>
 <path fill="#340d4e" d="m760 0.5l13 46.9 98-46.9h-111z"/>
 <path fill="#2d0947" d="m731 132l-6 38h38l-32-38z"/>
 <path fill="#320d4c" d="m731 132l-104 2 15 36h83l6-38z"/>
 <path fill="#381152" d="m686 44.5l45 87.5 42-84.5-87-3z"/>
 <path fill="#371151" d="m693 0.5l-7 43.9 87 3-13-46.9h-67z"/>
 <path fill="#320b4c" d="m670 0.5l16 43.9 7-43.9h-23z"/>
 <path fill="#371151" d="m686 44.5l-59 89.5 104-2-45-87.5z"/>
 <path fill="#310c4b" d="m627 134l-50 36h65l-15-36z"/>
 <path fill="#360f50" d="m560 0.5l126 43.9-16-43.9h-110z"/>
 <path fill="#3a1454" d="m478 0.5l149 134 59-89.8-125-43.7h-83z"/>
 <path fill="#381252" d="m445 0.5l66 170h66l50-36-149-134-33 0.5z"/>
 <path fill="#330c4d" d="m402 0.5l-94 170h103l13-170-22 0.5z"/>
 <path fill="#340e4e" d="m342 0.5l-74 39.9 21 130h19l94-170-60 0.5z"/>
 <path fill="#350e4f" d="m424 0.5l-13 170h100l-66-170-21 0.5z"/>
 <path fill="#30084a" d="m254 0.5l14 39.9 74-39.9h-88z"/>
 <path fill="#2d0547" d="m201 0.5l67 39.9-14-39.9h-53z"/>
 <path fill="#30094a" d="m268 40.5l-158 59 134 70.5h45l-21-130z"/>
 <path fill="#2a0444" d="m110 99.5l3 70.5h131l-134-70.5z"/>
 <path fill="#320a4c" d="m103 0.5l7 98.9 158-59-67-39.9h-98z"/>
 <path fill="#290442" d="m110 99.5zl-61.8 70.5h64.8l-3-70.5z"/>
 <path fill="#30094a" d="m63.8 0.5l46.2 98.9-7-98.9h-39.2z"/>
 <path fill="#320a4c" d="m0.0996 0.5v118l110-18.8-46.2-98.7h-63.7z"/>
 <path fill="#2e0748" d="m110 99.5zl-110 20.5 0.156 50h47.9l61.9-70.5z"/>
</svg>
