<svg xmlns="http://www.w3.org/2000/svg" height="170" width="1.6e3"><path fill="#3a1554" d="m1.48e3 0 120 86v-86h-120z"/><path fill="#2d0b47" d="m1.39e3 139 21 31h189v-28z"/><path fill="#320f4c" d="m1.45e3 0-60 139 210 3v-56l-120-86h-31z"/><path fill="#22043d" d="m1.39e3 139-37 31h58l-21-31z"/><path fill="#2b0945" d="m1.45e3 0-130 116 70 23 60-139z"/><path fill="#2c0a46" d="m1.35e3 0-80 9 50 107 132-116z"/><path fill="#280642" d="m1.27e3 0v9l80-9z"/><path fill="#280642" d="m1.32e3 116-22 54h55l37-31z"/><path fill="#300d4b" d="m1.19e3 0-10 82 90-73v0-9z"/><path fill="#2a0744" d="m1.18e3 82 50 88h68l22-54z"/><path fill="#2d0a47" d="m1.27e3 9-90 73 140 34z"/><path fill="#270541" d="m1.18e3 82v88h50.2z"/><path fill="#310c4b" d="m1.03e3 0 150 82-40-82z"/><path fill="#2c0846" d="m1.18e3 82-210 55 41 33h169z"/><path fill="#2f0b49" d="m1.14e3 0 40 82 10-82z"/><path fill="#330e4d" d="m961 0 9 137 210-55-150-82z"/><path fill="#2a0744" d="m951 170h60l-41-33z"/><path fill="#300b4a" d="m731 131 31 39h189l19-33z"/><path fill="#350e4f" d="m773 47-42 84 241 6z"/><path fill="#361050" d="m871 0-98 47 197 90-9-137h-91z"/><path fill="#340d4e" d="m760 0 13 47 98-47h-111z"/><path fill="#2d0947" d="m731 131-6 39h37z"/><path fill="#320d4c" d="m731 131-104 3 15 36h83z"/><path fill="#381152" d="m686 44 45 87 42-84-87-3z"/><path fill="#371151" d="m693 0-6.96 44 87 3l-13-47h-67z"/><path fill="#320b4c" d="m670 0 16 44 7-44h-23z"/><path fill="#371151" d="m686 44-59 90 104-3-45-87z"/><path fill="#310c4b" d="m627 134-50 36h65l-15-36z"/><path fill="#360f50" d="m560 0 126 44-16-44h-110z"/><path fill="#3a1454" d="m478 0 149 134 59-90l-125-44h-83z"/><path fill="#381252" d="m445 0 66 170h66l51-36-150-134h-33z"/><path fill="#330c4d" d="m402 0-94 170h103l13-170h-22z"/><path fill="#340e4e" d="m342 0-74 40 21 130h19l94-170h-60z"/><path fill="#350e4f" d="m424 0-13 170h100l-66-170h-21z"/><path fill="#30084a" d="m254 0 14 40 74-40h-88z"/><path fill="#2d0547" d="m201 0 67 40-14-40h-53z"/><path fill="#30094a" d="m268 40-158 59 134 71h45l-21-130z"/><path fill="#2a0444" d="m110 99 3 71h131l-134-71z"/><path fill="#320a4c" d="m103 0 6.98 99 158-59l-67-40h-98z"/><path fill="#290442" d="m110 99zl-62 71h65l-3-71z"/><path fill="#30094a" d="m64 0 46 99-7-99h-39z"/><path fill="#320a4c" d="m0 0v119l110-20-46-99h-64z"/><path fill="#2e0748" d="m110 99zl-110 20v51h48l62-71z"/></svg>
