<svg xmlns:rdf="http://www.w3.org/1999/02/22-rdf-syntax-ns#" xmlns="http://www.w3.org/2000/svg" height="170" width="1.6e3" version="1.1" xmlns:cc="http://creativecommons.org/ns#" xmlns:dc="http://purl.org/dc/elements/1.1/">
 <path d="m1.48e3 0 120 86v-86h-120z" fill="#3a1554"/>
 <path d="m1.39e3 139 21 31h189v-28z" fill="#2d0b47"/>
 <path fill="#320f4c" d="m1.45e3 0-62 139 210 3v-56l-120-86z"/>
 <path d="m1.39e3 139-37 31h58l-21-31z" fill="#22043d"/>
 <path fill="#2b0945" d="m1.45e3 0-132 116 70 23z"/>
 <path d="m1.27e3 0 50 116 130-116z" fill="#2d0b47"/>
 <path d="m1.32e3 116-22 54h55l37-31z" fill="#280642"/>
 <path fill="#300d4b" d="m1.19e3 0-10 82 90-82z"/>
 <path d="m1.18e3 82 50 88h68l22-54z" fill="#2a0744"/>
 <path fill="#2d0a47" d="m1.27e3 0-90 82 140 34z"/>
 <path fill="#270541" d="m1.18e3 82v88h50z"/>
 <path d="m1.03e3 0 150 82-40-82z" fill="#310c4b"/>
 <path fill="#2c0846" d="m1.18e3 82-208 55 39 33h169z"/>
 <path d="m1.14e3 0 40 82 10-82z" fill="#2f0b49"/>
 <path fill="#330e4d" d="m961 0 11 137 208-55-150-82z"/>
 <path fill="#2a0744" d="m951 170h60l-39-33z"/>
 <path fill="#300b4a" d="m731 131 31 39h189l21-33z"/>
 <path d="m773 47-42 84 241 6z" fill="#350e4f"/>
 <path fill="#361050" d="m871 0-98 47 199 90-11-137h-91z"/>
 <path d="m760 0 13 47 98-47h-111z" fill="#340d4e"/>
 <path d="m731 131-6 39h37z" fill="#2d0947"/>
 <path d="m731 131-104 3 15 36h83z" fill="#320d4c"/>
 <path d="m686 44 45 87 42-84-87-3z" fill="#381152"/>
 <path d="m693 0-6.96 44 87 3l-13-47h-67z" fill="#371151"/>
 <path d="m670 0 16 44 7-44h-23z" fill="#320b4c"/>
 <path d="m686 44-59 90 104-3-45-87z" fill="#371151"/>
 <path d="m627 134-50 36h65l-15-36z" fill="#310c4b"/>
 <path fill="#360f50" d="m561 0 125 44-16-44z"/>
 <path fill="#3a1454" d="m478 0 149 134 59-90-125-44z"/>
 <path fill="#381252" d="m445 0 66 170h66l50-36-149-134z"/>
 <path d="m402 0-94 170h103l13-170h-22z" fill="#330c4d"/>
 <path d="m342 0-74 40 21 130h19l94-170h-60z" fill="#340e4e"/>
 <path d="m424 0-13 170h100l-66-170h-21z" fill="#350e4f"/>
 <path d="m254 0 14 40 74-40h-88z" fill="#30084a"/>
 <path d="m201 0 67 40-14-40h-53z" fill="#2d0547"/>
 <path d="m268 40-158 59 134 71h45l-21-130z" fill="#30094a"/>
 <path d="m110 99 3 71h131l-134-71z" fill="#2a0444"/>
 <path d="m103 0 6.98 99 158-59l-67-40h-98z" fill="#320a4c"/>
 <path d="m110 99zl-62 71h65l-3-71z" fill="#290442"/>
 <path d="m64 0 46 99-7-99h-39z" fill="#30094a"/>
 <path d="m0 0v119l110-20-46-99h-64z" fill="#320a4c"/>
 <path d="m110 99zl-110 20v51h48l62-71z" fill="#2e0748"/>
</svg>
