<svg xmlns:rdf="http://www.w3.org/1999/02/22-rdf-syntax-ns#" xmlns="http://www.w3.org/2000/svg" height="170" width="1.6e3">
 <path d="m0 0v170h1.6e3v-170h-1.6e3z" fill="#320b4c"/>
 <path fill="#3a1554" d="m1.48e3 0 120 86v-86h-120z"/>
 <path fill="#2d0b47" d="m1.39e3 139 21.2 31h189v-27.4l-210-4z"/>
 <path fill="#320f4c" d="m1.45e3 0-60 139 210 3v-56l-120-86h-30.5z"/>
 <path fill="#22043d" d="m1.39e3 139-37.2 31h58.4l-21.2-31z"/>
 <path fill="#2b0945" d="m1.45e3 0-130 116 70 23 59.9-139h-0.172z"/>
 <path fill="#2c0a46" d="m1.35e3 0-77.8 9 50 107 130-116h-102z"/>
 <path fill="#280642" d="m1.27e3 0v9l77.8-9h-77.8z"/>
 <path fill="#280642" d="m1.32e3 116-22 54h54.8l37.2-31-70-23z"/>
 <path fill="#290643" d="m1.26e3 0 9.73 9v-9h-9.73z"/>
 <path fill="#2a0744" d="m1.18e3 82 50.4 88h67.6l22-54-140-34z"/>
 <path fill="#2d0a47" d="m1.27e3 9-90 73 140 34-50-107z"/>
 <path fill="#270541" d="m1.18e3 82v88h50.4l-50.4-88z"/>
 <path fill="#300d4b" d="m1.19e3 0-9.97 81.9 90-73l-10-8.9h-70z"/>
 <path fill="#2a0744" d="m971 137-2.63 33h42.9l-40.3-33z"/>
 <path fill="#310c4b" d="m1.03e3 0 150 81.9-40-81.9h-110z"/>
 <path fill="#2c0846" d="m1.18e3 82-209 55 40.3 33h169v-88z"/>
 <path fill="#2f0b49" d="m1.14e3 0 40 81.9 10-81.9h-50z"/>
 <path fill="#330e4d" d="m962 0 8.98 137 209-55l-150-82h-68z"/>
 <path fill="#2a0744" d="m971 137-20 33h17.4l2.63-33z"/>
 <path fill="#300b4a" d="m731 131 31.6 39h188l20-33-240-6z"/>
 <path fill="#350e4f" d="m773 47-42 84 240 6-198-90z"/>
 <path fill="#361050" d="m871 0-97.5 46.9 198 90l-10-137h-91z"/>
 <path fill="#340d4e" d="m760 0 13 46.9 98-46.9h-111z"/>
 <path fill="#2d0947" d="m731 131-6.69 39h38.3l-31.6-39z"/>
 <path fill="#320d4c" d="m731 131-104 3 14.7 36h82.6l6.69-39z"/>
 <path fill="#381152" d="m686 44 45 87 42-84-87-3z"/>
 <path fill="#371151" d="m693 0-6.96 43.9 87 3l-13-46.9h-67z"/>
 <path fill="#320b4c" d="m670 0 16 43.9 7-43.9h-23z"/>
 <path fill="#371151" d="m686 44-59 90 104-3-45-87z"/>
 <path fill="#310c4b" d="m627 134-50.3 36h65l-14.7-36z"/>
 <path fill="#360f50" d="m560 0 126 43.9-16-43.9h-110z"/>
 <path fill="#3a1454" d="m478 0 149 134 59-90l-125-44h-83z"/>
 <path fill="#381252" d="m445 0 65.7 170h65.6l50.7-36.2-150-134h-33z"/>
 <path fill="#330c4d" d="m402 0-94 170h103l13-170h-22z"/>
 <path fill="#340e4e" d="m342 0-74 39.9 21 130h19l94-170h-60z"/>
 <path fill="#350e4f" d="m424 0-12.9 170h99.7l-66-170h-21z"/>
 <path fill="#30084a" d="m254 0 14 39.9 74-39.9h-88z"/>
 <path fill="#2d0547" d="m201 0 67 39.9-14-39.9h-53z"/>
 <path fill="#30094a" d="m268 40-158 59 134 71h44.9l-20.8-130z"/>
 <path fill="#2a0444" d="m110 99 2.83 71h131l-134-71z"/>
 <path fill="#320a4c" d="m103 0 6.98 98.9 158-59l-67-39.9h-98z"/>
 <path fill="#290442" d="m110 99v0.0098l0.01-0.0098h-0.01zm0 0.0098l-61.8 71h64.8l-2.83-71z"/>
 <path fill="#30094a" d="m63.8 0 46.2 98.9-7-98.9h-39.2z"/>
 <path fill="#320a4c" d="m0.0996 0v119l110-20.2-46.2-98.8h-63.7z"/>
 <path fill="#2e0748" d="m110 99-0.0215 0.0234zm-0.0215 0.0234l-110 20 0.156 51h47.9l61.9-71z"/>
</svg>
