<?xml version="1.0" encoding="UTF-8" standalone="no"?>
<svg
   xmlns:dc="http://purl.org/dc/elements/1.1/"
   xmlns:cc="http://creativecommons.org/ns#"
   xmlns:rdf="http://www.w3.org/1999/02/22-rdf-syntax-ns#"
   xmlns:svg="http://www.w3.org/2000/svg"
   xmlns="http://www.w3.org/2000/svg"
   xmlns:sodipodi="http://sodipodi.sourceforge.net/DTD/sodipodi-0.dtd"
   xmlns:inkscape="http://www.inkscape.org/namespaces/inkscape"
   width="1920"
   height="300"
   id="svg2"
   version="1.1"
   inkscape:version="0.91 r13725"
   sodipodi:docname="pattern2.svg">
  <sodipodi:namedview
     pagecolor="#ffffff"
     bordercolor="#666666"
     borderopacity="1"
     objecttolerance="10"
     gridtolerance="10"
     guidetolerance="10"
     inkscape:pageopacity="0"
     inkscape:pageshadow="2"
     inkscape:window-width="1600"
     inkscape:window-height="819"
     id="namedview276"
     showgrid="false"
     inkscape:zoom="0.5347495"
     inkscape:cx="949.07149"
     inkscape:cy="172.05713"
     inkscape:window-x="0"
     inkscape:window-y="27"
     inkscape:window-maximized="1"
     inkscape:current-layer="svg2" />
  <metadata
     id="metadata280">
    <rdf:RDF>
      <cc:Work
         rdf:about="">
        <dc:format>image/svg+xml</dc:format>
        <dc:type
           rdf:resource="http://purl.org/dc/dcmitype/StillImage" />
        <dc:title />
      </cc:Work>
    </rdf:RDF>
  </metadata>
  <defs
     id="defs278" />
  <path
     id="path30"
     d="M 1920.25 250.92578 L 1899 284 L 1920.25 285.23633 L 1920.25 250.92578 z "
     style="fill:#320e4c;stroke:#320e4c;stroke-width:1.50999999" />
  <path
     id="path34"
     d="M 1899 284 L 1905.2949 300.1875 L 1920.25 300.1875 L 1920.25 285.23633 L 1899 284 z "
     style="fill:#361350;stroke:#361350;stroke-width:1.50999999" />
  <path
     id="path36"
     d="M 1846.8262 -0.25 L 1839 12 L 1876 66 L 1898.084 -0.25 L 1846.8262 -0.25 z "
     style="fill:#3f1859;stroke:#3f1859;stroke-width:1.50999999" />
  <path
     id="path38"
     d="M 1898.084 -0.25 L 1876 66 L 1920.25 73.525391 L 1920.25 -0.25 L 1898.084 -0.25 z "
     style="fill:#3f1859;stroke:#3f1859;stroke-width:1.50999999" />
  <path
     id="path40"
     d="M 1876 66 L 1899 284 L 1920.25 250.92578 L 1920.25 73.525391 L 1876 66 z "
     style="fill:#3b1555;stroke:#3b1555;stroke-width:1.50999999" />
  <path
     id="path44"
     d="M 1899 284 L 1888.4375 300.1875 L 1905.2949 300.1875 L 1899 284 z "
     style="fill:#421d5c;stroke:#421d5c;stroke-width:1.50999999" />
  <path
     id="path46"
     d="M 1840.3379 -0.25 L 1839 12 L 1846.8262 -0.25 L 1840.3379 -0.25 z "
     style="fill:#381152;stroke:#381152;stroke-width:1.50999999" />
  <path
     id="path48"
     d="M 1876 66 L 1706 122 L 1899 284 L 1876 66 z "
     style="fill:#3f1859;stroke:#3f1859;stroke-width:1.50999999" />
  <path
     id="path52"
     d="M 1772.2168 -0.25 L 1839 12 L 1840.3379 -0.25 L 1772.2168 -0.25 z "
     style="fill:#3f1959;stroke:#3f1959;stroke-width:1.50999999" />
  <path
     id="path54"
     d="M 1899 284 L 1842.1641 300.1875 L 1888.4375 300.1875 L 1899 284 z "
     style="fill:#401c5a;stroke:#401c5a;stroke-width:1.50999999" />
  <path
     id="path56"
     d="M 1706 122 L 1736.1289 300.1875 L 1842.1641 300.1875 L 1899 284 L 1706 122 z "
     style="fill:#3a1654;stroke:#3a1654;stroke-width:1.50999999" />
  <path
     id="path58"
     d="M 1706 122 L 1681 144 L 1731.6562 300.1875 L 1736.1289 300.1875 L 1706 122 z "
     style="fill:#381452;stroke:#381452;stroke-width:1.50999999" />
  <path
     id="path62"
     d="M 1839 12 L 1706 122 L 1876 66 L 1839 12 z "
     style="fill:#431c5d;stroke:#431c5d;stroke-width:1.50999999" />
  <path
     id="path68"
     d="M 1674.7871 -0.25 L 1706 122 L 1839 12 L 1772.2168 -0.25 L 1674.7871 -0.25 z "
     style="fill:#421c5c;stroke:#421c5c;stroke-width:1.50999999" />
  <path
     id="path72"
     d="M 1681 144 L 1563.4727 300.1875 L 1693.4395 300.1875 L 1681 144 z "
     style="fill:#2d0d47;stroke:#2d0d47;stroke-width:1.50999999" />
  <path
     id="path74"
     d="M 1681 144 L 1693.4395 300.1875 L 1731.6562 300.1875 L 1681 144 z "
     style="fill:#32114c;stroke:#32114c;stroke-width:1.50999999" />
  <path
     id="path78"
     d="M 1671.2656 -0.25 L 1681 144 L 1706 122 L 1674.7871 -0.25 L 1671.2656 -0.25 z "
     style="fill:#3d1857;stroke:#3d1857;stroke-width:1.50999999" />
  <path
     id="path80"
     d="M 1480.1465 -0.25 L 1681 144 L 1671.2656 -0.25 L 1480.1465 -0.25 z "
     style="fill:#3a1554;stroke:#3a1554;stroke-width:1.50999999" />
  <path
     id="path82"
     d="M 1394 139 L 1499.123 300.1875 L 1563.4727 300.1875 L 1681 144 L 1394 139 z "
     style="fill:#2d0b47;stroke:#2d0b47;stroke-width:1.50999999" />
  <path
     id="path84"
     d="M 1454.9785 -0.25 L 1394 139 L 1681 144 L 1480.1465 -0.25 L 1454.9785 -0.25 z "
     style="fill:#320f4c;stroke:#320f4c;stroke-width:1.50999999" />
  <path
     id="path96"
     d="M 1394 139 L 1269 239 L 1417.6797 300.1875 L 1499.123 300.1875 L 1394 139 z "
     style="fill:#22043d;stroke:#22043d;stroke-width:1.50999999" />
  <path
     id="path100"
     d="M 1269 239 L 1302.9922 300.1875 L 1417.6797 300.1875 L 1269 239 z "
     style="fill:#2b0b45;stroke:#2b0b45;stroke-width:1.50999999" />
  <path
     id="path102"
     d="M 1446.4043 -0.25 L 1323 116 L 1394 139 L 1454.9785 -0.25 L 1446.4043 -0.25 z "
     style="fill:#2b0945;stroke:#2b0945;stroke-width:1.50999999" />
  <path
     id="path104"
     d="M 1345.0215 -0.25 L 1267 9 L 1323 116 L 1446.4043 -0.25 L 1345.0215 -0.25 z "
     style="fill:#2c0a46;stroke:#2c0a46;stroke-width:1.50999999" />
  <path
     id="path106"
     d="M 1269.4531 -0.25 L 1267 9 L 1345.0215 -0.25 L 1269.4531 -0.25 z "
     style="fill:#280642;stroke:#280642;stroke-width:1.50999999" />
  <path
     id="path112"
     d="M 1323 116 L 1269 239 L 1394 139 L 1323 116 z "
     style="fill:#280642;stroke:#280642;stroke-width:1.50999999" />
  <path
     id="path116"
     d="M 1269 239 L 1190.5762 300.1875 L 1302.9922 300.1875 L 1269 239 z "
     style="fill:#2a0a44;stroke:#2a0a44;stroke-width:1.50999999" />
  <path
     id="path122"
     d="M 1255.3574 -0.25 L 1267 9 L 1269.4531 -0.25 L 1255.3574 -0.25 z "
     style="fill:#290643;stroke:#290643;stroke-width:1.50999999" />
  <path
     id="path124"
     d="M 1180 82 L 1269 239 L 1323 116 L 1180 82 z "
     style="fill:#2a0744;stroke:#2a0744;stroke-width:1.50999999" />
  <path
     id="path126"
     d="M 1267 9 L 1180 82 L 1323 116 L 1267 9 z "
     style="fill:#2d0a47;stroke:#2d0a47;stroke-width:1.50999999" />
  <path
     id="path130"
     d="M 1180 82 L 1178.0859 300.1875 L 1190.5762 300.1875 L 1269 239 L 1180 82 z "
     style="fill:#270541;stroke:#270541;stroke-width:1.50999999" />
  <path
     id="path132"
     d="M 1188.791 -0.25 L 1180 82 L 1267 9 L 1255.3574 -0.25 L 1188.791 -0.25 z "
     style="fill:#300d4b;stroke:#300d4b;stroke-width:1.50999999" />
  <path
     id="path138"
     d="M 971 137 L 957.87891 300.1875 L 1166.2598 300.1875 L 971 137 z "
     style="fill:#270642;stroke:#270642;stroke-width:1.50999999" />
  <path
     id="path140"
     d="M 1034.582 -0.25 L 1180 82 L 1143.1914 -0.25 L 1034.582 -0.25 z "
     style="fill:#310c4b;stroke:#310c4b;stroke-width:1.50999999" />
  <path
     id="path142"
     d="M 1180 82 L 971 137 L 1166.2598 300.1875 L 1178.0859 300.1875 L 1180 82 z "
     style="fill:#2c0846;stroke:#2c0846;stroke-width:1.50999999" />
  <path
     id="path144"
     d="M 1143.1914 -0.25 L 1180 82 L 1188.791 -0.25 L 1143.1914 -0.25 z "
     style="fill:#2f0b49;stroke:#2f0b49;stroke-width:1.50999999" />
  <path
     id="path146"
     d="M 961.84961 -0.25 L 971 137 L 1180 82 L 1034.582 -0.25 L 961.84961 -0.25 z "
     style="fill:#330e4d;stroke:#330e4d;stroke-width:1.50999999" />
  <path
     id="path152"
     d="M 971 137 L 871.71094 300.1875 L 957.87891 300.1875 L 971 137 z "
     style="fill:#2a0744;stroke:#2a0744;stroke-width:1.50999999" />
  <path
     id="path162"
     d="M 731 131 L 867.72656 300.1875 L 871.71094 300.1875 L 971 137 L 731 131 z "
     style="fill:#300b4a;stroke:#300b4a;stroke-width:1.50999999" />
  <path
     id="path164"
     d="M 773 47 L 731 131 L 971 137 L 773 47 z "
     style="fill:#350e4f;stroke:#350e4f;stroke-width:1.50999999" />
  <path
     id="path166"
     d="M 870.65039 -0.25 L 773 47 L 971 137 L 961.84961 -0.25 L 870.65039 -0.25 z "
     style="fill:#361050;stroke:#361050;stroke-width:1.50999999" />
  <path
     id="path168"
     d="M 759.98828 -0.25 L 773 47 L 870.65039 -0.25 L 759.98828 -0.25 z "
     style="fill:#340d4e;stroke:#340d4e;stroke-width:1.50999999" />
  <path
     id="path174"
     d="M 731 131 L 702.18164 300.1875 L 867.72656 300.1875 L 731 131 z "
     style="fill:#2d0947;stroke:#2d0947;stroke-width:1.50999999" />
  <path
     id="path176"
     d="M 731 131 L 627 134 L 694.77539 300.1875 L 702.18164 300.1875 L 731 131 z "
     style="fill:#320d4c;stroke:#320d4c;stroke-width:1.50999999" />
  <path
     id="path178"
     d="M 686 44 L 731 131 L 773 47 L 686 44 z "
     style="fill:#381152;stroke:#381152;stroke-width:1.50999999" />
  <path
     id="path180"
     d="M 692.50781 -0.25 L 686 44 L 773 47 L 759.98828 -0.25 L 692.50781 -0.25 z "
     style="fill:#371151;stroke:#371151;stroke-width:1.50999999" />
  <path
     id="path182"
     d="M 670.02148 -0.25 L 686 44 L 692.50781 -0.25 L 670.02148 -0.25 z "
     style="fill:#320b4c;stroke:#320b4c;stroke-width:1.50999999" />
  <path
     id="path186"
     d="M 686 44 L 627 134 L 731 131 L 686 44 z "
     style="fill:#371151;stroke:#371151;stroke-width:1.50999999" />
  <path
     id="path188"
     d="M 627 134 L 525 207 L 678.84766 300.1875 L 694.77539 300.1875 L 627 134 z "
     style="fill:#310c4b;stroke:#310c4b;stroke-width:1.50999999" />
  <path
     id="path192"
     d="M 558.6582 -0.25 L 686 44 L 670.02148 -0.25 L 558.6582 -0.25 z "
     style="fill:#360f50;stroke:#360f50;stroke-width:1.50999999" />
  <path
     id="path194"
     d="M 525 207 L 585.13477 300.1875 L 678.84766 300.1875 L 525 207 z "
     style="fill:#310e4b;stroke:#310e4b;stroke-width:1.50999999" />
  <path
     id="path196"
     d="M 525 207 L 470.3418 300.1875 L 585.13477 300.1875 L 525 207 z "
     style="fill:#381452;stroke:#381452;stroke-width:1.50999999" />
  <path
     id="path198"
     d="M 477.83398 -0.25 L 627 134 L 686 44 L 558.6582 -0.25 L 477.83398 -0.25 z "
     style="fill:#3a1454;stroke:#3a1454;stroke-width:1.50999999" />
  <path
     id="path200"
     d="M 525 207 L 405 250 L 404.39258 300.1875 L 470.3418 300.1875 L 525 207 z "
     style="fill:#2b0845;stroke:#2b0845;stroke-width:1.50999999" />
  <path
     id="path202"
     d="M 444.7207 -0.25 L 525 207 L 627 134 L 477.83398 -0.25 L 444.7207 -0.25 z "
     style="fill:#381252;stroke:#381252;stroke-width:1.50999999" />
  <path
     id="path208"
     d="M 401.66797 -0.25 L 293 196 L 405 250 L 423.59961 -0.25 L 401.66797 -0.25 z "
     style="fill:#330c4d;stroke:#330c4d;stroke-width:1.50999999" />
  <path
     id="path210"
     d="M 342.41602 -0.25 L 268 40 L 293 196 L 401.66797 -0.25 L 342.41602 -0.25 z "
     style="fill:#340e4e;stroke:#340e4e;stroke-width:1.50999999" />
  <path
     id="path212"
     d="M 423.59961 -0.25 L 405 250 L 525 207 L 444.7207 -0.25 L 423.59961 -0.25 z "
     style="fill:#350e4f;stroke:#350e4f;stroke-width:1.50999999" />
  <path
     id="path214"
     d="M 405 250 L 341.26172 300.1875 L 404.39258 300.1875 L 405 250 z "
     style="fill:#320d4b;stroke:#320d4b;stroke-width:1.50999999" />
  <path
     id="path218"
     d="M 254.40234 -0.25 L 268 40 L 342.41602 -0.25 L 254.40234 -0.25 z "
     style="fill:#30084a;stroke:#30084a;stroke-width:1.50999999" />
  <path
     id="path222"
     d="M 293 196 L 282.85156 300.1875 L 341.26172 300.1875 L 405 250 L 293 196 z "
     style="fill:#290643;stroke:#290643;stroke-width:1.50999999" />
  <path
     id="path228"
     d="M 200.25195 -0.25 L 268 40 L 254.40234 -0.25 L 200.25195 -0.25 z "
     style="fill:#2d0547;stroke:#2d0547;stroke-width:1.50999999" />
  <path
     id="path232"
     d="M 268 40 L 110 99 L 293 196 L 268 40 z "
     style="fill:#30094a;stroke:#30094a;stroke-width:1.50999999" />
  <path
     id="path234"
     d="M 293 196 L 156.69531 300.1875 L 282.85156 300.1875 L 293 196 z "
     style="fill:#260440;stroke:#260440;stroke-width:1.50999999" />
  <path
     id="path236"
     d="M 110 99 L 117.87305 300.1875 L 156.69531 300.1875 L 293 196 L 110 99 z "
     style="fill:#2a0444;stroke:#2a0444;stroke-width:1.50999999" />
  <path
     id="path238"
     d="M 102.55664 -0.25 L 110 99 L 268 40 L 200.25195 -0.25 L 102.55664 -0.25 z "
     style="fill:#320a4c;stroke:#320a4c;stroke-width:1.50999999" />
  <path
     id="path240"
     d="M 110 99 L -0.109375 225.09375 L -0.109375 250.19141 L 75.453125 300.1875 L 117.87305 300.1875 L 110 99 z "
     style="fill:#290442;stroke:#290442;stroke-width:1.50999999" />
  <path
     id="path250"
     d="M 63.458984 -0.25 L 110 99 L 102.55664 -0.25 L 63.458984 -0.25 z "
     style="fill:#30094a;stroke:#30094a;stroke-width:1.50999999" />
  <path
     id="path252"
     d="M -0.109375 -0.25 L -0.109375 118.60156 L 110 99 L 63.458984 -0.25 L -0.109375 -0.25 z "
     style="fill:#320a4c;stroke:#320a4c;stroke-width:1.50999999" />
  <path
     id="path254"
     d="M 110 99 L -0.109375 118.60156 L -0.109375 225.09375 L 110 99 z "
     style="fill:#2e0748;stroke:#2e0748;stroke-width:1.50999999" />
  <path
     id="path256"
     d="M -0.109375 250.19141 L -0.109375 300.1875 L 75.453125 300.1875 L -0.109375 250.19141 z "
     style="fill:#2e0948;stroke:#2e0948;stroke-width:1.50999999" />
</svg>
