<svg xmlns:rdf="http://www.w3.org/1999/02/22-rdf-syntax-ns#" xmlns="http://www.w3.org/2000/svg" width="412" height="238" viewBox="0 0 412 238">
 <g stroke="#fff" fill="#320b4c">
  <path id="vary" d="m70 70c-4-1.5-9.3-3.4-13.7-4.9-4.3-1.5-7.8-2.6-12.3-4.1l-17 6-11 12.7-9.37-7.4-5.59 0.453-0.453 9.82 7.85 6.8 2.87 13.4 13.6 10.3 44.2-8.77 4-10z"/>
  <path id="usti" d="m70 70c-8-3-4.7-1.8-13.7-4.9l-0.8-8.5 11-2 2-6.49h6l4.46-6.34 4.44 2 3.75-7.42 16-1.54 3.39-4.79 18.4-6.04 9-6-6-5.35 3-12 7.69 5h8.39l6 10v5l-10 4-6 14 7.72 15.6-7 15-14 1-15 7-12 3-16 15-8-1z"/>
  <path id="liberec" d="m195 50 9 4v-6l10 3-7-24-16-9 1-8-10-6-14 3 3 9-11 6-4 1 2-6-5-2v5l-10 4-6 14 8.07 16.3 13 3 14-14 11 7z"/>
  <path id="hradec" d="m195 50 9 4v-6l10 3-7-24 9 4 5-3 7 6 15 4 6-3 13 9-13 16 8 3 14 18-13 13h-10l-13-10-30 5-7-4 2-7-2-6-14-5-1-17z"/>
  <path id="stredni-cechy" d="m172 43.4-14 14l-13-3-7 15-14 1-15 7-12 3-16 15 26.7 14.7-2 15-7 6 4 16 16 2.02 17-7.02 23 4.3 4-9 9.74 3.7 6-4 10 2 5-4-4-6 3-7 12-3 4.26-5.7v-11l-8-6 4-7-7-4 2-7-2-6-14-5-1-17zm-24 40.7l12 9-4 9-4-2-11 7-4-1 1-4-6-4-0-6 4-3 3 1v-3z"/>
  <path id="praha" d="m148 84 13 9-5 9-4-2-11 7-4-1 1-4-6-4-0-6 4-3 3 1v-3z"/>
  <path id="plzen" d="m108 110-2 15-7 6 4 16 4 15-15.9 36.3v7l-8.36-5.02-3.4-11.5-11.6-2-13-19.5-11-0-16.4-29.5-8.55-9.37 6.22-4.44 1.72-10.9 42.9-8.45 4-10 8 1z"/>
  <path id="budejovice" d="m136 142-17 7-16-2 4 15-15.9 36.3v7l11 4.66 17.1 15.6 3.08 10 19.7 2.22 7.8-5.37 15.2 3.29 7.27-18.8 10-0.827-0.481-19 5.06-1.36 2.59 5.72 11.7-4.02 13.5 5.59 2.55-5.84-4-4 3-12-14-2v-5l-16-7-7 1-5-6 2-9-3-12-10.1-3.85-4 9z"/>
  <path id="zlin" d="m354 135-13 17-14-2 2 10-17 1 3 11-5 9 26 9 7.68 9.17 11.1-5.03 3.12-8.84 8.52-2.31 4.91-23.3 10.2-4.77 5.46-7.91-15-12z"/>
  <path id="ostrava" d="m354 135-14-18-26-6-6-9 2-21 9-8v-6l12-2 3-5 5 2 2 12-4 6 12 12 3-8h6l5 5 22 6 3-3 5 6-1 7 4 8h8l3 7 3 1 1 11-7 5-11-1-6 11-15-12z"/>
  <path id="jihlava" d="m217 197 10-1 12.4-10.7 11 2.25 6.75-4-0-22 5.06-6 0.74-19.6-26-13.6-1 5-6-1-1-5-20-8-4.4 5.6-12 3-3 7 4 6-5 4-10-2-6 4 3 12-2 9 5 6 7-1 16 7v5l14 2-3 12z"/>
  <path id="brno" d="m312 161 3 11-5 9 26 9 7 9-9 6-23-2-11 26-8-12.8-22-5.78-5.43 6-22-1.36-12.9-9.52-7 2-9-4 2.62-6 10-1.31 12.4-11 11 2 6.75-4.31-0-22 5-5.84 1-19 10-2 1-4 9-1 6 5-5 2 6 17 4-2-1-8z"/>
  <path id="olomouc" d="m312 161 17-1-2-10 14 2 13-17-14-18-26-6-6-9 2-21 9-8v-6l-5.51-6-6 1-2-5-19-5-5 7 9 13-4 21.5-4.61 1.42 1.76 20.5 6 7-1 12-5 2 6 16 4-1-1-9z"/>
  <path id="pardubice" d="m273 134 1-4 9-1 6 5l1-12-6-6-2-20 4-1 4-22-17 15-2-7-13 13h-10l-13-10-30 5-4 7 8 6v11l20 9 1 5 6 1 1-5 26 14z"/>
 </g>
</svg>
