<svg xmlns="http://www.w3.org/2000/svg" width="412" height="238" fill="#320b4c" stroke="#fff" stroke-miterlimit="0">
  <path d="m70 70-14-5-12-4-17 6-11 13-9-8-5 1-1 10l8 7 3 13 14 10 44-8 4-11z"/>
  <path d="m70 70-14-5-1-9 11-2 2-7h6l5-5 5 1 4-6 16-2 3-5 19-6 9-6-6-5 3-12 8 5h8l5 9v5l-10 4-6 14 8 16-7 15-14 1-15 7-12 3-15 15-8-1z"/>
  <path d="m195 50 9 4v-6l10 3-7-24-16-9 1-8-10-6-14 3 3 9-11 6-4 1 2-6-5-2v5l-10 4-6 14 8 16 13 3 14-14 11 7z"/>
  <path d="m195 50 9 4v-6l10 3-7-24 9 4 5-3 7 6 15 4 6-3 13 9-13 16 8 3 14 18-13 13h-10l-13-10-30 5-7-4 2-7-2-6-14-5-1-17z"/>
  <path d="m172 43-14 14-13-3-7 15-14 1-15 7-12 3-15 15 26 15-2 15-7 6 4 16 16 2 17-7 23 4 4-9 10 4 5-4 10 2 5-4-4-6 4-7 11-3 5-6v-11l-8-6 4-7-7-4 2-7-2-6-14-5-1-17zm-24 41 13 9-5 9-4-2-11 7-4-1 1-4-6-4v-6l4-3 3 1v-3z"/>
  <path d="m148 84 13 9-5 9-4-2-11 7-4-1 1-4-6-4v-6l4-3 3 1v-3z"/>
  <path d="m108 110-2 15-7 6 4 16 4 15-16 36v7l-8-5-4-11-11-2-13-20h-11l-17-29-8-9 6-5 1-11 44-8 4-11 8 1z"/>
  <path d="m354 135-13 17-14-2 2 10-17 1 3 11-5 9 26 9 7 9 12-5 3-9 8-2 5-23 10-5 6-8-15-12z"/>
  <path d="m354 135-14-18-26-6-6-9 2-21 9-8v-6l12-2 3-5 5 2 2 12-4 6 12 12 3-8h6l5 5 22 6 3-3 5 6-1 7 4 8h8l3 7 3 1 1 11-7 5-11-1-6 11-15-12z"/>
  <path d="m216 197 11-1 12-11 11 2 7-4v-22l5-6 1-18-26-14-1 5-6-1-1-5-20-9-5 6-11 3-4 7 4 6-5 4-10-2-5 4 2 12-2 9 5 6 7-1 16 7v5l14 2-3 12z"/>
  <path d="m136 142-17 7-16-2 4 15-16 36v7l11 5 17 16 3 10 20 2 8-5 15 3 7-19 10-1v-19l5-1 2 5 12-4 13 6 2-6-4-4 3-12-14-2v-5l-16-7-7 1-5-6 2-9-2-12-10-4-4 9z"/>
  <path d="m312 161 3 11-5 9 26 9 7 9-9 6-23-2-11 26-8-13-22-6-5 6-22-1-13-9-7 1-9-4 2-6 11-1 12-11 11 2 7-4v-22l5-6 1-18 10-3 1-4 9-1 6 5-6 2 6 17 4-2-1-8z"/>
  <path d="m312 161 17-1-2-10 14 2 13-17-14-18-26-6-6-9 2-21 9-8v-6l-5-6-7 1-2-5-18-5-6 7 9 14-4 22-4 1 2 20 6 6-1 12-6 2 6 17 4-2-1-8z"/>
  <path d="m273 134 1-4 9-1 6 5l1-12-6-6-2-20 4-1 4-22-17 15-2-7-13 13h-10l-13-10-30 5-4 7 8 6v11l20 9 1 5 6 1 1-5 26 14z"/>
</svg>
