<?xml version="1.0" encoding="UTF-8" standalone="no"?>
<svg
   xmlns:dc="http://purl.org/dc/elements/1.1/"
   xmlns:cc="http://creativecommons.org/ns#"
   xmlns:rdf="http://www.w3.org/1999/02/22-rdf-syntax-ns#"
   xmlns:svg="http://www.w3.org/2000/svg"
   xmlns="http://www.w3.org/2000/svg"
   xmlns:sodipodi="http://sodipodi.sourceforge.net/DTD/sodipodi-0.dtd"
   xmlns:inkscape="http://www.inkscape.org/namespaces/inkscape"
   height="223"
   width="198"
   version="1.1"
   viewBox="0 0 198 222.99999"
   id="svg2"
   inkscape:version="0.91 r13725"
   sodipodi:docname="nelen.svg">
  <metadata
     id="metadata58">
    <rdf:RDF>
      <cc:Work
         rdf:about="">
        <dc:format>image/svg+xml</dc:format>
        <dc:type
           rdf:resource="http://purl.org/dc/dcmitype/StillImage" />
      </cc:Work>
    </rdf:RDF>
  </metadata>
  <defs
     id="defs56" />
  <sodipodi:namedview
     pagecolor="#ffffff"
     bordercolor="#666666"
     borderopacity="1"
     objecttolerance="10"
     gridtolerance="10"
     guidetolerance="10"
     inkscape:pageopacity="0"
     inkscape:pageshadow="2"
     inkscape:window-width="1600"
     inkscape:window-height="819"
     id="namedview54"
     showgrid="false"
     inkscape:zoom="1.058296"
     inkscape:cx="99"
     inkscape:cy="110.08263"
     inkscape:window-x="0"
     inkscape:window-y="27"
     inkscape:window-maximized="1"
     inkscape:current-layer="g4" />
  <g
     fill="#fff"
     id="g4">
    <rect
       height="23"
       width="23"
       y="75"
       x="0"
       id="rect6"
       style="fill:#ff00ff" />
    <rect
       height="23"
       width="23"
       y="50"
       x="0"
       id="rect8"
       style="fill:#ff00ff" />
    <rect
       height="23"
       width="23"
       y="25"
       x="0"
       id="rect10"
       style="fill:#ff00ff" />
    <rect
       height="23"
       width="23"
       y=".0000360"
       x="0"
       id="rect12"
       style="fill:#ff00ff" />
    <rect
       height="23"
       width="23"
       y=".0000360"
       x="25"
       id="rect14"
       style="fill:#ff00ff" />
    <rect
       height="23"
       width="23"
       y="25"
       x="50"
       id="rect16"
       style="fill:#ff00ff" />
    <path
       d="m50-0.00000763 23 23h-23z"
       id="path18"
       style="fill:#ff00ff" />
    <rect
       height="23"
       width="23"
       y="50"
       x="50"
       id="rect20"
       style="fill:#ff00ff" />
    <rect
       height="23"
       width="23"
       y="75"
       x="50"
       id="rect22"
       style="fill:#ff00ff" />
    <path
       d="m87 75h23v23z"
       id="path24"
       style="fill:#ff00ff" />
    <rect
       height="23"
       width="23"
       y="50"
       x="87"
       id="rect26"
       style="fill:#ff00ff" />
    <rect
       height="23"
       width="23"
       y="25"
       x="87"
       id="rect28"
       style="fill:#ff00ff" />
    <path
       d="m110-0.00000763v23h-23z"
       id="path30"
       style="fill:#ff00ff" />
    <rect
       height="23"
       width="23"
       y=".0000360"
       x="112"
       id="rect32"
       style="fill:#ff00ff" />
    <rect
       height="23"
       width="23"
       y="25"
       x="137"
       id="rect34"
       style="fill:#ff00ff" />
    <path
       d="m137-0.00000763 23 23h-23z"
       id="path36"
       style="fill:#ff00ff" />
    <path
       d="m137 75h23l-23 23z"
       id="path38"
       style="fill:#ff00ff" />
    <rect
       height="23"
       width="23"
       y="75"
       x="112"
       id="rect40"
       style="fill:#ff00ff" />
    <rect
       height="23"
       width="23"
       y="25"
       x="112"
       id="rect42"
       style="fill:#ff00ff" />
    <path
       d="m174-0.00000763h24v49l-24 24z"
       id="path44"
       style="fill:#ff00ff" />
    <path
       d="m198 74v24h-24z"
       id="path46"
       style="fill:#ff00ff" />
    <path
       d="m 0,124 24,0 0,99 -24,-23.76 z"
       id="path48"
       style="fill:#ff00ff"
       inkscape:connector-curvature="0" />
    <path
       d="m124 124v99h24v-75h26v75h24v-75l-24-24z"
       id="path50"
       style="fill:#ff00ff" />
    <path
       d="m61 124-24 24v51l24 24h26l24-24h-50v-26h50v-25l-24-24zm0 23h26v2h-26z"
       id="path52"
       style="fill:#ff00ff" />
  </g>
</svg>
