<svg xmlns:rdf="http://www.w3.org/1999/02/22-rdf-syntax-ns#" xmlns="http://www.w3.org/2000/svg" height="224" width="198" version="1.1" xmlns:cc="http://creativecommons.org/ns#" xmlns:dc="http://purl.org/dc/elements/1.1/" viewBox="0 0 198 223.99999">
 <g fill="#fff">
  <rect height="23" width="23" y="75.5" x="0"/>
  <rect height="23" width="23" y="50.5" x="0"/>
  <rect height="23" width="23" y="25.5" x="0"/>
  <rect height="23" width="23" y="0.5" x="0"/>
  <rect height="23" width="23" y="0.5" x="25"/>
  <rect height="23" width="23" y="25.5" x="50"/>
  <path d="m50 0.5 23 23h-23z"/>
  <rect height="23" width="23" y="50.5" x="50"/>
  <rect height="23" width="23" y="75.5" x="50"/>
  <path d="m87 75.5h23v23z"/>
  <rect height="23" width="23" y="50.5" x="87"/>
  <rect height="23" width="23" y="25.5" x="87"/>
  <path d="m110 0.5v23h-23z"/>
  <rect height="23" width="23" y="0.5" x="112"/>
  <rect height="23" width="23" y="25.5" x="137"/>
  <path d="m137 0.5 23 23h-23z"/>
  <path d="m137 75.5h23l-23 23z"/>
  <rect height="23" width="23" y="75.5" x="112"/>
  <rect height="23" width="23" y="25.5" x="112"/>
 </g>
 <g stroke="#fff" stroke-linecap="square" fill="none">
  <path d="m176 1.5h21v46.3l-21 21.3z" stroke-width="3"/>
  <path d="m197 78.5v18.6h-18.6z" stroke-width="3.17"/>
  <g stroke-width="3">
   <path d="m2 126h20v91.8l-20-22z"/>
   <path d="m126 126v96h22.7v-72.7h24.6v72.7h22.7v-72.7l-22.7-23.3z"/>
   <path d="m60.8 125-21.8 23.3v49.5l21.8 23.3h23.6l21.8-23.3h-45.5v-25.2h45.5v-24.2l-21.8-23.3zm0 22.3h23.6v1.94h-23.6z"/>
  </g>
 </g>
</svg>
