<?xml version="1.0" encoding="UTF-8" standalone="no"?>
<svg id="svg2" xmlns:rdf="http://www.w3.org/1999/02/22-rdf-syntax-ns#" xmlns="http://www.w3.org/2000/svg" height="100%" width="35" version="1.1" xmlns:cc="http://creativecommons.org/ns#" xmlns:dc="http://purl.org/dc/elements/1.1/" viewBox="0 0 100 20">
 <metadata id="metadata10">
  <rdf:RDF>
   <cc:Work rdf:about="">
    <dc:format>image/svg+xml</dc:format>
    <dc:type rdf:resource="http://purl.org/dc/dcmitype/StillImage"/>
    <dc:title/>
   </cc:Work>
  </rdf:RDF>
 </metadata>
 <path id="path4" d="M5.2188,6.5c-1.7301,0.4991-3.2238,0.6875-5.2188,0.6875v0.7187c2.835,0,4.6412-0.3912,7.4062-1.4062h-2.1874zm12.281,0.6875c-3.72,0-5.882,0.5175-9.3125,1.8125-2.8378,0.9691-5.0603,1.688-8.1875,1.688v0.718c3.2784,0,5.8894-0.742,8.5-1.7185,3.325-1.2737,5.36-1.8125,9-1.8125v-0.6875zm0,3.5005c-3.72,0-5.882,0.517-9.3125,1.812-0.9877,0.394-2.0883,0.686-3,1h2.4375c0.3429-0.154,0.7416-0.245,1.0938-0.375h-0.2188c3.325-1.273,5.36-1.719,9-1.719v-0.718z" transform="matrix(2.8571429,0,0,2.8571429,0,-18.571429)"/>
</svg>
