<svg height="100%" width="35" viewBox="0 0 100 20"><path d="M24.1,18.9c9.5-3.637,15.5-4.937,25.9-4.937,10.3,0,15.4,1.2,24.6,4.9,0,0,2.8,1.1,2.8,1.1h6.2c-2.5-0.73-5.1-1.7-8.2-2.9-9.5-3.8-14.8-5.1-25.4-5.1s-16.9,1.4-26.7,5.1l-1.8,0.7c-2.5,0.9-4.7,1.7-6.7,2.3h6.3c0.97962-0.43992,1.994-0.79023,3-1.163zm-2.9-18.937c-7.9,2.9-13.1,4-21.2,4v-2c5.7,0,10-0.574,14.9-2zm56.2,0c7.8,3,13.1,4,22.6,4v-2c-6.8,0-11.4-0.542-16.4-2zm-77.4,14c8.4,0,13.7-1.2,22.3-4.4l1.8-0.661c9.5-3.639,15.5-4.939,25.9-4.939,10.3,0,15.4,1.2,24.6,4.9,9.5,3.8,14.8,5.1,25.4,5.1v-2c-10.3,0-15.4-1.2-24.6-4.9-9.5-3.8-14.8-5.1-25.4-5.1s-16.9,1.4-26.7,5.1l-1.767,0.662c-8.333,3.038-13.333,4.238-21.533,4.238z" fill-rule="evenodd" fill="#c4c0c9"/>
</svg>
