<?xml version="1.0" encoding="UTF-8" standalone="no"?>
<svg id="svg2" xmlns:rdf="http://www.w3.org/1999/02/22-rdf-syntax-ns#" xmlns="http://www.w3.org/2000/svg" height="100%" viewBox="0 0 100 20" width="35" version="1.1" xmlns:cc="http://creativecommons.org/ns#" xmlns:dc="http://purl.org/dc/elements/1.1/">
 <metadata id="metadata10">
  <rdf:RDF>
   <cc:Work rdf:about="">
    <dc:format>image/svg+xml</dc:format>
    <dc:type rdf:resource="http://purl.org/dc/dcmitype/StillImage"/>
    <dc:title/>
   </cc:Work>
  </rdf:RDF>
 </metadata>
 <path id="path4" d="M24.286,18.857c9.5-3.637,15.314-4.857,25.714-4.857,10.3,0,15.371,1.157,24.571,4.857,0.04,0.037,2.829,1.143,2.829,1.143h6.2c-2.5-0.73-5.071-1.657-8.171-2.857-9.5-3.8-14.829-5.143-25.429-5.143s-16.771,1.443-26.571,5.143c-2.822,1.126-5.967,2.002-8.572,2.857h6.2857c0.97962-0.43992,2.1369-0.77009,3.1429-1.1429zm-3.143-18.857c-7.9,2.9-13.043,4-21.143,4v-2c5.7,0,9.9571-0.574,14.857-2zm56,0c7.8,3,13.357,4,22.857,4v-2c-6.8,0-11.571-0.542-16.571-2zm-77.143,14c9.3668,0,16.827-2.111,24.286-4.8571,9.5-3.639,15.314-5.1429,25.714-5.1429,10.3,0,15.371,1.4429,24.571,5.1429,9.5,3.8001,14.829,4.8571,25.429,4.8571v-2c-10.3,0-15.371-1.157-24.571-4.8571-9.5-3.8-14.829-5.1429-25.429-5.1429s-16.771,1.4429-26.571,5.1429c-8.108,2.7689-14.494,4.9021-23.429,4.8571z" fill-rule="evenodd" fill="#c4c0c9"/>
</svg>
