<svg id="janecek"  viewBox="0 0 1e3 252.14798">
 <path d="m41.2 126c-24.7 9.39-41.4 33.4-41.4 60.9 0 35.8 28.7 64 65 65 43.2 1 74.2-54 138-126-64-71.4-95-127-138-126-36.5 1.08-65 29.1-65 65 0 27.6 16.7 51.5 41.4 60.9"/>
 <path d="m340 11.5c0.355 0 0.717 0.003 1.07 0.0174 14.9 0.424 28.7 6.19 38.6 16.2 10.1 9.98 15.6 23.3 15.6 37.6 0 22.7-14.3 40.3-34.2 50.4-4.38 2.19-11.3 4.42-11.3 10.4 0 5.6 6.96 8.24 11.3 10.4 19.9 9.95 34.2 27.8 34.2 50.4 0 14.3-5.53 27.7-15.6 37.6-10.1 10-23.9 15.8-38.6 16.2-0.362 0.007-0.717 0.0139-1.07 0.0139-26.1 0-49.7-28.5-85.6-71.7-10.8-13.1-22.9-27.6-36.5-43.1 13.5-15.4 25.5-29.9 36.5-43.1 35.8-43.1 59.5-71.7 85.6-71.7m0-11.2c-42.1 0-73.4 55-137 126 63.3 71 94.6 126 137 126 0.466 0 0.925-0.007 1.39-0.0209 36.5-1.05 65-29.1 65-65 0-27.6-16.7-51.5-41.4-60.9 24.7-9.46 41.4-33.3 41.4-60.9 0-35.8-28.7-64-65-65-0.466-0.0139-0.936-0.0209-1.39-0.0209"/>
 <path d="m483 59.4h7.37l30.3 35.5v-35.5h10.5v54.3h-7.37l-30.3-35.5v35.5h-10.5v-54.3z"/>
 <path d="m570 89.3c-2.1-2.8-5.43-4.66-9.32-4.66-5.91 0-9.7 4.9-9.7 10.3 0 5.91 4.28 10.3 9.95 10.3 3.79 0 7.13-1.86 9.08-4.66v-11.3zm10.1 24.5h-9.7v-3.03c-3.11 2.64-6.68 3.83-10.5 3.83-5.6 0-10.9-2.49-14.2-6.37-2.95-3.41-4.8-8.07-4.8-13.2 0-11.1 8.24-19.7 18.5-19.7 4.28 0 8.07 1.4 11 3.83v-3.03h9.7v37.6z"/>
 <path d="m619 89.3c-2.09-2.8-5.43-4.66-9.32-4.66-5.91 0-9.7 4.9-9.7 10.3 0 5.91 4.28 10.3 9.95 10.3 3.79 0 7.13-1.86 9.08-4.66v-11.3zm0.386 24.5v-3.03c-3.1 2.64-6.68 3.83-10.5 3.83-5.6 0-10.9-2.49-14.2-6.37-2.95-3.41-4.8-8.07-4.8-13.2 0-11.1 8.24-19.7 18.5-19.7 4.1 0 7.69 1.17 10.6 3.48v-20.2h10.1v55h-9.7z"/>
 <path d="m668 89.3c-2.1-2.8-5.43-4.66-9.32-4.66-5.91 0-9.7 4.9-9.7 10.3 0 5.91 4.28 10.3 9.95 10.3 3.79 0 7.13-1.86 9.08-4.66v-11.3zm10.1 24.5h-9.7v-3.03c-3.1 2.64-6.68 3.83-10.5 3.83-5.6 0-10.9-2.49-14.2-6.37-2.95-3.41-4.8-8.07-4.8-13.2 0-11.1 8.24-19.7 18.5-19.7 4.28 0 8.07 1.4 11 3.83v-3.03h9.7v37.6z"/>
 <path d="m723 106c-4.42 5.91-10 8.45-17.1 8.45-11.7 0-20.2-8.7-20.2-19.6 0-11 8.77-19.7 20.2-19.7 6.54 0 12.3 3.03 15.8 7.55l-7.13 6.3c-2.02-2.64-5.04-4.52-8.7-4.52-5.81 0-10.2 4.59-10.2 10.3 0 5.91 4.28 10.3 10.4 10.3 4.1 0 7.37-2.48 9.01-4.97l7.76 5.81z"/>
 <path d="m755 90c-0.309-3.34-3.34-6.61-7.44-6.61-4.17 0-7.62 3.18-8.07 6.61h15.5zm9.39 17.7c-3.65 4.35-9.64 6.75-15.4 6.75-11.3 0-19.7-7.76-19.7-19.5 0-10.5 7.13-19.7 18.3-19.7 10.4 0 17.8 8.77 17.8 19.2 0 1.01-0.0741 2.02-0.23 2.87h-26.1c0.543 5.29 4.8 8.94 10.2 8.94 4.28 0 7.69-2.41 9.46-4.35l5.74 5.74z"/>
 <path d="m494 180v26.7h-10.5v-54.3h10.5v21.7l20.6-21.7h13.8l-23.9 24.8 26.8 29.5h-13.4l-23.8-26.7z"/>
 <path d="m563 183c-2.1-2.8-5.43-4.66-9.32-4.66-5.91 0-9.7 4.9-9.7 10.3 0 5.91 4.28 10.3 9.95 10.3 3.79 0 7.13-1.86 9.08-4.66v-11.3zm10.1 24.5h-9.7v-3.03c-3.1 2.64-6.68 3.83-10.5 3.83-5.6 0-10.9-2.49-14.2-6.37-2.95-3.41-4.8-8.07-4.8-13.2 0-11.1 8.24-19.7 18.5-19.7 4.28 0 8.07 1.4 11 3.83v-3.03h9.7v37.6z"/>
 <path d="m609 178c-0.699-0.235-2.17-0.386-3.65-0.386-4.42 0-7.93 3.19-9.15 5.43v23.7h-10.1v-37.6h9.7v3.79c2.25-2.8 6.37-4.59 11-4.59 1.47 0 2.33 0.152 3.41 0.309l-1.16 9.39z"/>
 <path d="m626 207h-10.1v-55h10.1v55z"/>
 <path d="m664 183c-2.09-2.8-5.43-4.66-9.32-4.66-5.91 0-9.7 4.9-9.7 10.3 0 5.91 4.28 10.3 9.95 10.3 3.79 0 7.13-1.86 9.08-4.66v-11.3zm10.1 24.5h-9.7v-3.03c-3.11 2.64-6.68 3.83-10.5 3.83-5.6 0-10.9-2.49-14.2-6.37-2.95-3.41-4.8-8.07-4.8-13.2 0-11.1 8.24-19.7 18.5-19.7 4.28 0 8.07 1.4 11 3.83v-3.03h9.7v37.6z"/>
 <path d="m727 190c0 4.35-0.466 7.3-1.7 9.64-2.8 5.22-8.56 8.24-14.8 8.24-7.06 0-12.8-3.72-15.3-9.53l9.01-4.52c0.852 2.17 2.8 4.73 6.37 4.73 1.94 0 3.65-0.772 4.73-2.17 0.772-1.01 1.24-2.33 1.24-5.22v-38.3h10.5v37.2z"/>
 <path d="m765 183c-2.1-2.8-5.43-4.66-9.32-4.66-5.91 0-9.7 4.9-9.7 10.3 0 5.91 4.28 10.3 9.95 10.3 3.79 0 7.13-1.86 9.08-4.66v-11.3zm10.1 24.5h-9.7v-3.03c-3.11 2.64-6.68 3.83-10.5 3.83-5.6 0-10.9-2.49-14.2-6.37-2.95-3.41-4.8-8.07-4.8-13.2 0-11.1 8.24-19.7 18.5-19.7 4.28 0 8.07 1.4 11 3.83v-3.03h9.7v37.6z"/>
 <path d="m786 207v-37.6h9.7v3.03c2.87-2.33 6.44-3.83 10.6-3.83 5.22 0 9.95 2.33 13 6.05 2.48 2.95 3.9 6.75 3.9 13.2v19.2h-10.1v-20c0-3.72-0.852-5.67-2.25-7.06-1.32-1.32-3.34-2.09-5.67-2.09-4.28 0-7.76 2.72-9.15 4.66v24.5h-10.1z"/>
 <path d="m859 183c-0.309-3.34-3.34-6.61-7.44-6.61-4.17 0-7.62 3.18-8.07 6.61h15.5zm9.39 17.7c-3.65 4.35-9.64 6.75-15.4 6.75-11.3 0-19.7-7.76-19.7-19.5 0-10.5 7.13-19.7 18.3-19.7 10.4 0 17.8 8.77 17.8 19.2 0 1.01-0.0741 2.02-0.226 2.87h-26.1c0.543 5.29 4.8 8.94 10.2 8.94 4.28 0 7.69-2.41 9.46-4.35l5.74 5.74z"/>
 <path d="m890 163-7.76-12.4h6.99l6.19 6.99 6.23-6.99h6.99l-7.76 12.4h-10.9zm22.9 35.8c-4.42 5.91-10 8.45-17.1 8.45-11.7 0-20.2-8.7-20.2-19.5 0-11 8.77-19.7 20.3-19.7 6.54 0 12.3 3.03 15.8 7.55l-7.13 6.3c-2.02-2.64-5.04-4.52-8.7-4.52-5.81 0-10.2 4.59-10.2 10.3 0 5.91 4.28 10.3 10.4 10.3 4.1 0 7.37-2.48 9.01-4.97l7.76 5.81z"/>
 <path d="m939 186 20.7 20.7h-13.6l-15.9-16.3v16.3h-10.1v-55h10.1v29.7l13-12.2h14.2l-18.4 16.9z"/>
 <path d="m991 183c-2.1-2.8-5.43-4.66-9.32-4.66-5.91 0-9.7 4.9-9.7 10.3 0 5.91 4.28 10.3 9.95 10.3 3.79 0 7.13-1.86 9.08-4.66v-11.3zm10.1 24.5h-9.7v-3.03c-3.1 2.64-6.68 3.83-10.5 3.83-5.6 0-10.9-2.49-14.2-6.37-2.95-3.41-4.8-8.07-4.8-13.2 0-11.1 8.24-19.7 18.5-19.7 4.28 0 8.07 1.4 11 3.83v-3.03h9.7v37.6z"/>
</svg>
