<svg xmlns:rdf="http://www.w3.org/1999/02/22-rdf-syntax-ns#" xmlns="http://www.w3.org/2000/svg" height="17" width="160" version="1.1" xmlns:cc="http://creativecommons.org/ns#" xmlns:dc="http://purl.org/dc/elements/1.1/">
 <path fill="#3a1554" d="m148 0 12 8.6v-8.6h-12z"/>
 <path fill="#2b0945" d="m145 0-13 11.6 7 2.3z"/>
 <path fill="#320f4c" d="m145 0-6 13.9 21 0.3v-5.6l-12-8.6z"/>
 <path fill="#2d0b47" d="m139 13.9 2.1 3.1h18.9v-2.8z"/>
 <path fill="#22043d" d="m139 13.9-3.7 3.1h5.8z"/>
 <path fill="#280642" d="m132 11.6-2.2 5.4h5.5l3.7-3.1z"/>
 <path fill="#2d0a47" d="m127 0-9 8.2 14 3.4z"/>
 <path fill="#2d0b47" d="m127 0 5 11.6 13-11.6z"/>
 <path fill="#300d4b" d="m119 0-1 8.2 9-8.2z"/>
 <path fill="#2a0744" d="m118 8.2 5 8.8h6.8l2.2-5.4z"/>
 <path fill="#270541" d="m118 8.2v8.8h5z"/>
 <path fill="#2c0846" d="m118 8.2-20.8 5.5 3.9 3.3h16.9z"/>
 <path fill="#2f0b49" d="m114 0 4 8.2 1-8.2z"/>
 <path fill="#310c4b" d="m103 0 15 8.2-4-8.2z"/>
 <path fill="#330e4d" d="m96.1 0 1.1 13.7 20.8-5.5-15-8.2z"/>
 <path fill="#2a0744" d="m95.1 17h6l-3.9-3.3z"/>
 <path fill="#361050" d="m87.1 0-9.8 4.7 19.9 9l-1.1-13.7h-9.1z"/>
 <path fill="#350e4f" d="m77.3 4.7-4.2 8.4 24.1 0.6z"/>
 <path fill="#340d4e" d="m76 0 1.3 4.7 9.8-4.7h-11.1z"/>
 <path fill="#300b4a" d="m73.1 13.1 3.1 3.9h18.9l2.1-3.3z"/>
 <path fill="#2d0947" d="m73.1 13.1-0.6 3.9h3.7z"/>
 <path fill="#320d4c" d="m73.1 13.1-10.4 0.3 1.5 3.6h8.3z"/>
 <path fill="#371151" d="m69.3 0-0.7 4.4 8.7 0.3-1.3-4.7z"/>
 <path fill="#381152" d="m68.6 4.4 4.5 8.7 4.2-8.4-8.7-0.3z"/>
 <path fill="#371151" d="m68.6 4.4-5.9 9 10.4-0.3-4.5-8.7z"/>
 <path fill="#320b4c" d="m67 0 1.6 4.4 0.7-4.4h-2.3z"/>
 <path fill="#310c4b" d="m62.7 13.4-5 3.6h6.5l-1.5-3.6z"/>
 <path fill="#360f50" d="m56.1 0 12.5 4.4-1.6-4.4z"/>
 <path fill="#3a1454" d="m47.8 0 14.9 13.4 5.9-9-12.5-4.4z"/>
 <path fill="#381252" d="m44.5 0 6.6 17h6.6l5-3.6-14.9-13.4z"/>
 <path fill="#350e4f" d="m42.4 0-1.3 17h10l-6.6-17h-2.1z"/>
 <path fill="#330c4d" d="m40.2 0-9.4 17h10.3l1.3-17h-2.2z"/>
 <path fill="#340e4e" d="m34.2 0-7.4 4 2.1 13h1.9l9.4-17h-6z"/>
 <path fill="#30094a" d="m26.8 4-15.8 5.9 13.4 7.1h4.5l-2.1-13z"/>
 <path fill="#30084a" d="m25.4 0 1.4 4 7.4-4h-8.8z"/>
 <path fill="#2d0547" d="m20 0 6.8 4-1.4-4z"/>
 <path fill="#2a0444" d="m11 9.9 0.3 7.1h13.1l-13.4-7.1z"/>
 <path fill="#290442" d="m11 9.9zl-6.2 7.1h6.5l-0.3-7.1z"/>
 <path fill="#320a4c" d="m10.3 0 0.7 9.9 15.8-5.9-6.8-4h-9.7z"/>
 <path fill="#30094a" d="m6.4 0 4.6 9.9-0.7-9.9h-3.9z"/>
 <path fill="#2e0748" d="m0 17v-5.1l11-2-6.2 7.1z"/>
 <path fill="#320a4c" d="m0 11.9 11-2-4.6-9.9h-6.4z"/>
</svg>
